<svg width="472" height="500" viewBox="0 0 472 500" fill="none" xmlns="http://www.w3.org/2000/svg">
    <path
        d="M244.32 328.57s-2.34-10.16-11.77-9.65c-9.43.51-11.72.51-15.79 0-4.07-.51-10.39-5.41-12.17-3.89-1.78 1.52-.79 4.85 2.52 7.79 3.31 2.94 9 5 9 5l-12.05 2.07s-10.86-5.8-13.41-4.78a3.947 3.947 0 0 0-1.772 1.553 3.946 3.946 0 0 0-.568 2.287s-4.51-2-5.78-.24c-1.27 1.76-1.59 3-.31 4 0 0-.84-.83-3.18-.14-2 .59-1.83 4.28 0 5.27l.62.36s17.08 9.83 17.6 9.9c3 .4 21.42-.38 30.9-.82a9.666 9.666 0 0 1 8.64 4.52l15.26 24.2 17.24-19.9-24.98-27.53Z"
        fill="#B78876" />
    <path
        d="M213.36 334.13c-.913.276-1.846.483-2.79.62-1.77.33-4.25.77-7.15 1.26h-.14l-3.86-1.77-9.21-4.24-2.78-1.32a4.675 4.675 0 0 1-1-.56c.37.08.73.204 1.07.37l2.85 1.17 4.19 1.81 5.09 2.32 3.85 1.79h-.15c2.9-.46 5.4-.83 7.18-1.08a18.237 18.237 0 0 1 2.85-.37Zm-4.23 4.53a14.606 14.606 0 0 0-6.88 5.46 8.666 8.666 0 0 1 6.88-5.46Zm19.55-14.24c.06 0 .11.62.44 1.62a8.509 8.509 0 0 0 2.32 3.58l.35.31-.46.09a24.3 24.3 0 0 0-4.68 1.39 24.685 24.685 0 0 0-6.57 4c-1.51 1.29-2.31 2.24-2.38 2.18-.07-.06.15-.28.5-.72a18.896 18.896 0 0 1 1.63-1.73 22.07 22.07 0 0 1 6.62-4.24 22.556 22.556 0 0 1 4.8-1.37l-.12.4a8.099 8.099 0 0 1-2.28-3.84 4.004 4.004 0 0 1-.17-1.67Zm-11.29 2.88a28.428 28.428 0 0 1-6.57 1.77c-1.85.34-3.54.58-4.76.7a7.489 7.489 0 0 1-2 .08c0-.16 3-.6 6.66-1.29l4.7-.93a8.774 8.774 0 0 1 1.97-.33Zm-16.04 13.34a25.178 25.178 0 0 1-2.85-1.15c-1.75-.72-4.2-1.65-6.93-2.62-2.73-.97-5.19-1.9-6.94-2.65a14.846 14.846 0 0 1-2.77-1.35 23.2 23.2 0 0 1 2.9 1l7 2.5c2.73 1 5.17 2 6.89 2.78.954.392 1.86.892 2.7 1.49Z"
        fill="#AA6550" />
    <path d="M205.69 340.23a11.366 11.366 0 0 1-7.36.73c0-.15 1.68-.06 3.69-.27 2.01-.21 3.63-.61 3.67-.46Z"
        fill="#AA6550" />
    <path
        d="M300.72 281.81s-15.25 8.77-18.44 35.57c-1.66 14-7.75 39.95-7.75 39.95L262 343.27l-18.93 21.66s20.45 43.65 32 55.55c11.55 11.9 34.46 15.57 34.46 15.57l4.61-72.95-13.42-81.29Z"
        fill="#FFC34A" />
    <path
        d="m416.35 269.76-35.23-6.17-44.91 2.23s-37.4 15.44-35.49 16L293.43 354l18.06 34.88-4.49 74.31h124l-6.47-51.66-8.11-62.25 15.39 48.19 2.33 65.72h34.5c3.65-28.62 4.79-68.38 4.79-68.38l-28.16-92a53.649 53.649 0 0 0-23.85-30.58 28.838 28.838 0 0 0-5.07-2.47Z"
        fill="#FFC34A" />
    <path
        d="m300.32 318.23.08.37c.05.27.12.63.2 1.09.17 1 .42 2.38.73 4.18.61 3.63 1.49 8.89 2.49 15.4 1 6.51 2.18 14.28 3.18 22.92 1 8.64 2.09 18.18 2.67 28.22.05.94.1 1.87.15 2.73-.52 19.49-1.12 37-1.67 49.64-.28 6.31-.53 11.41-.75 14.93-.113 1.74-.203 3.073-.27 4 0 .44-.06.79-.08 1.05.009.12.009.24 0 .36a1.968 1.968 0 0 1 0-.36v-1.06c0-.95.1-2.31.18-4 .13-3.55.33-8.64.58-14.94.45-12.64 1-30.15 1.51-49.63 0-.86-.1-1.79-.15-2.73-.58-10-1.59-19.55-2.63-28.19-1.04-8.64-2.14-16.41-3.1-22.92-.96-6.51-1.78-11.76-2.33-15.43l-.63-4.2c-.06-.46-.11-.82-.15-1.09a1.841 1.841 0 0 1-.01-.34Zm108.09 3.92a1.433 1.433 0 0 1-.11-.46c-.06-.37-.14-.81-.23-1.34 0-.3-.09-.62-.14-1-.05-.38-.06-.74-.09-1.16a24.922 24.922 0 0 1-.09-2.84v-1.65c0-.57.1-1.17.16-1.79.126-1.314.327-2.619.6-3.91a42.92 42.92 0 0 1 2.86-8.6 43.782 43.782 0 0 1 4.75-7.72 37.527 37.527 0 0 1 2.62-3c.43-.44.83-.88 1.26-1.27l1.25-1.09a25.427 25.427 0 0 1 2.23-1.75c.34-.25.65-.49 1-.68l.83-.51 1.17-.69c.133-.083.274-.153.42-.21 0 0-.11.12-.37.3l-1.1.77-.81.54c-.29.21-.59.46-.91.71a27.07 27.07 0 0 0-2.17 1.8l-1.21 1.1c-.42.39-.81.84-1.23 1.28a35.397 35.397 0 0 0-2.55 3 40.325 40.325 0 0 0-7.55 16.15 36.76 36.76 0 0 0-.64 3.86c-.07.61-.16 1.19-.19 1.76-.03.57-.05 1.11-.07 1.64-.08 1 0 2 0 2.81v1.16c0 .36.07.67.11 1 .05.53.09 1 .12 1.34.046.146.073.297.08.45Zm23.36 75.32a2.629 2.629 0 0 1-.23-.6c-.15-.45-.34-1-.57-1.74-.49-1.57-1.17-3.74-2-6.4-1.69-5.41-4-12.89-6.69-21.11-2.69-8.22-5.16-15.66-7.16-20.95-1-2.63-2.05-4.69-2.67-6.15-.31-.73-.55-1.3-.7-1.69a4.484 4.484 0 0 1-.2-.61c.12.179.221.37.3.57l.78 1.65c.68 1.43 1.74 3.46 2.83 6.09 2.1 5.29 4.63 12.7 7.31 20.93 2.68 8.23 4.95 15.72 6.56 21.16.8 2.72 1.43 4.93 1.85 6.46.19.72.35 1.3.47 1.76.063.205.104.416.12.63Zm25.99-2.3c0 .09-1.34-.29-3.51-.63a33.69 33.69 0 0 0-8.53-.2 33.33 33.33 0 0 0-8.29 2c-2 .8-3.24 1.46-3.29 1.38.241-.215.51-.397.8-.54.759-.44 1.544-.834 2.35-1.18a29.36 29.36 0 0 1 8.37-2.2 28.985 28.985 0 0 1 8.65.35 20.32 20.32 0 0 1 2.55.64c.316.084.619.212.9.38Zm-155.98-5.09c-.34-.442-.651-.907-.93-1.39a55.29 55.29 0 0 0-2.72-3.65c-2.39-3-5.9-7-9.8-11.43-3.9-4.43-7.43-8.4-9.92-11.35-1.24-1.47-2.24-2.67-2.91-3.52-.37-.418-.704-.867-1-1.34.42.367.805.772 1.15 1.21l3 3.41 10 11.24c3.9 4.41 7.37 8.46 9.7 11.55a42.463 42.463 0 0 1 2.6 3.77c.28.46.46.84.59 1.1.13.26.26.39.24.4Z"
        fill="#263238" />
    <path
        d="M308.67 436.05c.56-20.2 1.61-38.82-.22-58.76-.82 17.7-7.26 38.41-13.75 54.9l13.97 3.86Zm107.71-86.77s-5.75-12.86-5.36-12.86c-.57 24.06 4.33 51.68 13.33 74l-7.97-61.14Z"
        fill="#000" opacity=".3" />
    <path
        d="M400.57 417.48a6.547 6.547 0 0 1-.69.44l-2 1.17c-1.75 1-4.28 2.52-7.37 4.43-3.09 1.91-6.78 4.16-11 6.53a96.889 96.889 0 0 1-14.14 6.68 47.52 47.52 0 0 1-15.33 3.12 23.072 23.072 0 0 1-6.79-1 16.086 16.086 0 0 1-5.29-2.78 13.359 13.359 0 0 1-4.76-7.1 10.645 10.645 0 0 1-.31-2.33 5.101 5.101 0 0 1 .05-.81c.046 1.043.2 2.079.46 3.09a13.522 13.522 0 0 0 4.78 6.87 15.992 15.992 0 0 0 5.2 2.65c2.164.624 4.408.923 6.66.89a48.094 48.094 0 0 0 15.15-3.13 100.812 100.812 0 0 0 14.09-6.61c4.18-2.34 7.88-4.58 11-6.43 3.12-1.85 5.68-3.31 7.46-4.29l2.07-1.09c.243-.124.497-.225.76-.3Z"
        fill="#263238" />
    <path
        d="M400.42 388.19a11.393 11.393 0 0 1-.39 1.74c-.157.677-.35 1.344-.58 2-.26.77-.52 1.67-.92 2.62-.4.95-.79 2-1.32 3.09-.53 1.09-1.12 2.24-1.76 3.44a51.402 51.402 0 0 1-11.18 13.62c-1 .87-2 1.71-3 2.4s-1.91 1.35-2.78 1.9c-.87.55-1.67 1-2.38 1.42-.71.42-1.34.72-1.86 1-.527.275-1.072.516-1.63.72.489-.339 1.004-.64 1.54-.9.5-.27 1.12-.6 1.8-1 .68-.4 1.5-.87 2.33-1.47.83-.6 1.78-1.19 2.72-1.93.94-.74 1.94-1.55 3-2.42A54 54 0 0 0 395 400.85c.65-1.18 1.29-2.29 1.79-3.39s1-2.1 1.37-3c.37-.9.7-1.81 1-2.57.3-.76.51-1.43.67-2 .148-.582.346-1.151.59-1.7Z"
        fill="#263238" />
    <path
        d="M302.09 342.07c0 .14-5.24-.89-11.63-2.3-6.39-1.41-11.56-2.66-11.52-2.8.04-.14 5.23.88 11.63 2.29 6.4 1.41 11.55 2.67 11.52 2.81Zm0-5.86a18.75 18.75 0 0 1-3.29-.37c-2-.31-4.8-.81-7.87-1.39l-7.83-1.53a24.641 24.641 0 0 1-3.23-.74c1.105.027 2.206.15 3.29.37 2 .31 4.81.81 7.87 1.39l7.83 1.54c1.092.168 2.171.412 3.23.73Zm106.51.79c0 .14-22.51.09-50.28-.12s-50.27-.5-50.27-.64 22.51-.09 50.28.12 50.27.46 50.27.64Zm1.66 5.07c0 .14-23.16.26-51.73.26-28.57 0-51.73-.12-51.73-.26s23.16-.26 51.73-.26c28.57 0 51.73.11 51.73.26Zm42.16-11.88h.12c.12 0-.09 0-.15.06h-.09v-.1h.44l-.31.11c-1.84.68-9.58 3.3-18.71 6.78l-13.46 5.17-4.08 1.56c-.492.215-1 .389-1.52.52a8.473 8.473 0 0 1 1.44-.7c.95-.42 2.32-1 4-1.72 3.41-1.42 8.14-3.33 13.41-5.32 9.15-3.48 17-5.94 18.87-6.4v.11h-.12v-.1h.09c.06 0 .11 0 .15.08l-.08-.05Zm-.82-6.46c0 .14-8.73 3.21-19.61 6.86-10.88 3.65-19.73 6.51-19.77 6.38-.04-.13 8.73-3.21 19.61-6.87 10.88-3.66 19.72-6.51 19.77-6.37Zm-66.89-59.39c.056.266.086.538.09.81.067.771.087 1.546.06 2.32a25.121 25.121 0 0 1-1.77 8.37 25.849 25.849 0 0 1-7.42 10.25 25.469 25.469 0 0 1-29.33 1.79 25.732 25.732 0 0 1-8.61-9.27 25.097 25.097 0 0 1-2.78-8.09 18.413 18.413 0 0 1-.22-2.32 3.782 3.782 0 0 1 0-.81c.063.266.1.537.11.81 0 .53.15 1.3.32 2.29a26.277 26.277 0 0 0 2.9 7.94 25.786 25.786 0 0 0 8.54 9 25.172 25.172 0 0 0 28.78-1.76 25.838 25.838 0 0 0 9.29-18.25c0-1 .06-1.78 0-2.31a4.612 4.612 0 0 1 .04-.77Zm-121.83 81a4.357 4.357 0 0 1-.53 1c-.36.6-.92 1.46-1.63 2.51-1.43 2.08-3.51 4.89-6 7.84a96.618 96.618 0 0 1-6.76 7.2c-.91.88-1.66 1.57-2.2 2a4.014 4.014 0 0 1-.87.67c.216-.296.46-.571.73-.82l2.08-2.14c1.76-1.81 4.14-4.35 6.62-7.28 2.48-2.93 4.6-5.69 6.1-7.72l1.76-2.4c.197-.314.432-.603.7-.86Z"
        fill="#FAFAFA" />
    <path
        d="M375.85 420.3c-5.05 2.87-11.86 3.33-17.94 3.49a7.733 7.733 0 0 1-3.38-.45 2.856 2.856 0 0 1-1.82-2.66c.13-1.38 1.5-2.26 2.77-2.79 4.91-2 10.42-1.92 15.58-3.21 8.78-2.21 17.75-8.48 24.59-14.42a53.485 53.485 0 0 1-19.8 20"
        fill="#000" opacity=".3" />
    <path
        d="M356.94 288a22.552 22.552 0 0 1-20.76-22.69c0-5.62.1-10.12.1-10.12s-18.1-2.81-18.32-20.91c-.22-18.1 2.91-59.67 2.91-59.67a62.899 62.899 0 0 1 63.22 7.95l2.68 2.06-5.52 82.38a22.552 22.552 0 0 1-7.763 15.584A22.561 22.561 0 0 1 356.94 288Z"
        fill="#B78876" />
    <path d="M336.25 254.91a42.133 42.133 0 0 0 23.6-6.7s-5.57 13-23.64 11.39l.04-4.69Z" fill="#AA6550" />
    <path d="M384.54 203.35c.31-.13 12.44-3.68 12 8.7-.44 12.38-12.74 9.42-12.75 9.07-.01-.35.75-17.77.75-17.77Z"
        fill="#B78876" />
    <path
        d="M387.76 216.55c.06 0 .21.16.57.34.507.231 1.083.26 1.61.08 1.32-.44 2.49-2.48 2.62-4.71a7.08 7.08 0 0 0-.5-3.1 2.513 2.513 0 0 0-1.57-1.71 1.1 1.1 0 0 0-1.29.55c-.18.34-.11.59-.17.61-.06.02-.26-.21-.15-.72.081-.303.26-.57.51-.76a1.681 1.681 0 0 1 1.21-.28 3.004 3.004 0 0 1 2.19 2 7.278 7.278 0 0 1 .63 3.47c-.15 2.5-1.51 4.79-3.31 5.25a2.307 2.307 0 0 1-2-.39c-.34-.33-.39-.61-.35-.63Z"
        fill="#AA6550" />
    <path
        d="M327.44 203.61a2.58 2.58 0 0 0 2.49 2.61 2.462 2.462 0 0 0 1.827-.601 2.472 2.472 0 0 0 .843-1.729 2.589 2.589 0 0 0-2.49-2.61 2.48 2.48 0 0 0-1.828.601 2.469 2.469 0 0 0-.842 1.729Zm-3.14-3.56c.32.34 2.27-1.11 5.06-1.1 2.79.01 4.82 1.4 5.12 1.06.15-.15-.18-.76-1.07-1.41a7.095 7.095 0 0 0-4.1-1.26 6.789 6.789 0 0 0-4 1.3c-.88.65-1.17 1.26-1.01 1.41Zm29.85 4.17a2.589 2.589 0 0 0 2.49 2.61 2.47 2.47 0 0 0 1.825-.604 2.48 2.48 0 0 0 .845-1.726 2.58 2.58 0 0 0-2.49-2.61 2.48 2.48 0 0 0-1.828.601 2.483 2.483 0 0 0-.842 1.729Zm-2.51-3.65c.32.34 2.28-1.11 5.06-1.1 2.78.01 4.82 1.4 5.12 1.06.15-.15-.17-.76-1.06-1.41a7.127 7.127 0 0 0-4.1-1.26 6.757 6.757 0 0 0-4 1.3c-.89.65-1.18 1.26-1.02 1.41Zm-10.1 20.63c0-.16-1.71-.45-4.51-.81-.71-.08-1.39-.22-1.51-.7a3.67 3.67 0 0 1 .48-2.11c.67-1.72 1.36-3.52 2.1-5.41 2.92-7.7 5-14 4.72-14.14-.28-.14-2.93 6-5.85 13.73l-2 5.44a4.131 4.131 0 0 0-.37 2.79 1.764 1.764 0 0 0 1.17 1c.391.109.794.166 1.2.17 2.81.19 4.56.2 4.57.04Zm9.38-31.53c.28.76 3.05.4 6.32.79 3.27.39 5.9 1.29 6.33.61.2-.33-.26-1-1.33-1.77a11.085 11.085 0 0 0-9.64-1.06c-1.19.48-1.8 1.07-1.68 1.43Zm-25.6 2.33c.49.64 2.4 0 4.71-.05s4.25.42 4.7-.24c.2-.32-.11-1-1-1.55a6.457 6.457 0 0 0-3.83-1 6.53 6.53 0 0 0-3.76 1.27c-.77.57-1.04 1.27-.82 1.57Z"
        fill="#263238" />
    <path
        d="M312.05 163.16a6.69 6.69 0 0 1 2.47-6 4.742 4.742 0 0 1 6.14.46 5.52 5.52 0 0 1 .881-4.413 5.537 5.537 0 0 1 3.869-2.297c3-.18 5.47 2.05 8.33 2.83 2.86.78 5.77.1 8.45-1 2.68-1.1 5.18-2.57 7.89-3.56a23.163 23.163 0 0 1 29.61 13.6c4-1.24 8.46.77 10.9 4.12 2.44 3.35 3.07 7.76 2.58 11.88a37.697 37.697 0 0 1-2.07 8.22v.7c-.19 9.95-1.31 21.64-5.56 21.7-7.4.12-5.64-13.83-5.64-13.83-9.08-3.51-5.7-17.12-8-19.18-2.3-2.06-7-6.86-26 2.86-7.38 3.77-17.2 3.65-22.56 2.44l-.48-.1h-.11a.978.978 0 0 0-.15-.06 17.348 17.348 0 0 1-4.88-2.07 9.668 9.668 0 0 1-4-4.47 5.272 5.272 0 0 1 1-5.67 11.578 11.578 0 0 1-2.67-6.16Z"
        fill="#263238" />
    <path
        d="M339.18 229.76a12.56 12.56 0 0 0 1.62 3.16 4.202 4.202 0 0 0 3 1.74 3.771 3.771 0 0 0 3.19-1.74 5.999 5.999 0 0 0 .89-3.63c-.05-1.14-.58-2.5-1.71-2.64a2.791 2.791 0 0 0-1.38.31l-6 2.42"
        fill="#AA6550" />
    <path
        d="M341.57 234.67a8.361 8.361 0 0 0 3.18-.39 4.569 4.569 0 0 0 2.41-2.19 4.796 4.796 0 0 0 .08-3.9 4.408 4.408 0 0 0-.52-.9c-.24-.24-.2-.23-.45-.2s-.64.26-1 .38l-1 .4c-1.28.52-2.44 1-3.41 1.33-2 .73-3.2 1.12-3.25 1-.05-.12 1.07-.76 2.95-1.67.94-.45 2.07-1 3.32-1.54l1-.44a11.25 11.25 0 0 1 1.09-.45 1.44 1.44 0 0 1 .89 0c.26.116.486.295.66.52a5.448 5.448 0 0 1 .48 5.91 5.065 5.065 0 0 1-3 2.45 4.813 4.813 0 0 1-2.58.1c-.6-.15-.88-.35-.85-.41Z"
        fill="#263238" />
    <path
        d="M372.55 174.65c.075-.728.075-1.462 0-2.19a8.488 8.488 0 0 0-2.83-5.08 11.461 11.461 0 0 0-8.15-2.69c-3.35 0-6.91 1.12-10.59 2.36a57 57 0 0 1-5.48 1.59c-1.739.382-3.51.6-5.29.65a28.819 28.819 0 0 1-8.92-1.18 27.442 27.442 0 0 1-5.58-2.36 15.186 15.186 0 0 1-1.4-.87 2.818 2.818 0 0 1-.46-.34s.69.38 2 1a30.54 30.54 0 0 0 5.59 2.18 28.618 28.618 0 0 0 14 .38c1.77-.4 3.58-1 5.43-1.58 3.67-1.24 7.3-2.35 10.75-2.36 3.07-.149 6.076.906 8.38 2.94a8.599 8.599 0 0 1 2.78 5.34c.088.745.01 1.5-.23 2.21Zm14.08 30.59s-.1-.12-.24-.38a10.52 10.52 0 0 1-.56-1.15 23.07 23.07 0 0 1-1.45-4.5c-.485-2.3-.64-4.657-.46-7 .34-2.837.878-5.648 1.61-8.41a16.382 16.382 0 0 0 0-8.32 8.39 8.39 0 0 0-1.74-3.15 6.308 6.308 0 0 0-2.6-1.71 5.998 5.998 0 0 0-4.46.12 7.78 7.78 0 0 0-1.39 1 3.39 3.39 0 0 1 1.29-1.16 6.006 6.006 0 0 1 4.68-.28 6.574 6.574 0 0 1 2.81 1.76 8.846 8.846 0 0 1 1.88 3.3 16.598 16.598 0 0 1 0 8.58 65.315 65.315 0 0 0-1.64 8.34 25.55 25.55 0 0 0 .34 6.89 26.994 26.994 0 0 0 1.27 4.49c.44 1.01.7 1.56.66 1.58Z"
        fill="#455A64" />
    <path
        d="M374.29 173.19a4.045 4.045 0 0 1 0-.73c0-.53 0-1.21.07-2.07a24.004 24.004 0 0 0-.83-7.52 13.34 13.34 0 0 0-2.42-4.57 9.37 9.37 0 0 0-4.85-3.2 12.273 12.273 0 0 0-6.48.26 29.943 29.943 0 0 0-6.48 2.94 53.479 53.479 0 0 1-6.42 3.3 19.449 19.449 0 0 1-6.62 1.33c-2.049.049-4.093-.2-6.07-.74a23.466 23.466 0 0 1-4.91-2 20.089 20.089 0 0 1-5.83-5 13.816 13.816 0 0 1-1.18-1.72 5.023 5.023 0 0 1-.35-.64c.168.176.316.371.44.58.384.574.801 1.125 1.25 1.65a20.821 20.821 0 0 0 5.85 4.77 23.907 23.907 0 0 0 4.85 1.93c1.933.513 3.931.742 5.93.68a19.083 19.083 0 0 0 6.44-1.32 54.11 54.11 0 0 0 6.36-3.29 29.86 29.86 0 0 1 6.6-3 12.72 12.72 0 0 1 6.74-.24 9.762 9.762 0 0 1 5.07 3.4 13.581 13.581 0 0 1 2.44 4.74c.649 2.488.879 5.067.68 7.63-.05.91-.12 1.61-.18 2.08a3.27 3.27 0 0 1-.1.75Z"
        fill="#455A64" />
    <path d="M481.09 463.19c0 .14-101.63.26-227 .26s-227-.12-227-.26 101.61-.26 227-.26 227 .07 227 .26Z"
        fill="#263238" />
    <path
        d="M200.76 422.13c1.93 2.73 5.65 1.8 7.36.12 1.71-1.68 2.44-4.1 3.09-6.41 1.48-5.29 3-10.83 1.82-16.19a8.942 8.942 0 0 0-2.09-4.39 4.676 4.676 0 0 0-4.45-1.45c-1.88.51-3 2.35-3.87 4.1a38.489 38.489 0 0 0-3.71 16.57c0 2.67.33 5.46 1.85 7.65Z"
        fill="#FFC34A" />
    <path
        d="M200.76 422.13c1.93 2.73 5.65 1.8 7.36.12 1.71-1.68 2.44-4.1 3.09-6.41 1.48-5.29 3-10.83 1.82-16.19a8.942 8.942 0 0 0-2.09-4.39 4.676 4.676 0 0 0-4.45-1.45c-1.88.51-3 2.35-3.87 4.1a38.489 38.489 0 0 0-3.71 16.57c0 2.67.33 5.46 1.85 7.65Z"
        fill="#000" opacity=".2" />
    <path
        d="M208 436a16.523 16.523 0 0 1 10.29-1.31 8.542 8.542 0 0 1 5.1 2.24c1.28 1.4 1.53 3.86.08 5.08a4.878 4.878 0 0 1-3.2.83c-2.73 0-5.75-.48-7.92 1.17-1.23.94-2.05 2.5-3.53 3a3.513 3.513 0 0 1-3.87-1.69 5.999 5.999 0 0 1-.46-4.43A6.734 6.734 0 0 1 208 436Zm-12.48-9.91a10.001 10.001 0 0 0 1.5-9.17 17.69 17.69 0 0 0-5.47-7.84 29.318 29.318 0 0 0-9.75-5.68 10.466 10.466 0 0 0-4.38-.71 4.554 4.554 0 0 0-3.65 2.24c-1 1.95 0 4.31 1 6.24a75.291 75.291 0 0 0 6.44 9.68c1.93 2.45 4.13 4.87 7.05 6s5.95.95 7.49-1.08"
        fill="#FFC34A" />
    <path
        d="M200.87 463.4c.094-.407.148-.822.16-1.24.08-.9.19-2 .31-3.39.158-1.679.405-3.348.74-5a38.02 38.02 0 0 1 1.77-5.89 21.681 21.681 0 0 1 3-5.33 11.264 11.264 0 0 1 3.77-3.17 10.649 10.649 0 0 1 3.19-1 6.341 6.341 0 0 0 1.24-.18 5.647 5.647 0 0 0-1.26 0 9.67 9.67 0 0 0-3.33.89 11.253 11.253 0 0 0-4 3.2 21.256 21.256 0 0 0-3.07 5.44 35.822 35.822 0 0 0-1.77 6 44.47 44.47 0 0 0-.63 5c-.1 1.45-.13 2.61-.15 3.42-.04.416-.03.836.03 1.25Z"
        fill="#263238" />
    <path
        d="M201.08 460.79a2.092 2.092 0 0 0 0-.57v-7.72c.1-5.11.5-12.18 1.3-19.95s1.91-14.76 2.92-19.77c.24-1.26.48-2.39.7-3.39.22-1 .4-1.84.58-2.54.18-.7.28-1.18.38-1.6.057-.185.087-.377.09-.57a2.861 2.861 0 0 0-.19.54c-.13.41-.28.94-.47 1.58-.19.64-.42 1.54-.67 2.53-.25.99-.52 2.12-.78 3.37a188.767 188.767 0 0 0-3.07 19.8c-.81 7.78-1.15 14.87-1.15 20 0 2.56.05 4.64.12 6.07 0 .67.08 1.22.11 1.65.025.194.069.384.13.57Z"
        fill="#263238" />
    <path
        d="M201 447.13a9.88 9.88 0 0 0 0-1.72 46.08 46.08 0 0 0-.56-4.67 64.091 64.091 0 0 0-4.44-14.82 42.873 42.873 0 0 0-8.43-13 21.016 21.016 0 0 0-2-1.82c-.3-.25-.57-.5-.84-.7l-.77-.52a9.915 9.915 0 0 0-1.45-.92 49.882 49.882 0 0 1 4.78 4.21 45.537 45.537 0 0 1 8.22 12.91 63.815 63.815 0 0 1 2.9 8c.76 2.5 1.27 4.79 1.66 6.73.39 1.94.58 3.52.71 4.62.034.571.108 1.139.22 1.7Z"
        fill="#263238" />
    <path d="m220.13 307.47-42.43-1.81v-42.42h42.43v44.23Z" fill="#FFC34A" />
    <path d="M236.95 251.1h-42.43v42.43h42.43V251.1Z" fill="#FFC34A" />
    <path d="m220.13 305.66 16.82-12.13V251.1l-16.82 12.14v42.42Z" fill="#FFC34A" />
    <path d="m177.7 263.24 16.82-12.14h42.43l-16.82 12.14H177.7Z" fill="#FFC34A" />
    <path d="m220.13 307.47 16.82-13.94V251.1l-16.82 12.14v44.23Z" fill="#FFC34A" />
    <path opacity=".3" d="m177.7 263.24 16.82-12.14h42.43l-16.82 12.14H177.7Z" fill="#fff" />
    <path opacity=".4" d="m220.13 307.47 16.82-13.94V251.1l-16.82 12.14v44.23Z" fill="#000" />
    <path
        d="M242.88 295.15c.254.808.342 1.658.26 2.5-.21.42-.06.12-.1.21h-.06l-.1.07-.2.15-.38.27c-.25.17-.47.32-.67.43-.39.24-.65.36-.69.3-.04-.06.14-.28.47-.59l.6-.52.36-.3.2-.15.1-.08c0 .1.11-.2-.1.21a6.31 6.31 0 0 1 .31-2.5Zm0-10.72a13.93 13.93 0 0 1 0 5.36 13.93 13.93 0 0 1 0-5.36Zm0-10.72a13.93 13.93 0 0 1 0 5.36 13.93 13.93 0 0 1 0-5.36Zm0-10.71a13.93 13.93 0 0 1 0 5.36 13.93 13.93 0 0 1 0-5.36Zm0-10.73a13.93 13.93 0 0 1 0 5.36 13.93 13.93 0 0 1 0-5.36Zm-2.5-7.86a6.119 6.119 0 0 1 2.5-.26l.26.26v.96c0 .3 0 .57-.06.8 0 .45-.11.73-.18.73-.07 0-.14-.28-.18-.73 0-.23 0-.5-.06-.8v-1l.26.26c-.853.1-1.717.026-2.54-.22Zm-9.59 0a11.228 11.228 0 0 1 4.8 0 11.196 11.196 0 0 1-4.8 0Zm-9.59 0a11.15 11.15 0 0 1 4.79 0 11.15 11.15 0 0 1-4.79 0Zm-9.59 0a11.15 11.15 0 0 1 4.79 0 11.15 11.15 0 0 1-4.79 0Zm-9.61 0a11.15 11.15 0 0 1 4.79 0 11.15 11.15 0 0 1-4.79 0Zm-9.37.59c0-.07.16-.34.54-.72h.09c.41 0 .94-.06 1.53-.06a5.602 5.602 0 0 1 2.39.26 5.781 5.781 0 0 1-2.39.26c-.59 0-1.12 0-1.53-.06l.13-.05c-.39.24-.71.37-.76.37Zm-7.38 6.09c-.09-.11.66-.89 1.68-1.73s1.92-1.44 2-1.33c.08.11-.66.88-1.68 1.73s-1.91 1.44-2 1.33Zm-7.38 6.12c-.09-.11.66-.88 1.68-1.73s1.92-1.44 2-1.33c.08.11-.66.89-1.68 1.73s-1.87 1.45-2 1.33Zm-5.64 7.16a6.31 6.31 0 0 1-.24-2.5l.1-.2h.05l.1-.08.19-.15.37-.29.65-.47c.38-.25.63-.38.68-.32.05.06-.13.28-.45.61-.16.16-.35.35-.57.55l-.35.31-.19.16-.1.08h-.05c0-.08-.09.2.1-.19a6.348 6.348 0 0 1-.29 2.49Zm-.1 9.92a6.102 6.102 0 0 1-.23-2.48 6.204 6.204 0 0 1 .28-2.48 11.758 11.758 0 0 1-.05 5v-.04Zm-.13 9.92a6.002 6.002 0 0 1-.24-2.48 6.222 6.222 0 0 1 .28-2.48c.253.801.334 1.646.24 2.48a6.222 6.222 0 0 1-.28 2.48Zm-.06 9.92a6.21 6.21 0 0 1-.24-2.48 6.117 6.117 0 0 1 .29-2.48c.246.802.324 1.646.23 2.48a6.222 6.222 0 0 1-.28 2.48Zm-.1 9.92a6.102 6.102 0 0 1-.23-2.48 6.204 6.204 0 0 1 .28-2.48 6.23 6.23 0 0 1 .24 2.48 6.117 6.117 0 0 1-.29 2.48Zm2.43 7.5a6.356 6.356 0 0 1-2.51.22c-.51-.53-.14-.15-.25-.27v-.97c0-.3 0-.57.06-.79.05-.45.12-.73.19-.73s.14.28.18.73c0 .23 0 .5.05.8.05.3 0 .32 0 .47v.47l-.26-.26a6.315 6.315 0 0 1 2.54.33Zm9.47.15a5.425 5.425 0 0 1-2.37.23 5.767 5.767 0 0 1-2.36-.3 5.334 5.334 0 0 1 2.37-.22 5.715 5.715 0 0 1 2.36.29Zm9.47.16a5.71 5.71 0 0 1-2.37.22 5.444 5.444 0 0 1-2.36-.3 5.71 5.71 0 0 1 2.37-.22 5.585 5.585 0 0 1 2.36.3Zm9.48.14c-1.567.32-3.185.293-4.74-.08a10.938 10.938 0 0 1 4.74.08Zm9.47.17c-1.567.32-3.185.293-4.74-.08a5.79 5.79 0 0 1 2.38-.22 5.667 5.667 0 0 1 2.36.3Zm9.47.16a5.71 5.71 0 0 1-2.37.22 5.569 5.569 0 0 1-2.36-.3 5.71 5.71 0 0 1 2.37-.22 5.4 5.4 0 0 1 2.36.3Zm7.93-4.59c.08.11-.69.84-1.74 1.63a5.724 5.724 0 0 1-2 1.23c-.09-.12.69-.85 1.73-1.64 1.04-.79 1.92-1.34 2.01-1.22Zm7.55-5.74c.09.11-.69.85-1.73 1.64a5.786 5.786 0 0 1-2 1.22c-.08-.12.69-.85 1.73-1.64 1.04-.79 1.89-1.32 2-1.22Zm-5.75-61c.14 0 .14.61 0 1.28s-.39 1.19-.53 1.16c-.14-.03-.13-.6 0-1.27s.39-1.25.53-1.17Zm2.3-10.21a6.684 6.684 0 0 1-.32 2.6 6.795 6.795 0 0 1-.83 2.48c.039-1.753.43-3.481 1.15-5.08Zm2.34-10.17a13.307 13.307 0 0 1-1.14 5.08 13.307 13.307 0 0 1 1.14-5.08Zm2.25-10.17a13.172 13.172 0 0 1-1.15 5.09 6.684 6.684 0 0 1 .32-2.6 6.825 6.825 0 0 1 .83-2.49Zm2.29-10.17a6.684 6.684 0 0 1-.32 2.6 6.608 6.608 0 0 1-.83 2.49c.04-1.756.431-3.487 1.15-5.09Zm2.3-10.16a6.92 6.92 0 0 1-.32 2.6 6.795 6.795 0 0 1-.83 2.48 6.684 6.684 0 0 1 .32-2.6c.108-.874.39-1.717.83-2.48Zm1.69-7.52c.14 0 .13.6 0 1.27s-.39 1.2-.53 1.16c-.14-.04-.13-.6 0-1.27s.39-1.2.53-1.16Z"
        fill="#FFC34A" />
    <path
        d="M192.18 242.17c.13-.06.48.39.79 1 .31.61.46 1.17.33 1.24-.13.07-.48-.39-.79-1-.31-.61-.46-1.17-.33-1.24Zm-4.39-8.7c.13-.07.73.86 1.33 2.06a6.1 6.1 0 0 1 .87 2.29c-.13.07-.73-.86-1.33-2.06a6.086 6.086 0 0 1-.87-2.29Zm-4.38-8.71a6.059 6.059 0 0 1 1.33 2.06 6 6 0 0 1 .86 2.3 6.059 6.059 0 0 1-1.33-2.06 5.93 5.93 0 0 1-.86-2.3Zm-4.41-8.7c.13-.07.72.86 1.33 2.06.441.696.734 1.476.86 2.29-.13.07-.72-.86-1.33-2.06a5.993 5.993 0 0 1-.86-2.29Zm-4.36-8.71a5.896 5.896 0 0 1 1.33 2.06c.446.698.742 1.482.87 2.3a5.896 5.896 0 0 1-1.33-2.06 6.105 6.105 0 0 1-.87-2.3Zm-4.38-8.7c.13-.07.72.86 1.33 2.06.441.696.734 1.476.86 2.29a6.059 6.059 0 0 1-1.33-2.06 5.993 5.993 0 0 1-.86-2.29Zm-4.38-8.71a6.059 6.059 0 0 1 1.33 2.06c.441.696.734 1.476.86 2.29-.13.07-.72-.85-1.33-2a5.989 5.989 0 0 1-.86-2.35Zm-4.39-8.7c.13-.07.73.85 1.33 2.06.444.695.741 1.475.87 2.29a5.896 5.896 0 0 1-1.33-2.06 6.1 6.1 0 0 1-.87-2.29Zm-3.31-6.59c.13-.06.48.38.79 1 .31.62.46 1.17.33 1.23-.13.06-.48-.38-.79-1-.31-.62-.46-1.16-.33-1.23Zm-44.31 82.65c0 .14-.58.22-1.27.16-.69-.06-1.24-.21-1.23-.35.01-.14.58-.22 1.27-.17.69.05 1.24.22 1.23.36Zm10.13.8a6.528 6.528 0 0 1-2.56.06 6.488 6.488 0 0 1-2.52-.46 6.528 6.528 0 0 1 2.56-.06 6.34 6.34 0 0 1 2.52.46Zm10.19.79a12.563 12.563 0 0 1-5.08-.4 12.581 12.581 0 0 1 5.08.4Zm10.16.8a12.563 12.563 0 0 1-5.08-.4 6.547 6.547 0 0 1 2.56-.06 6.231 6.231 0 0 1 2.52.46Zm10.17.79a6.309 6.309 0 0 1-2.56.06 6.522 6.522 0 0 1-2.52-.45A6.31 6.31 0 0 1 152 260a6.653 6.653 0 0 1 2.52.48Zm10.16.8a6.528 6.528 0 0 1-2.56.06 6.323 6.323 0 0 1-2.52-.46 12.581 12.581 0 0 1 5.08.4Zm7.57.59c0 .15-.57.22-1.26.17-.69-.05-1.24-.22-1.23-.36.01-.14.58-.22 1.27-.16.69.06 1.24.21 1.22.35Z"
        fill="#FFC34A" />
    <path
        d="M180.375 147.328c5.482-23.691-9.279-47.341-32.97-52.824-23.691-5.482-47.34 9.279-52.823 32.969-5.482 23.691 9.278 47.341 32.969 52.824 23.691 5.482 47.341-9.278 52.824-32.969Zm111.345.63c5.482-23.691-9.279-47.341-32.97-52.824-23.691-5.482-47.34 9.279-52.823 32.97-5.483 23.691 9.278 47.34 32.969 52.823 23.691 5.483 47.341-9.278 52.824-32.969Z"
        fill="#fff" />
    <path
        d="M181.335 137.26s0-.24-.06-.72-.08-1.18-.14-2.09c0-.46-.03-.97-.09-1.53-.05-.57-.17-1.18-.27-1.84-.1-.66-.22-1.38-.34-2.15-.15-.81-.344-1.611-.58-2.4a41.789 41.789 0 0 0-4.87-11.68 43.65 43.65 0 0 0-11.16-12.44l-1.9-1.42c-.67-.43-1.37-.83-2.06-1.26-.69-.43-1.38-.89-2.14-1.24l-2.27-1.09-1.15-.55-1.22-.44-2.46-.9c-.84-.28-1.72-.45-2.58-.69a21.402 21.402 0 0 0-2.66-.6 40.157 40.157 0 0 0-5.53-.64c-.95 0-1.9-.13-2.86-.11l-2.9.15c-.48 0-1 0-1.46.09l-1.46.23c-1 .16-2 .27-2.95.48a45.014 45.014 0 0 0-5.84 1.71 46.274 46.274 0 0 0-5.71 2.51c-.92.5-1.81 1.08-2.73 1.63-.44.28-.92.53-1.35.85l-1.29 1a49.106 49.106 0 0 0-5 4.22l-2.23 2.45-.56.62-.5.66-1 1.34-1 1.35-.88 1.44-.88 1.45-.44.73-.38.76-1.48 3.09-1.13 3.21a43.45 43.45 0 0 0 0 27.63c.4 1.08.8 2.16 1.19 3.24.39 1.08 1 2.06 1.49 3.09l.37.76.44.73.89 1.45.88 1.44 1 1.35 1 1.34.5.67.56.61 2.22 2.45a49.442 49.442 0 0 0 5 4.23l1.29 1c.43.33.91.57 1.35.86.92.54 1.81 1.12 2.73 1.63a46.244 46.244 0 0 0 5.71 2.51 48.384 48.384 0 0 0 5.84 1.71c1 .2 2 .32 2.95.48l1.46.22c.49.07 1 .06 1.46.1l2.9.15c1 0 1.91-.08 2.86-.11a40.304 40.304 0 0 0 5.54-.65 21.65 21.65 0 0 0 2.65-.6c.87-.23 1.74-.41 2.58-.69l2.47-.9 1.21-.44 1.16-.55 2.27-1.09c.734-.376 1.448-.79 2.14-1.24.7-.42 1.4-.82 2.06-1.26l1.9-1.41a43.928 43.928 0 0 0 11.15-12.44 42.003 42.003 0 0 0 4.78-11.73c.236-.789.43-1.59.58-2.4.12-.76.23-1.48.34-2.14.11-.66.22-1.28.27-1.84.05-.56.07-1.08.09-1.54.06-.91.11-1.6.14-2.09.03-.49.06-.71.06-.71v.71c0 .47-.05 1.19-.08 2.1 0 .46 0 1-.07 1.54s-.16 1.18-.25 1.85c-.09.67-.2 1.39-.32 2.15a22.523 22.523 0 0 1-.55 2.42 41.82 41.82 0 0 1-4.8 11.82 43.737 43.737 0 0 1-11.18 12.59l-1.9 1.43c-.67.44-1.38.85-2.08 1.28-.7.43-1.39.91-2.15 1.26l-2.29 1.11-1.17.56-1.23.45-2.48.91c-.85.28-1.73.47-2.61.71-.878.255-1.769.459-2.67.61-1.85.343-3.721.564-5.6.66-1 0-1.91.13-2.88.12l-2.93-.15c-.49 0-1 0-1.48-.09l-1.48-.22c-1-.16-2-.28-3-.48a48.346 48.346 0 0 1-11.68-4.25c-.94-.51-1.83-1.1-2.76-1.65-.45-.29-.94-.53-1.37-.86l-1.31-1a50.342 50.342 0 0 1-5-4.27l-2.26-2.48-.56-.62-.51-.67-1-1.36-1-1.36-.89-1.46-.94-1.48-.45-.73-.38-.78c-.5-1.027-1-2.067-1.5-3.12-.4-1.09-.8-2.18-1.21-3.28a43.88 43.88 0 0 1 0-27.95l1.2-3.28c.5-1.05 1-2.09 1.51-3.13l.37-.77.45-.73.89-1.47.9-1.46 1-1.36 1-1.36.51-.67.57-.62 2.25-2.48a49.148 49.148 0 0 1 5-4.26l1.3-1c.43-.32.92-.57 1.37-.86.93-.55 1.82-1.14 2.76-1.64a48.333 48.333 0 0 1 11.68-4.25c1-.21 2-.32 3-.48l1.48-.22c.49-.07 1-.06 1.48-.1l2.93-.14c1 0 1.93.08 2.88.11a40.68 40.68 0 0 1 5.59.67c.905.145 1.801.35 2.68.61.88.24 1.76.42 2.6.7l2.49.92 1.23.45 1.16.56 2.3 1.11c.76.35 1.44.84 2.15 1.25.71.41 1.4.84 2.07 1.28l1.91 1.43a43.891 43.891 0 0 1 11.18 12.59 41.921 41.921 0 0 1 4.82 11.78c.227.796.41 1.604.55 2.42.12.77.22 1.49.32 2.15.1.66.2 1.29.25 1.85.05.56.05 1.09.07 1.55 0 .91.06 1.61.08 2.09.02.48.07.74.07.74Zm110.945 1.03s0-.24-.06-.71-.08-1.19-.13-2.09c0-.46-.06-1-.09-1.54s-.18-1.18-.28-1.84c-.1-.66-.22-1.38-.34-2.15-.12-.77-.38-1.55-.57-2.4a42.181 42.181 0 0 0-4.88-11.68 43.799 43.799 0 0 0-11.15-12.44l-1.9-1.42c-.66-.43-1.36-.83-2.06-1.26-.7-.43-1.38-.89-2.13-1.24l-2.27-1.09-1.16-.55-1.21-.44-2.47-.9c-.84-.27-1.71-.45-2.58-.69-.871-.25-1.756-.45-2.65-.6a40.133 40.133 0 0 0-5.54-.64c-.95 0-1.9-.12-2.86-.11l-2.9.15c-.48 0-1 0-1.46.09l-1.46.23c-1 .16-2 .28-2.95.48a48.078 48.078 0 0 0-11.55 4.22c-.92.5-1.81 1.09-2.72 1.63-.45.29-.93.53-1.36.85l-1.28 1a49.215 49.215 0 0 0-5 4.22l-2.23 2.45-.56.62-.5.66-1 1.34-1 1.35-.88 1.44-.88 1.45-.44.73-.37.76-1.49 3.09-1.18 3.26a43.345 43.345 0 0 0 0 27.63l1.19 3.24 1.48 3.09.38.76.44.73.88 1.45.88 1.44 1 1.35 1 1.34.5.67.56.61 2.23 2.46a49.106 49.106 0 0 0 5 4.22l1.29 1c.43.33.91.57 1.36.86.91.54 1.8 1.13 2.72 1.63a45.655 45.655 0 0 0 5.72 2.51 47.269 47.269 0 0 0 5.84 1.71c1 .2 2 .32 2.94.48l1.46.22c.49.07 1 .06 1.47.1l2.9.15c1 0 1.91-.08 2.85-.11 1.859-.09 3.71-.303 5.54-.64a25.567 25.567 0 0 0 2.65-.6c.87-.24 1.75-.42 2.58-.7l2.47-.89 1.22-.45 1.15-.55 2.28-1.09c.76-.34 1.43-.83 2.14-1.23.71-.4 1.39-.83 2.06-1.27l1.89-1.41a43.643 43.643 0 0 0 11.15-12.44 42.328 42.328 0 0 0 4.88-11.69c.19-.85.48-1.63.57-2.4.09-.77.23-1.48.34-2.14.11-.66.22-1.28.28-1.84.06-.56.06-1.08.09-1.54.05-.91.1-1.6.13-2.09.03-.49.06-.71.06-.71v.71c0 .47 0 1.19-.08 2.1 0 .46 0 1-.06 1.54s-.17 1.18-.26 1.85c-.09.67-.2 1.39-.31 2.16-.11.77-.37 1.56-.56 2.41a41.356 41.356 0 0 1-4.82 11.79 43.805 43.805 0 0 1-11.17 12.58l-1.91 1.43c-.67.45-1.38.85-2.07 1.29-.69.44-1.39.9-2.16 1.25l-2.33 1.03-1.17.56-1.22.45-2.49.91c-.84.28-1.73.47-2.6.71-.881.254-1.776.458-2.68.61a39.487 39.487 0 0 1-5.59.66c-1 0-1.92.13-2.89.12l-2.93-.15c-.49 0-1 0-1.48-.09l-1.47-.22c-1-.16-2-.28-3-.48a47.222 47.222 0 0 1-5.91-1.72 46.58 46.58 0 0 1-5.78-2.53c-.93-.51-1.83-1.1-2.76-1.65-.45-.28-.93-.53-1.37-.86l-1.3-1a50.476 50.476 0 0 1-5-4.27l-2.25-2.48-.57-.62-.51-.67-1-1.36-1-1.36-.9-1.46-.89-1.46-.45-.74-.37-.77c-.5-1-1-2.08-1.51-3.13l-1.2-3.28a43.792 43.792 0 0 1 0-27.95l1.2-3.28 1.51-3.12.38-.78.44-.73.9-1.47.89-1.46 1-1.36 1-1.35.51-.68.57-.62c.75-.83 1.51-1.65 2.25-2.48a50.377 50.377 0 0 1 5-4.26l1.3-1c.44-.33.92-.58 1.37-.87.93-.55 1.83-1.13 2.76-1.64a45.216 45.216 0 0 1 5.78-2.53 47.222 47.222 0 0 1 5.91-1.72c1-.2 2-.32 3-.48l1.47-.22c.49-.07 1-.06 1.48-.1l2.93-.14c1 0 1.93.08 2.88.12a39.48 39.48 0 0 1 5.6.66c.902.147 1.794.35 2.67.61.88.24 1.76.42 2.61.71l2.48.91 1.24.51 1.17.56 2.29 1.11c.76.35 1.44.84 2.15 1.25.71.41 1.41.84 2.08 1.28l1.9 1.43a43.891 43.891 0 0 1 11.18 12.59 41.33 41.33 0 0 1 4.81 11.78c.19.86.47 1.65.56 2.42.09.77.21 1.49.31 2.16.1.67.21 1.28.26 1.84.05.56 0 1.09.06 1.55 0 .91.06 1.61.08 2.1.02.49.01.7.01.7ZM168.05 314.85c-.09-.1.66-.94 1.69-1.86 1.03-.92 1.93-1.59 2-1.48.07.11-.66.94-1.69 1.86-1.03.92-1.9 1.63-2 1.48Zm-7.43 6.69c-.1-.11.65-.94 1.68-1.87 1.03-.93 1.94-1.58 2-1.47.06.11-.65.94-1.68 1.86-1.03.92-1.91 1.59-2 1.48Zm-7.44 6.69c-.1-.11.66-1 1.69-1.87a6.322 6.322 0 0 1 2-1.48c.09.11-.66.94-1.69 1.87a6.322 6.322 0 0 1-2 1.48Zm-7.43 6.68c-.1-.1.65-.94 1.68-1.86 1.03-.92 1.94-1.59 2-1.48.06.11-.65.94-1.68 1.87-1.03.93-1.91 1.56-2 1.47Zm-7.44 6.69c-.1-.11.66-.94 1.69-1.86 1.03-.92 1.93-1.59 2-1.48.07.11-.66.94-1.69 1.86-1.03.92-1.9 1.59-2 1.48Z"
        fill="#FFC34A" />
    <path
        d="M153.835 387.442c5.603-23.662-9.038-47.387-32.701-52.989-23.663-5.603-47.388 9.038-52.99 32.701-5.602 23.663 9.039 47.388 32.702 52.99 23.662 5.602 47.387-9.039 52.989-32.702Z"
        fill="#fff" />
    <path
        d="M155.27 377.23s0-.24-.06-.71-.07-1.18-.13-2.09c0-.46-.06-1-.09-1.54s-.18-1.18-.28-1.84c-.1-.66-.22-1.38-.34-2.14a22.436 22.436 0 0 0-.57-2.4 42.097 42.097 0 0 0-4.88-11.69 43.799 43.799 0 0 0-11.15-12.44l-1.9-1.44c-.67-.44-1.37-.84-2.07-1.27-.7-.43-1.37-.89-2.13-1.23l-2.28-1.09-1.16-.55-1.21-.45-2.47-.89c-.84-.28-1.71-.46-2.58-.7a26.095 26.095 0 0 0-2.65-.6 41.732 41.732 0 0 0-5.54-.64c-.94 0-1.9-.12-2.86-.11l-2.89.15c-.49 0-1 0-1.47.1l-1.46.22c-1 .16-2 .28-2.94.48a47.272 47.272 0 0 0-5.84 1.71 45.02 45.02 0 0 0-5.71 2.51c-.93.5-1.82 1.09-2.73 1.63-.45.29-.93.53-1.35.86l-1.29 1a49.237 49.237 0 0 0-5 4.22l-2.22 2.45-.56.62-.51.67-1 1.34-1 1.34-.88 1.44-.88 1.45-.44.73-.37.77c-.5 1-1 2.05-1.49 3.08-.49 1.03-.79 2.16-1.19 3.25a43.32 43.32 0 0 0 0 27.62c.4 1.08.79 2.17 1.19 3.24.4 1.07 1 2.07 1.48 3.09l.38.77.44.72.88 1.45.88 1.45 1 1.34 1 1.34.5.67.56.62 2.23 2.45a49.237 49.237 0 0 0 5 4.22l1.28 1c.43.32.91.56 1.36.85.91.54 1.8 1.13 2.72 1.63a45.7 45.7 0 0 0 5.72 2.51 44.082 44.082 0 0 0 5.84 1.71c1 .21 2 .32 2.94.48l1.46.23c.49.06 1 .06 1.47.09l2.9.15c1 0 1.91-.08 2.85-.11a40.133 40.133 0 0 0 5.54-.64 20.894 20.894 0 0 0 2.65-.6c.87-.24 1.75-.42 2.58-.69l2.47-.9 1.22-.44 1.15-.55 2.28-1.1c.76-.34 1.43-.83 2.14-1.23.71-.4 1.39-.83 2.06-1.27l1.89-1.41a43.692 43.692 0 0 0 11.16-12.44 42.44 42.44 0 0 0 4.88-11.74c.233-.789.423-1.59.57-2.4.12-.77.24-1.48.34-2.15.1-.67.22-1.27.28-1.84.06-.57.06-1.08.09-1.54.06-.9.1-1.6.13-2.09.03-.49.06-.71.06-.71v.72c0 .48 0 1.18-.08 2.09 0 .46 0 1-.06 1.55s-.16 1.18-.26 1.84c-.1.66-.2 1.39-.31 2.16a23.57 23.57 0 0 1-.56 2.42 41.667 41.667 0 0 1-4.81 11.78 44.01 44.01 0 0 1-11.18 12.58l-1.91 1.44c-.67.44-1.38.84-2.07 1.28-.69.44-1.39.9-2.16 1.25l-2.29 1.11-1.17.56-1.22.45-2.49.91c-.84.29-1.73.47-2.6.71-.88.259-1.775.462-2.68.61a39.487 39.487 0 0 1-5.59.66c-1 0-1.92.13-2.89.12l-2.93-.14c-.49 0-1 0-1.47-.1l-1.48-.22c-1-.16-2-.27-3-.48a45.613 45.613 0 0 1-5.91-1.72 46.463 46.463 0 0 1-5.78-2.53c-.93-.5-1.83-1.09-2.76-1.64-.45-.29-.93-.54-1.37-.87l-1.3-1a49.201 49.201 0 0 1-5-4.27l-2.25-2.47-.57-.63-.51-.67-1-1.36-1-1.36-.9-1.45-.89-1.47-.44-.74-.38-.77-1.51-3.13-1.2-3.28a43.79 43.79 0 0 1 0-27.95l1.2-3.28c.51-1 1-2.08 1.51-3.12l.38-.78.45-.73.89-1.47.89-1.45 1-1.37 1-1.35.51-.67.57-.63 2.23-2.41a50.545 50.545 0 0 1 5-4.27l1.31-1c.43-.33.91-.58 1.37-.87.92-.54 1.82-1.13 2.75-1.64a48.09 48.09 0 0 1 5.78-2.53 47.255 47.255 0 0 1 5.94-1.69c1-.2 2-.32 3-.48l1.47-.22c.5-.06 1-.06 1.48-.09l2.93-.15c1 0 1.93.08 2.89.12 1.876.087 3.745.307 5.59.66.901.151 1.792.355 2.67.61.88.24 1.76.43 2.61.71l2.49.91 1.22.45 1.17.56 2.29 1.11c.77.35 1.44.84 2.15 1.25.71.41 1.41.84 2.08 1.29l1.9 1.43a43.855 43.855 0 0 1 11.18 12.58 41.356 41.356 0 0 1 4.82 11.79c.23.793.417 1.597.56 2.41.11.77.22 1.49.31 2.16.09.67.21 1.28.26 1.85.05.57 0 1.08.06 1.54 0 .91.07 1.61.08 2.1.01.49-.01.7-.01.7Z"
        fill="#FFC34A" />
    <path
        d="M110.047 264.364c5.83-23.609-8.583-47.472-32.191-53.302-23.608-5.829-47.472 8.584-53.301 32.192-5.83 23.608 8.583 47.472 32.191 53.301 23.608 5.829 47.472-8.583 53.301-32.191Z"
        fill="#fff" />
    <path
        d="M111.32 254.28s0-.25-.06-.72-.07-1.18-.13-2.09c0-.46-.06-1-.09-1.54s-.18-1.17-.28-1.84c-.1-.67-.22-1.38-.34-2.14-.12-.76-.38-1.55-.57-2.4a42.166 42.166 0 0 0-4.9-11.7A43.805 43.805 0 0 0 93.8 219.4l-1.85-1.41c-.67-.43-1.37-.83-2.07-1.26-.7-.43-1.37-.89-2.13-1.24l-2.28-1.09-1.16-.55-1.21-.44-2.47-.9c-.84-.28-1.71-.46-2.58-.69a21.637 21.637 0 0 0-2.65-.6 40.12 40.12 0 0 0-5.54-.64c-.94 0-1.9-.13-2.86-.11l-2.89.15c-.49 0-1 0-1.47.09l-1.46.23c-1 .16-2 .27-2.94.47a45.808 45.808 0 0 0-5.84 1.72 45.02 45.02 0 0 0-5.71 2.51c-.93.5-1.82 1.08-2.73 1.63-.45.28-.93.53-1.35.85l-1.29 1a49.237 49.237 0 0 0-5 4.22l-2.22 2.45-.56.61-.51.67-1 1.34-1 1.35-.88 1.44-.88 1.45-.44.72-.37.77-1.51 3.06-1.19 3.24a43.32 43.32 0 0 0 0 27.62c.4 1.09.79 2.17 1.19 3.25.4 1.08 1 2.06 1.48 3.08l.38.77.44.73.88 1.45.88 1.44 1 1.35 1 1.34.5.66.56.62 2.23 2.45a49.237 49.237 0 0 0 5 4.22l1.28 1c.43.32.91.57 1.36.85.91.55 1.8 1.13 2.72 1.63a48.55 48.55 0 0 0 11.56 4.23c1 .2 2 .31 2.94.48l1.46.22c.49.06 1 .06 1.47.09l2.9.15c1 0 1.91-.07 2.85-.11 1.86-.085 3.71-.298 5.54-.64.895-.142 1.78-.342 2.65-.6.87-.23 1.75-.41 2.58-.69l2.47-.9 1.22-.44 1.15-.55 2.28-1.09c.76-.35 1.43-.84 2.14-1.24.71-.4 1.39-.82 2.06-1.26l1.89-1.41a43.7 43.7 0 0 0 11.13-12.48 42.42 42.42 0 0 0 4.87-11.68c.233-.789.423-1.59.57-2.4.12-.76.24-1.48.34-2.14.1-.66.22-1.28.28-1.84.06-.56.06-1.08.09-1.54.06-.91.1-1.6.13-2.09.03-.49.06-.71.06-.71v.71c0 .47 0 1.19-.08 2.09 0 .47 0 1-.06 1.55s-.16 1.18-.26 1.85c-.1.67-.2 1.38-.31 2.15-.143.816-.33 1.624-.56 2.42a41.567 41.567 0 0 1-4.81 11.78 44.015 44.015 0 0 1-11.16 12.59l-1.91 1.43c-.67.44-1.38.85-2.07 1.28-.69.43-1.39.91-2.16 1.26l-2.29 1.11-1.17.55-1.22.45-2.49.92c-.84.28-1.73.46-2.6.7a22.19 22.19 0 0 1-2.68.62 42.679 42.679 0 0 1-5.59.66c-1 0-1.92.13-2.89.12l-2.93-.15c-.49 0-1 0-1.47-.09l-1.48-.23c-1-.16-2-.27-3-.47a47.26 47.26 0 0 1-11.67-4.28c-.93-.5-1.83-1.09-2.76-1.64-.45-.29-.93-.53-1.37-.86l-1.3-1a49.126 49.126 0 0 1-5-4.26l-2.25-2.48-.57-.62-.51-.67-1-1.36-1-1.36-.9-1.46-.89-1.47-.44-.73-.38-.78c-.5-1-1-2.08-1.51-3.12l-1.26-3.19a43.79 43.79 0 0 1 0-27.95l1.2-3.28 1.51-3.13.38-.77.45-.74.89-1.46.89-1.46 1-1.36 1-1.36.51-.67.57-.62 2.26-2.53a49.126 49.126 0 0 1 5-4.26l1.31-1c.43-.32.91-.57 1.37-.86.92-.55 1.82-1.14 2.75-1.64a46.612 46.612 0 0 1 5.78-2.53 45.634 45.634 0 0 1 5.91-1.72c1-.21 2-.32 3-.48l1.47-.23c.5-.06 1-.06 1.48-.09l2.93-.14c1 0 1.93.08 2.89.11 1.876.097 3.743.317 5.59.66.902.15 1.794.357 2.67.62.88.24 1.76.42 2.61.7l2.49.92 1.22.45 1.17.55 2.36 1.13c.77.35 1.44.85 2.15 1.26.71.41 1.41.84 2.08 1.28l1.9 1.43a43.885 43.885 0 0 1 11.18 12.59 41.342 41.342 0 0 1 4.82 11.78c.19.86.47 1.64.56 2.42.09.78.22 1.48.31 2.15.09.67.21 1.28.26 1.85.05.57 0 1.08.06 1.55 0 .91.06 1.6.08 2.09.02.49-.03.74-.03.74Z"
        fill="#FFC34A" />
    <g clip-path="url(#a)" fill="#B5B5BE">
        <path fill-rule="evenodd" clip-rule="evenodd"
            d="M111.75 366.698c-2.334 0-5.522.2-7.512.348a1.323 1.323 0 0 0-1.225 1.216c-.153 1.886-.363 4.825-.363 6.984s.206 5.1.36 6.984a1.321 1.321 0 0 0 1.224 1.213c1.99.146 5.178.348 7.512.348 2.334 0 5.522-.2 7.512-.348a1.32 1.32 0 0 0 1.224-1.213c.153-1.885.36-4.825.36-6.984s-.206-5.1-.36-6.984a1.321 1.321 0 0 0-1.224-1.213c-1.987-.145-5.175-.351-7.508-.351Zm-7.633-1.3c1.991-.143 5.233-.35 7.633-.35 2.4 0 5.642.207 7.633.352a2.97 2.97 0 0 1 2.75 2.728c.154 1.887.365 4.885.365 7.118 0 2.233-.211 5.231-.365 7.118a2.979 2.979 0 0 1-.87 1.874 2.98 2.98 0 0 1-1.882.854c-1.991.146-5.233.352-7.633.352-2.4 0-5.642-.207-7.633-.352a2.975 2.975 0 0 1-2.752-2.728c-.154-1.887-.365-4.885-.365-7.118 0-2.233.211-5.231.365-7.118a2.97 2.97 0 0 1 2.754-2.73Z" />
        <path fill-rule="evenodd" clip-rule="evenodd"
            d="M111.75 366.654c-2.334 0-5.522.2-7.512.348a1.32 1.32 0 0 0-1.225 1.213c-.153 1.885-.363 8.731-.363 10.89 0 2.159.206 5.8.36 7.68a1.321 1.321 0 0 0 1.227 1.209c1.99.146 5.178.348 7.512.348 2.334 0 5.522-.2 7.512-.348a1.322 1.322 0 0 0 1.224-1.213c.153-1.885.36-5.521.36-7.68s-.206-9.005-.36-10.891a1.321 1.321 0 0 0-1.224-1.213c-1.99-.141-5.178-.343-7.511-.343Zm-7.633-1.302c1.991-.145 5.233-.352 7.633-.352 2.4 0 5.642.207 7.633.352a2.975 2.975 0 0 1 2.752 2.728c.154 1.887.365 8.792.365 11.025 0 2.233-.211 5.928-.365 7.815a2.975 2.975 0 0 1-2.752 2.728c-1.991.146-5.233.352-7.633.352-2.4 0-5.642-.207-7.633-.352a2.98 2.98 0 0 1-1.882-.854 2.979 2.979 0 0 1-.87-1.874c-.154-1.887-.365-5.582-.365-7.815 0-2.233.211-9.138.365-11.025a2.979 2.979 0 0 1 .87-1.874 2.98 2.98 0 0 1 1.882-.854Z" />
        <path
            d="M112.081 380.001h-2.623a.828.828 0 0 1 0-1.654h2.623a1.137 1.137 0 1 0 0-2.274h-.655a2.793 2.793 0 0 1-2.008-4.783 2.803 2.803 0 0 1 2.008-.798h2.618a.828.828 0 0 1 0 1.654h-2.622a1.137 1.137 0 1 0 0 2.274h.659a2.793 2.793 0 0 1 2.008 4.783 2.803 2.803 0 0 1-2.008.798Z" />
        <path
            d="M111.422 381.31a.828.828 0 0 1-.827-.827v-1.309a.828.828 0 0 1 1.654 0v1.309a.828.828 0 0 1-.827.827Zm.655-9.164a.828.828 0 0 1-.827-.827v-1.309a.828.828 0 0 1 1.654 0v1.309a.828.828 0 0 1-.827.827Z" />
    </g>
    <g clip-path="url(#b)" fill-rule="evenodd" clip-rule="evenodd" fill="#B5B5BE">
        <path
            d="M243.955 143.628a.99.99 0 0 0 .273.681.924.924 0 0 0 .656.281h7.432c.245 0 .48-.102.653-.282a.982.982 0 0 0 .27-.68.984.984 0 0 0-.27-.68.906.906 0 0 0-.653-.281h-7.432a.887.887 0 0 0-.355.072.94.94 0 0 0-.502.52.99.99 0 0 0-.072.369Zm0-5.128a.99.99 0 0 0 .273.681.94.94 0 0 0 .301.208.887.887 0 0 0 .355.072h3.716c.245 0 .48-.101.653-.281a.982.982 0 0 0 .27-.68c0-.255-.097-.5-.27-.68a.906.906 0 0 0-.653-.281h-3.716a.887.887 0 0 0-.355.072.94.94 0 0 0-.502.52.99.99 0 0 0-.072.369Z" />
        <path
            d="M244.962 127.083c.189-.328.456-.6.776-.789.319-.19.68-.291 1.047-.294h3.629c.368.003.728.104 1.048.293.319.19.587.462.776.79l.68 1.152c.671.055 1.308.113 1.864.168a3.262 3.262 0 0 1 2.058 1.012c.55.579.886 1.342.948 2.155.171 2.247.412 5.903.412 8.611 0 2.556-.215 5.46-.383 7.34a3.503 3.503 0 0 1-.957 2.108 3.251 3.251 0 0 1-2.029.987c-1.724.169-4.287.384-6.231.384s-4.507-.216-6.231-.384a3.251 3.251 0 0 1-2.029-.987 3.503 3.503 0 0 1-.957-2.108c-.168-1.881-.383-4.784-.383-7.341 0-2.708.242-6.364.412-8.611a3.522 3.522 0 0 1 .948-2.156 3.266 3.266 0 0 1 2.058-1.011c.556-.054 1.192-.112 1.864-.168l.68-1.151Zm-1.133 3.12c-.439.039-.856.077-1.236.115a1.435 1.435 0 0 0-.91.448 1.554 1.554 0 0 0-.418.954c-.171 2.246-.407 5.833-.407 8.46 0 2.467.209 5.299.375 7.163.032.35.181.677.421.924.239.247.555.4.891.43 1.72.169 4.207.376 6.055.376 1.848 0 4.335-.208 6.055-.376.336-.03.652-.183.891-.43.24-.247.389-.574.421-.924.166-1.864.375-4.696.375-7.163 0-2.626-.236-6.214-.407-8.46a1.56 1.56 0 0 0-.418-.955 1.436 1.436 0 0 0-.911-.447c-.379-.038-.8-.076-1.236-.115-.048.27-.138.529-.268.768a2.183 2.183 0 0 1-.781.839c-.327.203-.7.31-1.081.312h-5.28a2.067 2.067 0 0 1-1.08-.313 2.18 2.18 0 0 1-.78-.839 2.524 2.524 0 0 1-.271-.767Zm2.956-2.28a.283.283 0 0 0-.237.16l-.826 1.4a.54.54 0 0 0-.007.539c.021.05.055.093.098.124a.274.274 0 0 0 .147.051h5.28a.274.274 0 0 0 .147-.051.292.292 0 0 0 .098-.124.553.553 0 0 0-.007-.539l-.826-1.4a.283.283 0 0 0-.238-.162l-3.629.002Z" />
    </g>
    <g clip-path="url(#c)" fill="#B5B5BE">
        <path
            d="M63.654 257.347a1.283 1.283 0 1 1-2.565-.001 1.283 1.283 0 0 1 2.565.001Zm0-5.129a1.283 1.283 0 1 1-2.565-.001 1.283 1.283 0 0 1 2.565.001Zm5.128 5.129a1.283 1.283 0 1 1-2.565-.001 1.283 1.283 0 0 1 2.565.001Zm0-5.129a1.283 1.283 0 1 1-2.565-.001 1.283 1.283 0 0 1 2.565.001Zm5.128 0a1.283 1.283 0 1 1-2.565-.001 1.283 1.283 0 0 1 2.565.001Z" />
        <path fill-rule="evenodd" clip-rule="evenodd"
            d="M67.5 244.209c-2.714 0-6.42.236-8.736.405a1.53 1.53 0 0 0-1.42 1.406c-.178 2.187-.417 5.61-.417 8.125 0 2.514.24 5.928.417 8.125a1.534 1.534 0 0 0 1.424 1.41c2.313.17 6.022.404 8.735.404 2.714 0 6.42-.235 8.736-.404a1.535 1.535 0 0 0 1.417-1.418c.178-2.187.417-5.61.417-8.125 0-2.514-.24-5.928-.417-8.125a1.535 1.535 0 0 0-1.424-1.41c-2.311-.161-6.019-.393-8.732-.393Zm-8.876-1.517c2.314-.17 6.084-.41 8.876-.41s6.562.241 8.876.41a3.457 3.457 0 0 1 3.2 3.172c.18 2.193.425 5.681.425 8.277 0 2.595-.246 6.083-.425 8.277a3.458 3.458 0 0 1-3.2 3.172c-2.316.169-6.084.409-8.876.409s-6.563-.241-8.876-.409a3.458 3.458 0 0 1-3.2-3.172c-.178-2.194-.425-5.682-.425-8.277 0-2.596.246-6.084.425-8.277a3.458 3.458 0 0 1 3.2-3.172Z" />
        <path fill-rule="evenodd" clip-rule="evenodd"
            d="M63.654 241a.967.967 0 0 1 .68.282.956.956 0 0 1 .282.679v3.206a.963.963 0 0 1-1.642.68.963.963 0 0 1-.281-.68v-3.206a.956.956 0 0 1 .281-.679.959.959 0 0 1 .68-.282Zm7.692 0a.968.968 0 0 1 .68.282.954.954 0 0 1 .281.679v3.206a.963.963 0 0 1-1.641.68.963.963 0 0 1-.282-.68v-3.206a.956.956 0 0 1 .282-.679.959.959 0 0 1 .68-.282Z" />
    </g>
    <g clip-path="url(#d)" fill-rule="evenodd" clip-rule="evenodd" fill="#B5B5BE">
        <path
            d="M137.5 128.893a2.954 2.954 0 0 0-1.618.47c-.48.31-.855.752-1.078 1.271a2.785 2.785 0 0 0-.172 1.642 2.81 2.81 0 0 0 .79 1.459 2.92 2.92 0 0 0 1.486.782 2.968 2.968 0 0 0 1.68-.158 2.902 2.902 0 0 0 1.306-1.046c.32-.467.49-1.017.49-1.58a2.77 2.77 0 0 0-.216-1.084 2.838 2.838 0 0 0-.625-.92 2.9 2.9 0 0 0-.936-.617 2.976 2.976 0 0 0-1.107-.219Zm-4.807 2.84a4.633 4.633 0 0 1 .825-2.605 4.783 4.783 0 0 1 2.164-1.719 4.903 4.903 0 0 1 2.776-.256 4.837 4.837 0 0 1 2.454 1.295 4.673 4.673 0 0 1 1.307 2.409 4.606 4.606 0 0 1-.279 2.713 4.72 4.72 0 0 1-1.772 2.106 4.88 4.88 0 0 1-6.074-.602c-.446-.44-.8-.961-1.04-1.534a4.62 4.62 0 0 1-.361-1.807Zm2.91 8.52a3.636 3.636 0 0 0-1.363.27 3.574 3.574 0 0 0-1.153.759c-.33.325-.591.71-.769 1.134a3.404 3.404 0 0 0-.267 1.335c0 .03.002.06.007.09v.009c.514.28 1.967.821 5.44.821 3.473 0 4.926-.542 5.439-.821v-.009a.456.456 0 0 0 .008-.09 3.449 3.449 0 0 0-1.034-2.467 3.605 3.605 0 0 0-2.514-1.031h-3.794Zm-5.477 3.498a5.277 5.277 0 0 1 .411-2.058 5.377 5.377 0 0 1 1.185-1.747 5.519 5.519 0 0 1 1.778-1.17 5.601 5.601 0 0 1 2.101-.416h3.796a5.592 5.592 0 0 1 2.1.416c.666.272 1.27.67 1.779 1.17a5.377 5.377 0 0 1 1.185 1.747c.273.653.413 1.352.411 2.058a1.89 1.89 0 0 1-.222.971 1.926 1.926 0 0 1-.688.732c-.882.51-2.708 1.11-6.458 1.11s-5.58-.599-6.458-1.11a1.933 1.933 0 0 1-.694-.731 1.895 1.895 0 0 1-.226-.972Zm13.178-14.789a.934.934 0 0 1 .448-.573.978.978 0 0 1 .731-.094 4.224 4.224 0 0 1 2.176 1.55c.533.735.806 1.62.778 2.52a3.959 3.959 0 0 1-.919 2.675 4.125 4.125 0 0 1-2.492 1.421.988.988 0 0 1-.713-.196.933.933 0 0 1-.162-1.33.977.977 0 0 1 .646-.355c.51-.107.963-.389 1.279-.796.315-.406.471-.91.438-1.419a2.211 2.211 0 0 0-.385-1.37 2.301 2.301 0 0 0-1.148-.872.963.963 0 0 1-.584-.444.933.933 0 0 1-.093-.717Zm2.226 10.163a.953.953 0 0 1 .141-.341.972.972 0 0 1 .987-.407 4.175 4.175 0 0 1 2.403 1.411c.609.729.941 1.642.939 2.583v.509a1.87 1.87 0 0 1-.199.932 1.925 1.925 0 0 1-.634.722 6.108 6.108 0 0 1-2.071.747.98.98 0 0 1-.713-.151.935.935 0 0 1-.266-1.296.965.965 0 0 1 .598-.408c.473-.079.93-.232 1.354-.453a.562.562 0 0 0 .007-.092v-.509a2.14 2.14 0 0 0-.5-1.384 2.23 2.23 0 0 0-1.286-.756.97.97 0 0 1-.613-.4.933.933 0 0 1-.147-.707Zm-13.833-3.354a.942.942 0 0 1-.448.573.978.978 0 0 1-.731.093 4.216 4.216 0 0 1-2.176-1.551 4.063 4.063 0 0 1-.778-2.521 3.955 3.955 0 0 1 .919-2.674 4.125 4.125 0 0 1 2.492-1.421.993.993 0 0 1 .713.196.95.95 0 0 1 .362.632.916.916 0 0 1-.2.697.988.988 0 0 1-.646.355c-.509.108-.962.39-1.277.797-.314.406-.47.909-.437 1.418a2.22 2.22 0 0 0 .385 1.371 2.3 2.3 0 0 0 1.148.871.967.967 0 0 1 .583.446.93.93 0 0 1 .091.718Zm-2.227 3.354a.953.953 0 0 0-.405-.603.989.989 0 0 0-.723-.145 4.168 4.168 0 0 0-2.403 1.412 4.005 4.005 0 0 0-.939 2.583v.509c-.015.323.054.643.199.932.146.289.364.538.634.722.638.372 1.34.625 2.071.747a.98.98 0 0 0 .713-.151.944.944 0 0 0 .403-.595.926.926 0 0 0-.137-.701.963.963 0 0 0-.598-.408 4.552 4.552 0 0 1-1.354-.453.562.562 0 0 1-.007-.092v-.509a2.147 2.147 0 0 1 .501-1.384c.325-.39.78-.658 1.285-.756a.964.964 0 0 0 .613-.401.928.928 0 0 0 .147-.707Z" />
    </g>
    <defs>
        <clipPath id="a">
            <path fill="#fff" d="M101 365h21.499v25H101z" />
        </clipPath>
        <clipPath id="b">
            <path fill="#fff" d="M239 126h19.2v25H239z" />
        </clipPath>
        <clipPath id="c">
            <path fill="#fff" d="M55 241h25v25H55z" />
        </clipPath>
        <clipPath id="d">
            <path fill="#fff" d="M125 127h25v19.565h-25z" />
        </clipPath>
    </defs>
</svg>