<svg width="885" height="450" viewBox="0 0 885 450" fill="none" xmlns="http://www.w3.org/2000/svg">
  <path
    d="M32.912 448.378c-58.32-105.691 56.167-109.517 27.831-215.241C2.255 14.687 323.1-71.423 415.645 70.547 483.523 174.683 563.28 190.18 590.942 172.511c64.95-41.531 153.457-48.534 229.377 53.785 85.546 115.321-17.432 221.855-17.432 221.855l-769.975.227Z"
    fill="#FBECDB" />
  <path fill-rule="evenodd" clip-rule="evenodd"
    d="M604.572 34.074v414.012h-31.533v-.162H341.003V34.074h161.231L502.2 11.12l-.101-.064-.034-10.861h.101L514.18.13 554.194 0l.1 34.074h50.278ZM567.789 246.43H346.287v39.65l18.374-.065 61.787-.194.134 53.04h57.782v-.032h-18.543l-.101-68.927-.134-.064-.034-16.794h.135l18.509-.065v-.033l61.786-.162.169 86.077h21.638V246.43Zm0 103.746H346.287v92.464h141.88l-.101-35.306-.135-.098-.033-16.793h.134l18.543-.065v-.033l61.214-.162v-40.007Zm-172.066-11.315h.235l-.235-.032v.032Zm-49.436 0v-.746.746Zm221.502-196.21H346.287v92.464h78.041l-.068-35.922-.134-.097-.034-16.762h.101l18.543-.065v-.032l61.786-.195.168 53.073h63.099v-92.464Zm0-103.746H346.287v92.431h221.502V38.905Z"
    fill="#EAD6C3" />
  <path d="m403.867 447.924-96.146-.291.269-82.122 96.146.292-.269 82.121Z" fill="#D3671E" />
  <path d="m432.774 448.086-76.963-.291.201-82.154 76.964.291-.202 82.154Z" fill="#F1A34F" />
  <path opacity=".4" d="m355.811 365.641 77.132.291-.068 26.099-77.3 55.731.236-82.121Z" fill="#D86713" />
  <path d="m310.918 447.924-61.787-.194.169-52.781 61.786.194-.168 52.781Z" fill="#D3671E" />
  <path d="m329.46 448.022-49.435-.195.134-52.781 49.436.195-.135 52.781Z" fill="#F1A34F" />
  <path opacity=".4" d="m280.159 395.046 49.571.195-.034 16.794-49.671 35.792.134-52.781Z" fill="#D86713" />
  <path
    d="M509.065 422.474a24.7 24.7 0 0 1-.134 2.594 29.304 29.304 0 0 1-1.75 7.781 16.93 16.93 0 0 1-.539 1.361c-.157.325-.303.649-.437.973-.18.346-.37.702-.572 1.07a27.22 27.22 0 0 1-.64 1.102c-1.11 1.816-2.389 3.469-3.836 4.863v.033c-.516.497-1.055.962-1.616 1.394-.426.346-.863.67-1.312.972a17.22 17.22 0 0 1-1.986 1.2 8.76 8.76 0 0 1-.774.389c-2.187 1.038-4.543 1.686-6.999 1.848-.382.022-.752.032-1.111.032h-10.096c-12.014 0-21.706-11.476-21.706-25.612 0-14.168 9.692-25.612 21.706-25.612h10.096c.359 0 .729.011 1.111.032 2.456.13 4.812.778 6.999 1.816.247.108.505.237.774.389.674.367 1.335.767 1.986 1.199.449.303.886.627 1.312.973.561.432 1.1.908 1.616 1.426a25.395 25.395 0 0 1 3.836 4.864c.225.367.438.745.64 1.134.202.346.392.692.572 1.038.134.324.28.648.437.972.202.454.382.908.539 1.362a29.304 29.304 0 0 1 1.75 7.781c.089.865.134 1.74.134 2.626Z"
    fill="#233862" />
  <path fill-rule="evenodd" clip-rule="evenodd"
    d="m296.346 182.691-1.649 1.848a.552.552 0 0 1-.437.194h-13.495c-.539 0-.808-.583-.471-.972l1.649-1.816a.55.55 0 0 1 .437-.195h4.981c-.034-.389 0-.778.168-1.167.438-1.037 1.514-1.588 2.423-1.232.841.357 1.212 1.394.841 2.399h5.116c.504 0 .774.584.437.941Zm-6.932-2.075c-.303-.13-.64.065-.808.389-.135.356 0 .713.303.843.269.097.639-.065.774-.422.135-.324.034-.713-.269-.81Z"
    fill="#FFA412" />
  <path
    d="m226.315 67.338-35.1 27.395s-1.043-5.933-4.644-5.025c-5.654 1.427-10.096-12.644-3.433-25.84.707-1.393-.942-1.458-.168-2.625l16.389-12.385c14.067-7.23 26.956 18.48 26.956 18.48Z"
    fill="#2C3A64" />
  <path
    d="m211.575 436.804-7.437 2.659s-32.408-43.282-36.413-81.376c-.706-6.809-.471-13.39 1.077-19.485 0 0-.336-1.751-.875-4.831-.269-1.426-.572-3.145-.942-5.155-1.043-5.803-2.49-13.746-4.139-22.824-3.837-20.847-8.784-47.496-12.62-67.078l2.019-.649 21.773-6.743 4.476-13.747 16.187-4.117s3.635 6.808 6.865 39.034a222.186 222.186 0 0 1 1.548 13.941c1.246 15.4 1.346 34.528-1.548 56.412a295.178 295.178 0 0 1-2.827 17.313c-.874 4.344-1.009 10.277-.639 17.086 1.649 31.156 13.495 79.56 13.495 79.56Z"
    fill="#2B478B" />
  <path
    d="m203.094 266.433-35.167 67.338c-.269-1.426-.572-3.145-.942-5.155-1.043-5.803-2.49-13.746-4.139-22.824-3.837-20.847-8.784-47.496-12.62-67.078l2.019-.649 21.773-6.743 4.476-13.747 16.187-4.117s3.635 6.808 6.865 39.034a222.186 222.186 0 0 1 1.548 13.941Z"
    fill="#233862" />
  <path
    d="M178.225 257.777c-3.13 21.106-7.841 48.437-13.697 69.445-3.096 11.12-6.495 20.458-10.196 26.196-1.246 1.945-2.625 5.252-4.072 9.434-8.447 24.64-18.88 80.436-18.88 80.436l-4.745 1.848s-18.273-50.155-2.423-90.843c1.616-4.149 3.568-8.202 5.957-12.093.269-.453.471-.94.404-1.458-.236-1.719-.741-5.966-1.313-11.931-1.615-16.438-3.163-72.071-4.004-85.169-1.75-26.812 11.475-38.03 11.475-38.03s36.446 13.26 50.075 9.759l.808 6.743s-8.952 35.695-9.389 35.663Z"
    fill="#2B478B" />
  <path
    d="M295.067 213.523c-2.927 2.496-10.701-6.095-11.778-7.263-.067-.097-.135-.162-.135-.162l2.39-6.354s10.196-.389 11.913 1.264c1.682 1.621.841 9.824-2.39 12.515Z"
    fill="#ED985F" />
  <path
    d="m285.544 199.744-1.01 6.581s-.471 0-1.245-.065c-2.49-.162-8.548-.486-15.379-1.167-10.264-1.005-22.447-2.723-27.326-5.608-7.37-4.345-19.519-17.67-27.427-31.027-.236-.324-.404-.648-.573-.973-4.105-7.067-6.999-14.07-7.235-19.679-.168-3.437.236-6.354.976-8.916a21.925 21.925 0 0 1 4.173-8.04c.236-.357.471-.681.808-.94 2.692-3.113 5.35-4.409 5.35-4.409 1.347-.552 2.827.129 4.342 1.685v.065c1.245 1.232 2.591 3.145 3.903 5.544.068.065.101.097.101.162.303.487.572 1.038.909 1.621.101.13.168.292.236.389a94.372 94.372 0 0 1 1.85 3.923c6.967 14.557 14.336 36.668 20.495 43.249 2.659 2.821 14.807 8.365 24.466 12.482 6.932 2.951 12.586 5.123 12.586 5.123Z"
    fill="#ED985F" />
  <path
    d="M213.661 140.511c-4.274 1.913-9.422 3.21-15.682 3.567-23.456 1.232-28.773-18.577-29.749-31.708 3.365-1.199 6.327-1.07 8.043-1.005 1.649.097 3.399.259 4.846.422 2.861-1.427 8.009-8.43 10.971-20.166l1.01.454 16.927 7.651s-1.784 5.317-3.13 10.375c-1.009 3.987-1.75 7.813-1.144 8.883 1.346.519 2.12.843 2.12.843l.034.032c.168.422 3.836 9.435 5.754 20.652Z"
    fill="#FFB27D" />
  <path
    d="M219.551 155.328c-.169.453-.371.907-.606 1.361-5.923 12.32-16.928 63.35-16.928 63.35 1.582 9.208-71.579-1.783-71.781-10.147-2.557-8.851 9.154-23.084 15.75-30.216a21.32 21.32 0 0 0 2.221-2.886 19.473 19.473 0 0 0 2.995-8.429c1.312-11.834.807-22.954.908-29.698a388.582 388.582 0 0 0 3.702-2.593c1.784-1.232 3.366-2.399 4.51-3.599 1.279-1.297 2.086-2.594 2.187-4.085a19.556 19.556 0 0 0-.101-3.437c-.067-.562-.134-1.113-.202-1.653-.942-5.739-3.399-10.926-3.399-10.926 6.293-2.464 17.466-1.005 17.466-1.005s0 .616-.034 1.589c-.033 3.923 0 14.038 1.313 15.951 1.649 2.399 31.634 12.838 33.215 9.596 1.548-3.177-2.726-18.09-2.86-18.642l-.034-.032c10.062 3.826 13.629 7.003 13.629 7.003-6.023 3.761 2.726 16.567-1.951 28.498Z"
    fill="#739AF0" />
  <path d="M210.027 99.726s-1.784 5.317-3.13 10.375c-9.86-2.659-12.889-12.677-13.797-18.026l16.927 7.651Z"
    fill="#ED985F" />
  <path
    d="M212.113 105.335s-23.658-5.252-20.023-19.42c3.634-14.136 3.029-24.348 18.307-21.592 15.245 2.788 16.793 8.883 16.759 13.876 0 5.025-8.783 28.141-15.043 27.136Z"
    fill="#FFB27D" />
  <path
    d="M224.531 87.99c-2.288-.292-.908-7.846-1.178-11.704-.168-2.886-2.288-6.257-3.432-7.846-.909 1.556-9.726 16.275-22.918 18.707 0 0 6.663-3.372 12.317-8.883-2.928 1.977-6.158 3.404-9.389 3.436-10.533.065-14.168-3.534-14.168-3.534s3.164-7.1 7.336-16.858c0 0 16.861-4.993 28 4.928 1.85-.908 4.846-1.168 7.403 3.955 3.803 7.683-3.971 17.799-3.971 17.799Z"
    fill="#2C3A64" />
  <path d="M221.502 126.83s5.721 9.564 6.563 12.028c0 0-7.404-.26-10.365 5.22 0 0-.741-15.951 3.802-17.248Z"
    fill="#739AF0" />
  <path
    d="M182.331 202.889c-14.437-.13-26.653-14.557-34.124-26.099a19.473 19.473 0 0 0 2.995-8.429c1.312-11.834.807-22.954.908-29.698a388.582 388.582 0 0 0 3.702-2.593c1.784-1.232 3.366-2.399 4.51-3.599 11.812 19.258 41.561 70.645 22.009 70.418Z"
    fill="#4A75CB" />
  <path
    d="M154.264 448.865h-37.59s-.909-5.512 1.077-9.694c1.885-4.02 4.812-5.868 4.106-10.731 2.389 2.399 6.293 5.025 11.711 4.344.673 1.037 4.307 6.581 6.528 8.137 2.457 1.686 13.394 1.07 14.168 7.944Zm80.666 0h-37.59s-1.38-5.771 1.077-9.694c2.187-3.502 1.346-5.479-.27-8.332 1.717.648 3.904 1.264 6.327 1.134 1.885-.097 3.837-.907 5.586-1.88 1.616 1.751 8.548 9.337 10.702 10.828 2.457 1.686 13.428 1.07 14.168 7.944Zm36.008-265.234-37.085 45.908-.538-.649 36.546-45.81 1.077.551Z"
    fill="#233862" />
  <path d="M270.871 183.728h37.086l-38.836 45.811h-35.268l37.018-45.811Z" fill="#2B478B" />
  <path
    d="M260.237 217.219c-2.692 2.723-8.683 6.581-16.827 3.469-5.822-2.172-11.946-3.696-14.941-4.41a19.612 19.612 0 0 1-.438-.064 63.877 63.877 0 0 1-1.447-.325c-3.163-.583-6.932-1.394-11.072-2.269h-.033c-7.067-1.621-14.976-3.599-21.639-5.771-4.678-1.589-8.75-3.274-11.509-4.96-.27-.162-.505-.324-.808-.519-6.596-4.636-14.437-18.22-20.528-32.81-.842-2.01-1.649-4.02-2.423-5.965-2.827-7.295-5.082-14.492-6.462-20.685-.841-3.696-1.413-7.067-1.514-9.855a25.695 25.695 0 0 1-.067-2.756c.134-15.789 8.245-17.961 8.245-17.961.168-.065.336-.098.572-.162 1.413-.227 2.894.713 4.408 2.496 1.919 2.237 3.938 5.868 6.058 10.277 3.197 7.036 6.596 16.113 9.759 25.126 1.75 4.961 3.433 9.921 5.115 14.492a393.504 393.504 0 0 0 2.827 7.781c1.75 4.572 3.332 8.268 4.745 10.602.909 1.524 3.5 3.631 6.966 6.03 5.957 4.183 14.707 9.24 22.346 13.39a575.888 575.888 0 0 0 8.648 4.604c1.044.227 4.375.908 8.01 1.361-.269-.097 4.846-2.82 6.899-2.82 5.048 0 9.523-.389 9.894.097 1.918 2.756-7.135 2.886-7.135 2.886 2.827 1.069 7.74 1.264 10.836 1.264 1.919.032 4.409-.065 4.51 1.751.101 1.686-1.279 3.955-2.995 5.706Z"
    fill="#FFB27D" />
  <path
    d="M169.778 124.982c-10.87-2.886-19.249 5.284-19.249 5.284.134-15.756 8.278-17.896 8.278-17.896 3.265-1.297 10.197 2.205 10.971 12.612Z"
    fill="#739AF0" />
  <path
    d="M231.968 77.161s-10.499-1.394-13.764-2.69c-.942-.39-15.278-6.29-15.278-6.29s-4.106 1.556-6.226 3.955c-2.12 2.4-16.119-2.4-16.288-4.28-.168-1.847.472-6.16.472-6.16s3.701-16.404 18.374-20.651h.034c.359-.108.729-.206 1.11-.292 3.837-.908 8.413-1.005 13.798.194 27.292 6.03 18.105 35.306 17.768 36.214Z"
    fill="#FFA412" />
  <path
    d="M240.92 80.306c-27.326-1.167-37.994-12.125-37.994-12.125a75.007 75.007 0 0 0 11.509 3.696c-1.245-6.257-5.418-23.376-15.48-30.67.112-.065.213-.12.303-.162h.034c.302-.13.538-.163 1.009-.39a.218.218 0 0 0 .101.098c11.913 9.79 16.692 25.645 18.004 31.87 9.053 1.458 14.639.259 14.639.259 4.577 2.431 7.168 4.28 8.615 5.479.808.68.337 2.01-.74 1.945Z"
    fill="#E27F2B" />
  <path d="M269.861 183.08h37.321l.774.648h-37.085l-1.01-.648Z" fill="#233862" />
  <path
    d="M551.131 399.131h-67.204c-1.313 0-2.39-1.102-2.39-2.431 0-1.362 1.077-2.432 2.39-2.432h67.204c1.313 0 2.39 1.07 2.39 2.432 0 1.329-1.077 2.431-2.39 2.431Zm.639-74.892h-68.517a2.43 2.43 0 0 1-2.422-2.431 2.41 2.41 0 0 1 2.422-2.432h68.517c1.38 0 2.457 1.07 2.457 2.432a2.438 2.438 0 0 1-2.457 2.431Z"
    fill="#2B478B" />
  <path
    d="M590.438 206.358c1.716-2.01 18.408-10.991 28.47-15.984l3.163-1.523c.067-.044.146-.087.236-.13 1.581-.746 2.827-1.297 3.533-1.524 4.846-1.783 9.423-66.754 14.572-70.872 5.182-4.085 29.581-8.883 29.581-8.883s-12.149 47.821-20.798 76.74c-3.129 10.504-5.788 18.512-7.269 20.847-.908 1.523-2.759 2.755-5.182 3.793-2.019.875-4.476 1.588-7.168 2.172-12.923 2.788-31.297 2.561-35.336 1.653-5.923-1.329-6.091-3.663-3.802-6.289Z"
    fill="#739AF0" />
  <path
    d="M641.051 144.434c.023-1.102.135-2.204.337-3.307 3.13-16.664 28.1-33.685 28.605-33.685v.357c0 2.529 4.173 7.23 10.567 7.619 7.605.486 16.994-3.696 16.994-7.911.034 0 4.274.551 5.721.713 6.091.649 18.24 3.826 23.456 7.619 4.947 3.599-2.053 26.358-6.394 42.439-1.817 6.808-3.197 12.449-2.961 14.913.101 1.232 1.245 17.767 2.254 32.713.842 12.32 1.616 23.57 1.616 24.283.067 1.394-7.168 6.29-19.317 10.018a102.874 102.874 0 0 1-9.625 2.399 105.492 105.492 0 0 1-20.932 2.01c-2.523-.032-4.879-.13-7.134-.356-17.331-1.622-23.288-20.685-23.187-99.824Z"
    fill="#739AF0" />
  <path
    d="M679.617 116.715c-10.365-1.168-9.624-9.273-9.624-9.273-.101-8.753-.101-16.6-.101-16.6l26.787-4.214c.909 6.517 1.01 14.233.875 20.685.269 6.257-7.572 10.601-17.937 9.402Z"
    fill="#D9935C" />
  <path
    d="M629.138 448.832c.505-1.588 2.356-4.085 7.37-4.895 7.269-1.135 20.024-5.35 22.144-14.655 2.12-9.272 17.903 2.789 17.903 2.789s1.952 14.784-1.413 16.794l-46.004-.033Z"
    fill="#233862" />
  <path
    d="M717.914 137.982s.707 52.976 1.716 67.922c-7.504 6.679-19.956 13.325-19.956-11.412 0-35.404 18.24-56.51 18.24-56.51Zm-95.843 50.869c.067-.044.146-.087.236-.13 1.716.259 3.735.908 6.562.357 4.711-.876 15.11-38.484 15.11-39.165l.707 8.592a3913 3913 0 0 0 4.509 25.677c-3.129 10.504-5.788 18.512-7.269 20.847-.908 1.523-2.759 2.755-5.182 3.793-2.019.875-4.476 1.588-7.168 2.172-4.476-7.035-10.163-17.151-10.668-20.62l3.163-1.523Z"
    fill="#4A75CB" />
  <path
    d="M677.497 448.832c.471-1.588 2.289-4.085 7.303-4.895 7.269-1.135 20.023-5.35 22.177-14.655 2.12-9.272 17.87 2.789 17.87 2.789s1.985 14.784-1.38 16.794l-45.97-.033ZM667.199 79.171c-9.321-15.659.673-30.28.673-30.28 2.895 2.788 15.784 1.329 15.784 1.329 34.325 1.815 16.456 28.951 16.456 28.951s-23.591 15.692-32.913 0Z"
    fill="#233862" />
  <path
    d="M667.334 71.552c.045-1.123.101-2.312.168-3.566.27-4.668 6.293-8.17 20.73-6.97 7.875.68 10.702 3.112 11.543 7.36.707 3.598.068 8.461-.134 14.653-.169 5.22.033 8.981-3.13 10.861-2.053 1.168-13.36 3.6-13.36 3.6-2.221-.228-9.86-2.173-12.452-4.15-2.726-2.076-3.937-7.23-3.365-21.788Z"
    fill="#D9935C" />
  <path
    d="M667.233 76.318c.135 8.43 2.49 13.422 4.207 14.07 1.952.714 4.274 1.298 6.697 1.72.807.096 1.581.064 1.581-.39-.033-1.33-1.884-2.95-.505-4.15 1.448-1.232 9.154-1.653 9.793 1.038.303 1.329-2.187 3.63-.504 3.696.516-.087 1.02-.184 1.514-.292 2.827-.713 5.014-1.978 5.957-2.529 3.163-1.88 2.961-4.7 3.668-9.92.471-3.34.471-1.524 0 3.468-.471 5.22.471 8.56-3.13 10.861-2.019 1.265-13.528 6.258-13.528 6.258.168-2.659-9.692-4.831-12.284-6.809-2.423-1.815-3.634-6.062-3.466-17.02Z"
    fill="#233862" />
  <path
    d="M721.246 230.187c.067 1.394-7.168 6.29-19.317 10.018-.965.303-1.974.594-3.029.875h-.033c-1.111 12.806-4.173 30.897-6.933 48.34a877.47 877.47 0 0 0-2.053 13.357c-1.682 11.444-2.961 21.916-3.096 29.438v.065c-.067 3.469 2.962 12.06 3.197 14.07a87.54 87.54 0 0 1 .337 3.826c.336 5.414.202 11.769-.269 18.577-1.986 29.665-10.096 67.63-13.024 69.251-5.755 3.209-16.254-.033-21.605-.778-2.221-.325-3.971-2.108-3.87-4.28 2.625-49.215-4.88-117.784-10.466-159.964-.157-1.08-.303-2.15-.438-3.209a199.389 199.389 0 0 1-1.379-13.812c-.27-3.663-.404-7.002-.438-9.888-.022-.908-.033-1.761-.033-2.561 0-2.659 2.153-19.939 2.254-99.078 0-1.815 1.582-3.307 3.467-3.307h50.243c4.846 0 8.75 3.826 8.682 8.495-.067 6.03.169 14.459 1.515 22.499 1.851 10.991 5.822 21.268 14.033 23.732v.033c.067.065.269.551.639 1.362.068 1.988.157 4.009.27 6.062 0 .411.011.832.033 1.265l.068.713c0 .432.011.854.033 1.264l.135 2.108.067 1.653c.067 1.081.135 2.172.202 3.275l.067 1.037c.113 1.427.225 2.864.337 4.312.022.432.056.875.101 1.329 0 .216.011.433.034.649.044.562.1 1.124.168 1.686l.134 1.815c.202 2.237-.101 4.215-.033 5.771Z"
    fill="#2B478B" />
  <path
    d="M690.05 368.753c-1.986 29.665-10.096 67.63-13.024 69.251-5.755 3.209-16.254-.033-21.605-.778-2.221-.325-3.971-2.108-3.87-4.28 2.625-49.215-4.88-117.784-10.466-159.964-.157-1.08-.303-2.15-.438-3.209a199.389 199.389 0 0 1-1.379-13.812c2.658-16.696 17.667-17.604 31.297 16.956-1.683 11.477 19.956 89.028 19.485 95.836Z"
    fill="#233862" />
  <path
    d="M721.818 330.821c.404 3.436 4.577 11.574 5.081 13.519 6.899 26.683 3.063 89.968-.336 92.497-5.284 3.922-16.12 2.042-21.538 1.977-2.221-.032-4.24-1.588-4.408-3.761-4.241-50.414-21.774-119.632-33.081-160.385-5.654-20.522-6.461-35.598-6.461-35.598s52.734-31.124 58.454-14.135c5.048 15.043-.908 79.56 2.289 105.886Z"
    fill="#2B478B" />
  <path
    d="M668.074 42.633a28.94 28.94 0 0 1 1.178-1.135c1.717-1.588 3.803-2.95 6.293-3.955 9.188-3.696 16.827-.26 21.572 3.21.471.346.908.691 1.312 1.037 2.592 2.108 4.039 4.02 4.039 4.02s4.475 5.869 4.341 18.253l-46.004.454s-.673-13.357 7.269-21.884Z"
    fill="#FFA412" />
  <path
    d="M693.886 64.193h-2.524c-.067-.68.067-16.794 6.293-23.019.471.325.37.26.774.616-5.889 5.512-4.543 22.209-4.543 22.403Z"
    fill="#E27F2B" />
  <path
    d="M673.896 64.388c-.538-9.856-4.442-20.199-5.485-22.046.337-.39.437-.487.841-.843.741 1.2 6.731 11.93 7.37 22.856l30.187-.292s-15.312 3.307-24.533 3.405c-9.221.097-21.471-2.95-21.471-2.95l13.091-.13Z"
    fill="#E27F2B" />
  <path
    d="M707.785 108.934c.605.129 2.456.551 2.456.551-11.711 15.075-13.696 32.031-13.696 32.031l-7.942-.389c.908-15.237 16.456-32.68 16.456-32.68s1.918.357 2.726.487Zm-41.46-.714c-11.14 16.211-12.351 33.232-12.351 33.232l-7.976-.13c.64-11.963 8.447-25.126 12.755-31.383 0 0 5.519-1.33 7.572-1.719Z"
    fill="#2B478B" />
  <path
    d="M717.611 199.193c.673-14.525-15.514-56.963-13.663-67.046 1.817-10.115 6.293-22.662 6.293-22.662s13.529 3.015 16.49 6.354c2.962 3.34 12.384 27.655 10.332 73.109 0 0 .202 4.344.269 11.833.022 1.492.033 3.102.033 4.831 0 8.786-1.817 24.899-6.999 49.928h-10.937s-2.323-35.566-1.919-53.429c.023-1.038.056-2.01.101-2.918Z"
    fill="#739AF0" />
  <path
    d="M719.428 255.54s-2.322-35.566-1.918-53.429c8.75-2.724 15.817-2.14 19.822-1.33.022 1.492.033 3.102.033 4.831 0 8.786-1.817 24.899-6.999 49.928 2.288 9.207 2.12 19.161-1.818 20.944-3.937 1.75-17.028-4.831-16.86-7.781.135-2.918 7.74-13.163 7.74-13.163Zm-149.687-41.142c1.077-3.761 1.851-5.836 4.543-7.684 3.938-2.658 8.582-1.945 12.014-1.329 2.659.422 5.418-.421 6.596-.843 6.125-3.955 21.504-12.06 29.177-15.691 5.216 2.917 11.644 8.688 14.673 19.971-11.779 5.025-37.59 4.928-42.504 3.825 0 0-4.577 3.178-8.009 3.469-1.313.13-2.962-.259-4.51-.745-2.456-.778-5.047 0-6.797 2.075-1.683 2.01-3.5 2.01-4.409 2.01-1.413 0-1.447-2.691-.774-5.058Z"
    fill="#D9935C" />
  <path
    d="M555.371 439.754h-81.473c-1.413 0-4.509-1.102-4.509-2.431 0-1.362 10.466-2.432 11.845-2.432h69.089V229.02c0-8.397 7.101-15.238 15.851-15.238h17.634c1.413 0 2.524 1.07 2.524 2.432 0 1.329-1.111 2.431-2.524 2.431h-17.634c-5.957 0-10.803 4.669-10.803 10.375v210.734Z"
    fill="#2B478B" />
  <path
    d="M484.701 439.754h-59.095c-1.413 0-2.524-1.102-2.524-2.431 0-1.362 1.111-2.432 2.524-2.432h54.047V229.02c0-8.397 7.1-15.238 15.85-15.238h17.634c1.414 0 2.524 1.07 2.524 2.432 0 1.329-1.11 2.431-2.524 2.431h-17.634c-5.956 0-10.802 4.669-10.802 10.375v210.734Z"
    fill="#2B478B" />
  <path
    d="M551.232 249.672h-67.406a2.43 2.43 0 0 1-2.423-2.432 2.41 2.41 0 0 1 2.423-2.431h67.406a2.41 2.41 0 0 1 2.423 2.431 2.43 2.43 0 0 1-2.423 2.432Z"
    fill="#2B478B" />
  <path
    d="M587.981 220.266h-21.807c-2.356 0-4.207-1.815-4.207-4.052 0-2.237 1.851-4.053 4.207-4.053h21.807c2.322 0 4.207 1.816 4.207 4.053s-1.885 4.052-4.207 4.052Z"
    fill="#963333" />
  <path
    d="M568.698 216.214c0 1.329-1.144 2.431-2.524 2.431-5.183 0-9.49 3.502-10.533 8.17h-5.149c1.144-7.359 7.74-13.033 15.682-13.033 1.38 0 2.524 1.07 2.524 2.432Z"
    fill="#2B478B" />
  <path
    d="M517.31 220.266h-21.807c-2.356 0-4.206-1.815-4.206-4.052 0-2.237 1.85-4.053 4.206-4.053h21.807c2.322 0 4.207 1.816 4.207 4.053s-1.885 4.052-4.207 4.052Z"
    fill="#963333" />
  <path
    d="M498.027 216.214c0 1.329-1.144 2.431-2.524 2.431-5.182 0-9.49 3.502-10.533 8.17h-5.149c1.144-7.359 7.74-13.033 15.682-13.033 1.38 0 2.524 1.07 2.524 2.432Z"
    fill="#2B478B" />
  <path d="m468.749 362.982 83.997-1.426.236 73.335h-83.997l-.236-71.909Z" fill="#D3671E" />
  <path d="m443.543 363.112 67.272-.26.168 72.072-67.238-.033-.202-71.779Z" fill="#F1A34F" />
  <path opacity=".4" d="m510.983 434.924-67.372-49.085-.068-22.727 67.272-.26.168 72.072Z" fill="#D86713" />
  <path
    d="M582.765 422.474c0 14.136-9.726 25.612-21.706 25.612h-10.096c-12.014 0-21.706-11.476-21.706-25.612 0-14.168 9.692-25.612 21.706-25.612h10.096c11.98 0 21.706 11.444 21.706 25.612Z"
    fill="#233862" />
  <path
    d="M582.765 422.474c0 14.136-9.726 25.612-21.706 25.612-12.014 0-21.706-11.476-21.706-25.612 0-14.168 9.692-25.612 21.706-25.612 11.98 0 21.706 11.444 21.706 25.612Z"
    fill="#2B478B" />
  <path
    d="M574.789 422.474c0 8.948-6.158 16.21-13.73 16.21-7.606 0-13.764-7.262-13.764-16.21 0-8.98 6.158-16.21 13.764-16.21 7.572 0 13.73 7.23 13.73 16.21Z"
    fill="#4A75CB" />
  <path d="m483.859 280.796 96.651-.292-.269 82.154-96.146.292-.236-82.154Z" fill="#D3671E" />
  <path d="m455.019 280.925 76.964-.259.202 82.122-76.964.291-.202-82.154Z" fill="#F1A34F" />
  <path opacity=".4" d="m532.185 362.788-77.099-55.602-.067-26.261 76.964-.259.202 82.122Z" fill="#D86713" />
  <path
    d="M594.24 212.647s-8.211 5.382-10.365 4.053c-2.154-1.329 1.515-4.312-1.952-5.414-3.499-1.07 12.317 1.361 12.317 1.361Z"
    fill="#D9935C" />
  <path
    d="M883.99 449.999H1.01c-.573 0-1.01-.454-1.01-.972v-.325c0-.551.437-.972 1.01-.972h882.98c.573 0 1.01.421 1.01.972v.325c0 .518-.437.972-1.01.972Z"
    fill="#2E3552" />
</svg>