<svg width="165" height="46" viewBox="0 0 165 46" fill="none" xmlns="http://www.w3.org/2000/svg">
    <path
        d="M30.67 43.34V40.44C30.67 39.36 30.08 38.88 29.15 38.88C28.63 38.88 28.06 39.07 27.46 39.56C27.29 39.23 27.01 39.04 26.64 38.96C26.45 38.91 26.24 38.88 26.01 38.9C25.6 38.91 25.13 39.09 24.64 39.46V38.92L24 38.96V43.34H24.64V39.99C25.08 39.67 25.56 39.46 25.99 39.46C26.48 39.46 26.81 39.65 26.93 40.1C26.99 40.23 27.01 40.39 27.01 40.58V43.34H27.65V40.5C27.65 40.32 27.63 40.14 27.59 39.99C28 39.7 28.42 39.52 28.8 39.47C28.87 39.47 28.93 39.46 29 39.46C29.49 39.46 29.82 39.65 29.95 40.1C30 40.23 30.03 40.39 30.03 40.58V43.34H30.67Z"
        fill="#58595B" />
    <path
        d="M35.2302 43.34V40.43C35.2302 39.35 34.5702 38.88 33.4302 38.88C32.8402 38.88 32.3002 39.01 31.9402 39.22L31.9702 39.81C32.2902 39.61 32.8102 39.45 33.3702 39.45C34.1802 39.45 34.6002 39.75 34.6002 40.49V41.05C34.3202 40.91 33.7902 40.8 33.3402 40.8C32.2602 40.8 31.5602 41.23 31.5602 42.13C31.5602 42.93 32.1002 43.4 33.0902 43.4C33.6802 43.4 34.2502 43.2 34.6202 42.94V43.34H35.2302ZM34.6002 42.5C34.3102 42.72 33.7502 42.93 33.2402 42.93C32.6402 42.93 32.2102 42.7 32.2102 42.12C32.2102 41.5 32.6902 41.25 33.4402 41.25C33.8602 41.25 34.3202 41.35 34.6002 41.49V42.5Z"
        fill="#58595B" />
    <path
        d="M40.2607 43.34V40.44C40.2607 39.36 39.6807 38.88 38.7107 38.88C38.1907 38.88 37.6507 39.06 37.1107 39.46V38.92L36.4707 38.96V43.34H37.1107V39.99C37.5607 39.67 38.0807 39.46 38.5507 39.46C39.2507 39.46 39.6307 39.81 39.6307 40.58V43.34H40.2607Z"
        fill="#58595B" />
    <path
        d="M44.8298 43.34V40.43C44.8298 39.35 44.1698 38.88 43.0298 38.88C42.4398 38.88 41.8998 39.01 41.5398 39.22L41.5698 39.81C41.8898 39.61 42.4098 39.45 42.9698 39.45C43.7798 39.45 44.1998 39.75 44.1998 40.49V41.05C43.9198 40.91 43.3898 40.8 42.9398 40.8C41.8598 40.8 41.1598 41.23 41.1598 42.13C41.1598 42.93 41.6998 43.4 42.6898 43.4C43.2798 43.4 43.8498 43.2 44.2198 42.94V43.34H44.8298ZM44.1998 42.5C43.9098 42.72 43.3498 42.93 42.8398 42.93C42.2398 42.93 41.8098 42.7 41.8098 42.12C41.8098 41.5 42.2898 41.25 43.0398 41.25C43.4598 41.25 43.9198 41.35 44.1998 41.49V42.5Z"
        fill="#58595B" />
    <path
        d="M49.7203 38.84L48.1503 38.97C47.9703 38.91 47.7503 38.88 47.5203 38.88C46.4503 38.88 45.7703 39.53 45.7703 40.4C45.7703 41.18 46.3203 41.81 47.2303 41.9L46.3903 42.77V43.28C46.7303 43.21 47.3403 43.16 47.7903 43.16C48.7703 43.16 49.1903 43.36 49.1903 43.89C49.1903 44.34 48.8303 44.71 47.6603 44.71C46.8703 44.71 46.0403 44.48 45.5903 44.2L45.5303 44.79C45.9903 45.07 46.8403 45.25 47.6403 45.25C49.1603 45.25 49.8103 44.68 49.8103 43.89C49.8103 43.04 49.1603 42.63 47.9003 42.63C47.6703 42.63 47.1603 42.66 46.9603 42.7L47.7003 41.91C48.6703 41.84 49.2803 41.23 49.2803 40.4C49.2803 40 49.0903 39.64 48.7903 39.4H49.7003L49.7203 38.84ZM48.6703 40.4C48.6703 41.01 48.2303 41.43 47.5203 41.43C46.8203 41.43 46.3803 41 46.3803 40.4C46.3803 39.78 46.8203 39.36 47.5203 39.36C48.2303 39.36 48.6703 39.8 48.6703 40.4Z"
        fill="#58595B" />
    <path
        d="M54.1034 41.27C54.1234 41.11 54.1434 40.9 54.1434 40.74C54.1434 39.62 53.3634 38.88 52.2634 38.88C51.0634 38.88 50.1734 39.77 50.1734 41.09C50.1734 42.52 51.1434 43.4 52.6034 43.4C53.1734 43.4 53.8234 43.23 54.1634 42.97L54.1334 42.37C53.7734 42.66 53.1834 42.83 52.6334 42.83C51.6034 42.83 50.9034 42.22 50.8434 41.27H54.1034ZM52.2634 39.38C53.0234 39.38 53.5234 39.92 53.5234 40.66C53.5234 40.73 53.5234 40.8 53.5134 40.85H50.8234C50.8934 39.95 51.4734 39.38 52.2634 39.38Z"
        fill="#58595B" />
    <path
        d="M59.4245 38.94H57.9945V37.78L57.3545 37.95V38.94H56.7145V39.5H57.3545V42.1C57.3545 42.96 57.8145 43.4 58.6645 43.4C58.9945 43.4 59.3045 43.32 59.4945 43.17L59.4645 42.61C59.2945 42.73 59.0445 42.83 58.7745 42.83C58.2945 42.83 57.9945 42.59 57.9945 42.02V39.5H59.3745L59.4245 38.94Z"
        fill="#58595B" />
    <path
        d="M64.1379 43.34V40.44C64.1379 39.36 63.5579 38.88 62.5879 38.88C62.0679 38.88 61.5179 39.06 60.9779 39.46V37L60.3379 37.05V43.34H60.9779V39.99C61.4279 39.67 61.9479 39.46 62.4179 39.46C63.1179 39.46 63.5079 39.81 63.5079 40.58V43.34H64.1379Z"
        fill="#58595B" />
    <path
        d="M68.9667 41.27C68.9867 41.11 69.0067 40.9 69.0067 40.74C69.0067 39.62 68.2267 38.88 67.1267 38.88C65.9267 38.88 65.0367 39.77 65.0367 41.09C65.0367 42.52 66.0067 43.4 67.4667 43.4C68.0367 43.4 68.6867 43.23 69.0267 42.97L68.9967 42.37C68.6367 42.66 68.0467 42.83 67.4967 42.83C66.4667 42.83 65.7667 42.22 65.7067 41.27H68.9667ZM67.1267 39.38C67.8867 39.38 68.3867 39.92 68.3867 40.66C68.3867 40.73 68.3867 40.8 68.3767 40.85H65.6867C65.7567 39.95 66.3367 39.38 67.1267 39.38Z"
        fill="#58595B" />
    <path
        d="M76.0778 41.1C76.0778 39.69 75.1578 38.88 73.9778 38.88C73.4878 38.88 73.0378 39.01 72.6478 39.3V37L72.0078 37.05V43.04C72.4078 43.25 73.0178 43.4 73.6878 43.4C75.1078 43.4 76.0778 42.45 76.0778 41.1ZM75.4178 41.12C75.4178 42.2 74.6578 42.84 73.7078 42.84C73.3078 42.84 72.9278 42.76 72.6478 42.63V39.84C72.9778 39.57 73.3978 39.44 73.8378 39.44C74.7478 39.44 75.4178 40.05 75.4178 41.12Z"
        fill="#58595B" />
    <path
        d="M80.2887 43.34V40.43C80.2887 39.35 79.6287 38.88 78.4888 38.88C77.8988 38.88 77.3587 39.01 76.9987 39.22L77.0288 39.81C77.3488 39.61 77.8687 39.45 78.4287 39.45C79.2388 39.45 79.6587 39.75 79.6587 40.49V41.05C79.3787 40.91 78.8488 40.8 78.3988 40.8C77.3187 40.8 76.6188 41.23 76.6188 42.13C76.6188 42.93 77.1587 43.4 78.1488 43.4C78.7388 43.4 79.3088 43.2 79.6787 42.94V43.34H80.2887ZM79.6587 42.5C79.3687 42.72 78.8088 42.93 78.2988 42.93C77.6988 42.93 77.2687 42.7 77.2687 42.12C77.2687 41.5 77.7487 41.25 78.4987 41.25C78.9187 41.25 79.3787 41.35 79.6587 41.49V42.5Z"
        fill="#58595B" />
    <path
        d="M84.8493 39.27C84.5393 39.03 84.0493 38.88 83.4593 38.88C82.1893 38.88 81.1793 39.81 81.1793 41.14C81.1793 42.54 82.1993 43.4 83.4893 43.4C84.0693 43.4 84.6193 43.23 84.9593 42.96L84.9293 42.35C84.5793 42.64 84.0693 42.81 83.5593 42.81C82.5393 42.81 81.8393 42.14 81.8393 41.14C81.8393 40.14 82.5493 39.47 83.4993 39.47C83.9193 39.47 84.4093 39.63 84.6893 39.86L84.8493 39.27Z"
        fill="#58595B" />
    <path
        d="M89.5657 38.96L88.8357 38.92L87.1457 40.66C86.8957 40.95 86.6757 41.23 86.5257 41.44H86.4857V37L85.8457 37.05V43.34H86.4857V42.1L87.2057 41.36L88.9657 43.34H89.7457L87.6757 40.91L89.5657 38.96Z"
        fill="#58595B" />
    <path
        d="M96.3254 43.34V40.44C96.3254 39.36 95.7454 38.88 94.7754 38.88C94.2554 38.88 93.7054 39.06 93.1654 39.46V37L92.5254 37.05V43.34H93.1654V39.99C93.6154 39.67 94.1354 39.46 94.6054 39.46C95.3054 39.46 95.6954 39.81 95.6954 40.58V43.34H96.3254Z"
        fill="#58595B" />
    <path
        d="M101.784 41.14C101.784 39.81 100.794 38.88 99.5042 38.88C98.2242 38.88 97.2242 39.81 97.2242 41.14C97.2242 42.47 98.2242 43.4 99.5042 43.4C100.794 43.4 101.784 42.47 101.784 41.14ZM101.124 41.14C101.124 42.14 100.424 42.83 99.5042 42.83C98.6142 42.83 97.8842 42.14 97.8842 41.14C97.8842 40.14 98.5942 39.45 99.5042 39.45C100.394 39.45 101.124 40.14 101.124 41.14Z"
        fill="#58595B" />
    <path
        d="M106.422 38.92L105.792 38.96V42.3C105.342 42.62 104.832 42.82 104.372 42.82C103.692 42.82 103.312 42.47 103.312 41.69V38.92L102.672 38.96V41.84C102.672 42.92 103.262 43.4 104.212 43.4C104.712 43.4 105.252 43.22 105.792 42.83V43.34H106.422V38.92Z"
        fill="#58595B" />
    <path
        d="M110.352 39.06C110.062 38.94 109.682 38.88 109.162 38.88C108.072 38.88 107.512 39.47 107.512 40.11C107.512 41.51 109.892 41.24 109.892 42.15C109.892 42.61 109.562 42.86 108.842 42.86C108.372 42.86 107.842 42.71 107.502 42.52L107.442 43.09C107.772 43.28 108.322 43.4 108.842 43.4C110.062 43.4 110.552 42.82 110.552 42.12C110.552 40.7 108.172 40.98 108.172 40.08C108.172 39.69 108.512 39.42 109.152 39.42C109.602 39.42 109.982 39.51 110.262 39.63L110.352 39.06Z"
        fill="#58595B" />
    <path
        d="M115.148 41.27C115.168 41.11 115.188 40.9 115.188 40.74C115.188 39.62 114.408 38.88 113.308 38.88C112.108 38.88 111.218 39.77 111.218 41.09C111.218 42.52 112.188 43.4 113.648 43.4C114.218 43.4 114.868 43.23 115.208 42.97L115.178 42.37C114.818 42.66 114.228 42.83 113.678 42.83C112.648 42.83 111.948 42.22 111.888 41.27H115.148ZM113.308 39.38C114.068 39.38 114.568 39.92 114.568 40.66C114.568 40.73 114.568 40.8 114.558 40.85H111.868C111.938 39.95 112.518 39.38 113.308 39.38Z"
        fill="#58595B" />
    <path
        d="M122.259 41.1C122.259 39.69 121.339 38.88 120.159 38.88C119.669 38.88 119.219 39.01 118.829 39.3V37L118.189 37.05V43.04C118.589 43.25 119.199 43.4 119.869 43.4C121.289 43.4 122.259 42.45 122.259 41.1ZM121.599 41.12C121.599 42.2 120.839 42.84 119.889 42.84C119.489 42.84 119.109 42.76 118.829 42.63V39.84C119.159 39.57 119.579 39.44 120.019 39.44C120.929 39.44 121.599 40.05 121.599 41.12Z"
        fill="#58595B" />
    <path
        d="M126.73 41.27C126.75 41.11 126.77 40.9 126.77 40.74C126.77 39.62 125.99 38.88 124.89 38.88C123.69 38.88 122.8 39.77 122.8 41.09C122.8 42.52 123.77 43.4 125.23 43.4C125.8 43.4 126.45 43.23 126.79 42.97L126.76 42.37C126.4 42.66 125.81 42.83 125.26 42.83C124.23 42.83 123.53 42.22 123.47 41.27H126.73ZM124.89 39.38C125.65 39.38 126.15 39.92 126.15 40.66C126.15 40.73 126.15 40.8 126.14 40.85H123.45C123.52 39.95 124.1 39.38 124.89 39.38Z"
        fill="#58595B" />
    <path
        d="M130.05 38.94H128.62V37.78L127.98 37.95V38.94H127.34V39.5H127.98V42.1C127.98 42.96 128.44 43.4 129.29 43.4C129.62 43.4 129.93 43.32 130.12 43.17L130.09 42.61C129.92 42.73 129.67 42.83 129.4 42.83C128.92 42.83 128.62 42.59 128.62 42.02V39.5H130L130.05 38.94Z"
        fill="#58595B" />
    <path
        d="M133.243 38.94H131.813V37.78L131.173 37.95V38.94H130.533V39.5H131.173V42.1C131.173 42.96 131.633 43.4 132.483 43.4C132.813 43.4 133.123 43.32 133.313 43.17L133.283 42.61C133.113 42.73 132.863 42.83 132.593 42.83C132.113 42.83 131.813 42.59 131.813 42.02V39.5H133.193L133.243 38.94Z"
        fill="#58595B" />
    <path
        d="M137.736 41.27C137.756 41.11 137.776 40.9 137.776 40.74C137.776 39.62 136.996 38.88 135.896 38.88C134.696 38.88 133.806 39.77 133.806 41.09C133.806 42.52 134.776 43.4 136.236 43.4C136.806 43.4 137.456 43.23 137.796 42.97L137.766 42.37C137.406 42.66 136.816 42.83 136.266 42.83C135.236 42.83 134.536 42.22 134.476 41.27H137.736ZM135.896 39.38C136.656 39.38 137.156 39.92 137.156 40.66C137.156 40.73 137.156 40.8 137.146 40.85H134.456C134.526 39.95 135.106 39.38 135.896 39.38Z"
        fill="#58595B" />
    <path
        d="M141.145 38.94C141.065 38.9 140.915 38.88 140.785 38.88C140.275 38.88 139.775 39.15 139.415 39.58V38.92L138.775 38.96V43.34H139.415V40.15C139.755 39.75 140.215 39.48 140.695 39.48C140.835 39.48 141.015 39.51 141.125 39.55L141.145 38.94Z"
        fill="#58595B" />
    <path
        d="M73.632 31.1166V16.8834C73.632 11.4847 70.7119 9.07975 66.3556 9.07975C63.962 9.07975 61.7121 9.81595 59.7015 11.3865V0L53.6218 0.245399V31.1166H59.7015V16C60.994 15.1656 62.5738 14.6258 63.962 14.6258C66.1162 14.6258 67.5524 15.6564 67.5524 18.2086V31.1166H73.632Z"
        fill="#FFB100" />
    <path
        d="M99.7062 20.319C99.7062 13.7914 94.9191 9.07975 88.3128 9.07975C81.7544 9.07975 76.9194 13.7914 76.9194 20.319C76.9194 26.8466 81.7544 31.5583 88.3128 31.5583C94.9191 31.5583 99.7062 26.8466 99.7062 20.319ZM93.3872 20.319C93.3872 23.8037 91.233 26.0613 88.3128 26.0613C85.4405 26.0613 83.2385 23.8037 83.2385 20.319C83.2385 16.8344 85.4405 14.5767 88.3128 14.5767C91.1851 14.5767 93.3872 16.8344 93.3872 20.319Z"
        fill="#FFB100" />
    <path
        d="M122.664 9.37423L116.585 9.66871V24.6871C115.292 25.4724 113.856 26.0123 112.468 26.0123C110.361 26.0123 109.069 24.9816 109.069 22.4294V9.37423L102.989 9.66871V23.7546C102.989 29.1534 105.861 31.5583 110.218 31.5583C112.563 31.5583 114.574 30.8712 116.585 29.3006V31.1166H122.664V9.37423Z"
        fill="#FFB100" />
    <path
        d="M141.757 10.1595C140.321 9.47239 137.975 9.07975 135.486 9.07975C129.885 9.07975 126.534 12.1227 126.534 15.9509C126.534 23.2147 136.395 22.3313 136.395 24.8344C136.395 25.9141 135.582 26.5031 133.667 26.5031C131.082 26.5031 128.257 25.5706 126.678 24.4908L126.342 29.7914C127.922 30.8712 130.89 31.5583 133.762 31.5583C140.082 31.5583 142.667 28.319 142.667 24.5399C142.667 17.3252 132.805 18.2086 132.805 15.7546C132.805 14.7239 133.667 14.135 135.438 14.135C137.401 14.135 139.507 14.5767 140.847 15.2638L141.757 10.1595Z"
        fill="#FFB100" />
    <path
        d="M164.761 21.8405C164.904 20.8098 165 19.4356 165 18.6012C165 12.6135 160.979 9.07975 155.426 9.07975C149.394 9.07975 144.846 13.4969 144.846 20.2209C144.846 27.1411 149.394 31.5583 157.628 31.5583C160.021 31.5583 163.181 30.8712 164.856 29.7423L164.617 24.3926C162.989 25.4233 160.213 26.0613 158.059 26.0613C154.181 26.0613 151.835 24.5399 151.261 21.8405H164.761ZM155.474 13.5951C157.819 13.5951 159.303 15.2147 159.303 17.6196V18.2577H151.022C151.357 15.362 152.984 13.5951 155.474 13.5951Z"
        fill="#FFB100" />
    <path
        d="M51.5933 25.1534V23.7178L51.3779 23.6074C48.9544 26.0368 45.0768 29.2393 41.2531 30.0675C41.0915 29.8466 41.0377 29.4049 41.0377 28.8528C41.0377 24.7117 46.854 12.3988 46.854 8.20245C46.854 5.33129 45.023 3.28834 41.5762 3.28834C36.4061 3.28834 32.2593 9.36196 28.8664 15.6012L28.274 15.4356C29.4049 12.8405 30.3205 9.96933 30.3205 7.92638C30.3205 5.16564 28.7048 3.28834 25.2581 3.28834C18.1492 3.28834 13.1945 14.4417 9.20924 22.0061L8.67069 21.7301C11.2557 15.8221 13.5177 8.58896 13.5177 3.73006L12.9252 3.28834C10.7172 3.28834 6.51648 3.61963 4.36227 4.06135L4.25456 4.6135L6.2472 6.76687C5.76251 13.5583 1.72337 26.4233 0 30.454C1.18481 31.227 4.25456 31.8896 6.08564 32C12.9252 18.0307 18.3646 6.43558 21.9191 6.43558C22.9423 6.43558 23.3193 7.04294 23.3193 8.20245C23.3193 13.2822 20.0341 22.7239 17.4491 27.8037C18.957 28.8528 21.6498 29.681 23.804 29.8466C24.9888 27.8037 25.9582 23.8834 27.897 20.2393C31.4514 13.227 35.7599 6.4908 38.2372 6.4908C39.2604 6.4908 39.7451 7.04294 39.7451 8.25767C39.7451 12.6748 34.575 22.7791 34.575 27.5276C34.575 30.3436 36.1368 32 38.9912 32C43.0842 32 48.6851 28.0798 51.5933 25.1534Z"
        fill="#FFB100" />
</svg>