<svg width="839" height="375" viewBox="0 0 839 375" fill="none" xmlns="http://www.w3.org/2000/svg">
    <path
        d="M149.707 327.927c6.918.762 13.31 2.161 19.174 4.067l-.066-.063.264.127c.263.085.505.148.724.191 34.79 12.012 50.736 9.724 64.441 5.72 36.964-10.932 58.839-58.092 118.667-48.94 25.434 3.813 45.794 9.089 61.739 19.83v-.063c.088.084.198.169.329.254a168.883 168.883 0 0 1 6.589 4.703c31.1 19.64 62.134-5.911 71.03-11.695.659-.445 1.317-4.131 1.976-4.576l.593-.381c39.007-26.504 101.009-53.326 160.837-46.779C758.727 261.699 800.039 374.07 800.039 374.07H32.291c11.992-26.567 60.026-52.499 117.416-46.143Z"
        fill="#E3CDC9" />
    <path d="M548.933 372.608H247.29V80.685h301.643v291.923Z" fill="#fff" />
    <path
        d="M548.933 34.795v45.89H247.29v-45.89c0-9.152 7.643-16.525 17.065-16.525h267.447c9.422 0 17.131 7.373 17.131 16.525Z"
        fill="#8155FF" />
    <path
        d="M502.152 33.08c7.841 0 14.166 6.101 14.166 13.665 0 7.563-6.325 13.728-14.166 13.728s-14.167-6.165-14.167-13.728c0-7.564 6.326-13.666 14.167-13.666Z"
        fill="#2B4183" />
    <path
        d="M494.047 44.075V8.609c0-4.322 3.624-7.817 8.105-7.817 4.48 0 8.104 3.495 8.104 7.817v35.466c0 4.322-3.624 7.818-8.104 7.818-4.481 0-8.105-3.496-8.105-7.818Z"
        fill="#FFCB2D" />
    <path
        d="M401.999 33.08c7.841 0 14.166 6.101 14.166 13.665 0 7.563-6.325 13.728-14.166 13.728s-14.166-6.165-14.166-13.728c0-7.564 6.325-13.666 14.166-13.666Z"
        fill="#2B4183" />
    <path
        d="M393.895 44.075V8.609c0-4.322 3.624-7.817 8.104-7.817 4.481 0 8.17 3.495 8.17 7.817v35.466c0 4.322-3.689 7.818-8.17 7.818-4.48 0-8.104-3.496-8.104-7.818Z"
        fill="#FFCB2D" />
    <path
        d="M301.847 33.08c7.84 0 14.166 6.101 14.166 13.665 0 7.563-6.326 13.728-14.166 13.728-7.841 0-14.167-6.165-14.167-13.728 0-7.564 6.326-13.666 14.167-13.666Z"
        fill="#2B4183" />
    <path
        d="M293.742 44.075V8.609c0-4.322 3.624-7.817 8.105-7.817 4.48 0 8.17 3.495 8.17 7.817v35.466c0 4.322-3.69 7.818-8.17 7.818-4.481 0-8.105-3.496-8.105-7.818Z"
        fill="#FFCB2D" />
    <path
        d="M447.002 127.591h57.324v55.359h-57.324v-55.359Zm-76.366 0h57.39v55.359h-57.39v-55.359Zm-76.301 0h57.39v55.359h-57.39v-55.359Zm152.667 70.232h57.324v55.295h-57.324v-55.295Zm-76.366 0h57.39v55.295h-57.39v-55.295Z"
        stroke="#F0E0DF" stroke-width=".44" />
    <path d="M294.335 197.823h57.39v55.295h-57.39v-55.295Z" fill="#F88AA0" />
    <path d="m315.09 217.589 15.88 15.826m0-15.826-15.88 15.826" stroke="#fff" stroke-width=".4" />
    <path
        d="M447.002 268.055h57.324v55.295h-57.324v-55.295Zm-76.366 0h57.39v55.295h-57.39v-55.295Zm-76.301 0h57.39v55.295h-57.39v-55.295Z"
        stroke="#F0E0DF" stroke-width=".44" />
    <path d="M543.728 197.95h-27.937v-17.733h27.937v17.733Z" fill="#FFA80A" />
    <path
        d="M548.011 184.857h-36.503c-4.151 0-7.511-3.242-7.511-7.246 0-4.068 3.36-7.309 7.511-7.309h36.503c4.151 0 7.577 3.241 7.577 7.309 0 4.004-3.426 7.246-7.577 7.246Z"
        fill="#FFCB2D" />
    <path d="m473.226 217.844-15.748 15.19-11.135-10.741 15.748-15.127 11.135 10.678Z" fill="#FFA80A" />
    <path
        d="m467.032 206.53-21.941 21.165a5.793 5.793 0 0 1-8.038 0 5.238 5.238 0 0 1 0-7.69l22.007-21.229c2.174-2.161 5.798-2.161 7.972 0 2.241 2.161 2.241 5.593 0 7.754Z"
        fill="#FFCB2D" />
    <path
        d="M623.784 281.338c0 50.275-42.235 91.016-94.354 91.016s-94.354-40.741-94.354-91.016c0-50.274 42.235-91.015 94.354-91.015s94.354 40.741 94.354 91.015Z"
        fill="#F67B91" />
    <path
        d="M618.711 281.338c0 47.542-39.995 86.122-89.281 86.122-49.286 0-89.281-38.58-89.281-86.122 0-47.541 39.995-86.121 89.281-86.121 49.286 0 89.281 38.58 89.281 86.121Z"
        fill="#F88AA0" />
    <path
        d="M608.63 281.338c0 42.203-35.449 76.398-79.2 76.398-43.685 0-79.2-34.195-79.2-76.398 0-42.202 35.515-76.397 79.2-76.397 43.751 0 79.2 34.195 79.2 76.397Z"
        fill="#F6F6F6" />
    <mask id="a" style="mask-type:luminance" maskUnits="userSpaceOnUse" x="450" y="204" width="159" height="154">
        <path
            d="M608.63 281.332c0 42.19-35.456 76.384-79.187 76.384-43.731 0-79.18-34.194-79.18-76.384 0-42.184 35.449-76.378 79.18-76.378 43.731 0 79.187 34.194 79.187 76.378Z"
            fill="#fff" />
    </mask>
    <g opacity=".7" fill="#fff" mask="url(#a)">
        <path
            d="M498.33 194.772 617.063 355.32l-54.227 45-120.051-179.426 55.545-26.122Zm16.67-20.72L633.8 334.6l-6.985 22.5-120.051-179.425 8.236-3.623Z" />
    </g>
    <path
        d="M529.825 222.165c-1.054 0-1.976-.889-1.976-1.906v-4.513c0-1.08.922-1.907 1.976-1.907 1.121 0 1.977.827 1.977 1.907v4.513c0 1.017-.856 1.906-1.977 1.906Zm0 127.626c-1.054 0-1.976-.89-1.976-1.907v-4.513c0-1.08.922-1.97 1.976-1.97a1.96 1.96 0 0 1 1.977 1.97v4.513c0 1.017-.856 1.907-1.977 1.907Zm-45.134-109.575c-.461 0-.989-.191-1.384-.572l-3.294-3.178a1.87 1.87 0 0 1 0-2.733 2.04 2.04 0 0 1 2.833 0l3.294 3.178a1.87 1.87 0 0 1 0 2.733 2.083 2.083 0 0 1-1.449.572Zm93.563 90.189c-.527 0-.988-.127-1.383-.508l-3.295-3.242a1.8 1.8 0 0 1 0-2.669c.725-.763 2.043-.763 2.768 0l3.36 3.178c.725.763.725 1.97 0 2.733-.395.381-.922.508-1.45.508Zm-96.858 0c-.527 0-.988-.127-1.383-.508a1.87 1.87 0 0 1 0-2.733l3.294-3.178a2.04 2.04 0 0 1 2.833 0c.791.699.791 1.97 0 2.669l-3.294 3.242c-.395.381-.923.508-1.45.508Zm93.564-90.189c-.527 0-.988-.191-1.384-.572a1.872 1.872 0 0 1 0-2.733l3.295-3.178a2.04 2.04 0 0 1 2.833 0c.725.763.725 1.97 0 2.733l-3.36 3.178c-.396.381-.857.572-1.384.572ZM466.044 283.69h-4.678c-1.12 0-1.977-.826-1.977-1.907 0-1.017.857-1.906 1.977-1.906h4.678c1.054 0 1.977.889 1.977 1.906 0 1.081-.923 1.907-1.977 1.907Zm132.307 0h-4.678c-1.121 0-2.043-.826-2.043-1.907 0-1.017.922-1.906 2.043-1.906h4.678c1.054 0 1.976.889 1.976 1.906 0 1.081-.922 1.907-1.976 1.907Zm-63.782-2.606h-9.488v-39.787c0-2.543 2.109-4.64 4.744-4.64 2.636 0 4.744 2.097 4.744 4.64v39.787Z"
        fill="#8054FF" />
    <path
        d="M540.763 281.084c0 5.784-4.876 10.487-10.938 10.487-5.996 0-10.871-4.703-10.871-10.487 0-5.847 4.875-10.551 10.871-10.551 6.062 0 10.938 4.704 10.938 10.551Z"
        fill="#2B4183" />
    <path
        d="m204.132 186.446 17.263 73.346c1.054 6.991-1.713 13.983-7.314 18.305l-51.46 38.834.989-35.783 25.697-20.212-26.686-76.524 41.511 2.034Z"
        fill="#7041FD" />
    <path d="m134.223 315.978-8.566-10.487 26.883-14.11 9.818 13.347-24.841 12.457-3.294-1.207Z" fill="#FA849B" />
    <path d="M131.653 299.897s4.151 14.809 16.209 13.983l4.678 35.275-35.58-43.537 14.693-5.721Z" fill="#181F42" />
    <path d="m148.257 352.397-35.58-43.538 4.283-3.241 35.58 43.537-4.283 3.242Z" fill="#fff" />
    <path
        d="M148.521 318.456s-2.767-.826-6.918-.635m7.906 5.847s-2.767-.89-6.918-.699m7.973 5.847s-2.768-.889-6.919-.699"
        stroke="#fff" stroke-width=".3" stroke-linecap="round" stroke-linejoin="round" />
    <path d="M156.625 362.185h-13.902l2.569-29.11 16.868.826-2.504 26.504-3.031 1.78Z" fill="#FA849B" />
    <path d="M140.614 354.176s14.628 5.975 21.414-3.686l31.627 18.368H136.2l4.414-14.682Z" fill="#181F42" />
    <path d="M193.655 374.07H136.2v-5.212h57.455v5.212Z" fill="#fff" />
    <path
        d="M166.179 352.905s-2.437 1.589-4.875 4.831m9.685-2.416s-2.372 1.589-4.81 4.831m9.686-2.415s-2.438 1.588-4.876 4.83"
        stroke="#fff" stroke-width=".3" stroke-linecap="round" stroke-linejoin="round" />
    <path d="m190.295 185.175-21.414 154.129h-29.387l7.709-154.638 43.092.509Z" fill="#8155FF" />
    <path d="m204.132 186.446-17.79 26.948-3.756-27.647 21.546.699Z" fill="#8155FF" />
    <path d="m280.63 160.26-17.592 1.334 3.162-17.033 18.318 1.462-3.888 14.237Z" fill="#FA849B" />
    <path
        d="M295.389 159.433c-5.139 4.259-12.914 3.687-17.394-1.334-4.415-4.958-3.822-12.458 1.383-16.716 5.14-4.259 12.915-3.687 17.329 1.271 4.481 5.021 3.822 12.521-1.318 16.779Z"
        fill="#FA849B" />
    <path
        d="M277.995 158.099c-7.248-9.598-2.636-17.161 2.569-20.847 5.205-3.687 7.446 1.271 7.446 1.271l-10.015 19.576Zm10.015-19.64 14.166-3.432c1.186-.381 2.438.254 2.899 1.335.33 1.017-.132 2.034-1.12 2.415l-14.364 6.229-1.581-6.547Z"
        fill="#FA849B" />
    <path
        d="m214.279 114.815 23.193 35.402c3.295 5.657 1.45 12.839-4.217 16.399-5.864 3.749-13.837 2.16-17.724-3.56l-25.565-34.003c-3.69-5.466-2.965-12.649 1.845-17.288 6.654-6.42 17.856-4.894 22.468 3.05Z"
        fill="#FFCD2E" />
    <path d="m207.031 151.87 1.318-19.385 5.008 27.838-6.326-8.453Z" fill="#F2BB19" />
    <path
        d="m225.414 146.658 51.131-5.784-.198 22.5-47.506 5.911c-7.512 1.398-14.364-4.258-14.101-11.631.198-5.72 4.81-10.424 10.674-10.996Z"
        fill="#FFCD2E" />
    <path d="M123.549 195.344c12.453-1.653 17.263 5.911 18.251 12.203.923 6.292-4.81 5.847-4.81 5.847l-13.441-18.05Z"
        fill="#FA849B" />
    <path d="M95.743 208.437h57.39v55.359h-57.39v-55.359Z" fill="#FFCD2E" />
    <path d="M98.445 208.437h57.324v55.359H98.445v-55.359Z" fill="#FFCD2E" />
    <path
        d="M113.995 209.772c-1.45-6.483 2.767-12.966 9.554-14.428 6.72-1.398 13.441 2.669 14.957 9.216 1.515 6.483-2.768 12.966-9.554 14.428-6.721 1.461-13.442-2.67-14.957-9.216Z"
        fill="#FA849B" />
    <path
        d="m138.506 149.709-.593 49.639-22.535-1.017-.593-48.241c-.461-7.309 6.26-13.22 13.771-12.012 5.865.953 10.147 5.911 9.95 11.631Z"
        fill="#FFCD2E" />
    <path
        d="m167.431 128.925-31.1 29.301c-5.073 4.258-12.716 4.068-17.46-.572-5.008-4.767-5.074-12.585-.132-17.479l29.189-31.207c4.744-4.64 12.255-5.402 17.922-1.843 7.907 4.957 8.697 15.826 1.581 21.8Z"
        fill="#FFCD2E" />
    <path
        d="m209.93 116.214-5.798 70.232-56.929-1.78.066-69.215c-.461-3.813 6.655-10.805 10.674-10.551l44.212 2.797c4.547.318 8.039 4.131 7.775 8.517Z"
        fill="#FFCD2E" />
    <path d="m147.203 147.993 12.849-12.076-12.783 32.732-.066-20.656Z" fill="#F2BB19" />
    <path
        d="M201.299 73.757c3.228.317 5.6 3.114 5.271 6.356-.264 3.177-3.097 5.593-6.326 5.275-3.228-.254-5.6-3.115-5.337-6.292a5.943 5.943 0 0 1 6.392-5.34Z"
        fill="#E6728C" />
    <path
        d="m191.547 92.76-.264 13.92c-.131 4.894-3.162 7.436-8.038 7.309-4.085-.063-8.566-2.097-8.302-6.419l1.449-21.864 15.155 7.055Z"
        fill="#FA849B" />
    <path d="M191.415 102.04s-11.794.763-15.22-12.076c-1.055-4.068 15.418 1.398 15.418 1.398l-.198 10.678Z"
        fill="#312725" />
    <path
        d="m170.199 78.46.395-10.932c.791-8.58 9.884-14.81 18.515-14.046a15.51 15.51 0 0 1 14.232 16.334l-.659 14.046c-.395 6.674-7.313 13.03-15.55 12.903-9.883-.89-17.263-8.453-16.933-18.305Z"
        fill="#F8879D" />
    <path d="m194.117 77.697.329 4.577-2.042.063" stroke="#312725" stroke-width=".12" stroke-linecap="round"
        stroke-linejoin="round" />
    <path
        d="M185.156 68.418s3.36-.19 3.36 1.144c0 0 0 .953-2.965 1.08-2.965.127-3.69-.127-3.953-.953-.264-.89 1.976-1.271 3.558-1.271Zm16.868 4.512c-.264.7-1.055 1.017-3.493.763-2.438-.254-2.306-1.08-2.306-1.08.264-1.335 3.031-.954 3.031-.954 1.318 0 3.031.509 2.768 1.271Zm-3.427 2.606c.791 0 1.384.7 1.384 1.462-.066.763-.725 1.398-1.516 1.335-.79-.064-1.383-.7-1.317-1.462 0-.826.724-1.398 1.449-1.335ZM186.21 74.9c.791 0 1.384.7 1.318 1.463 0 .762-.659 1.398-1.45 1.334-.79 0-1.383-.699-1.383-1.462.065-.762.724-1.398 1.515-1.334Z"
        fill="#312725" />
    <path d="M188.121 84.308c.066.254 2.042 2.16 4.744 1.525" stroke="#312725" stroke-width=".12" stroke-linecap="round"
        stroke-linejoin="round" />
    <path
        d="M203.407 63.015c-8.697 4.577-27.278.255-27.278.255 1.383 11.758-3.822 14.364-3.822 14.364l-2.042-.954s-7.248-9.788-5.337-19.64c1.251-6.736 14.034-6.863 22.073-6.291 1.779-6.865 9.817-5.403 12.98-4.132 9.488 3.94 12.124 11.886 3.426 16.398Z"
        fill="#312725" />
    <path
        d="M168.947 72.803c3.163.255 5.535 3.051 5.271 6.23a5.875 5.875 0 0 1-6.325 5.274c-3.163-.317-5.535-3.114-5.272-6.292.33-3.178 3.097-5.53 6.326-5.212Z"
        fill="#F8879D" />
    <path d="M170.265 80.113s.395-4.195-3.69-3.877" stroke="#312725" stroke-width=".12" stroke-linecap="round"
        stroke-linejoin="round" />
    <path
        d="m169.342 105.599 26.422 1.717s.857 8.771-10.938 8.199c-13.178-.7-15.484-9.916-15.484-9.916Zm553.277 212.794-26.092-11.695 9.422-14.173 28.333 13.283-8.303 11.187-3.36 1.398Z"
        fill="#FA849B" />
    <path d="m743.243 305.554-34.461 46.334 3.031-36.419c12.453.254 16.011-15.127 16.011-15.127l15.419 5.212Z"
        fill="#181F42" />
    <path d="m708.782 351.888 34.461-46.334 4.48 3.114-34.394 46.398-4.547-3.178Z" fill="#fff" />
    <path
        d="M711.418 320.236s2.833-1.017 7.116-1.017m-7.907 6.356s2.833-1.017 7.05-1.017m-7.841 6.356s2.768-1.017 7.051-1.017"
        stroke="#fff" stroke-width=".31" stroke-linecap="round" stroke-linejoin="round" />
    <path
        d="m687.302 273.521 24.116 13.983-14.891 25.741s-40.457-20.847-50.999-29.555c-10.543-8.707-5.535-32.923-3.031-44.999 2.504-12.14 19.569-73.474 19.569-73.474l25.236 108.304Z"
        fill="#243B77" />
    <path d="m685.062 360.341-5.337-27.266 17.395-.89 5.337 30h-14.298l-3.097-1.844Z" fill="#FA849B" />
    <path d="M707.86 368.985h-59.103l32.483-18.813c6.985 9.915 22.073 3.75 22.073 3.75l4.547 15.063Z" fill="#181F42" />
    <path d="M648.757 368.985h59.103v5.403h-59.103v-5.403Z" fill="#fff" />
    <path
        d="M677.023 352.587s2.504 1.653 4.942 5.021m-9.949-2.542s2.503 1.653 5.007 5.021m-9.949-2.479s2.438 1.589 4.942 4.958"
        stroke="#fff" stroke-width=".31" stroke-linecap="round" stroke-linejoin="round" />
    <path
        d="M694.155 165.408c16.011 10.233 10.147 43.728 10.147 43.728-1.911 18.051-6.985 34.639-7.314 49.449l8.302 80.464h-29.848l-14.232-71.376c-.593-3.241-.857-6.546-.857-9.915l1.713-92.541 32.089.191Z"
        fill="#2B4183" />
    <path
        d="M650.667 157.082c1.516 8.072-6.655 14.618-14.561 11.694l-47.573-24.342 5.667-9.153 48.758 17.225c3.69 1.271 6.985.889 7.709 4.576Z"
        fill="#FA849B" />
    <path
        d="m594.529 135.726-4.876 8.962c-6.325-.954-13.639.635-17.065-1.271a25.555 25.555 0 0 1-2.174-1.335c-.044-.042-.088-.064-.132-.064h.066c-1.626-1.059-3.251-2.372-4.876-3.94a2.668 2.668 0 0 1-.527-.699c-.396-.827-.198-1.78.593-2.288.044-.043.088-.064.131-.064l-.263-.254a3.36 3.36 0 0 1-.527-.636c-.396-.89-.198-1.779.593-2.351a3.325 3.325 0 0 1 1.12-.382.796.796 0 0 1-.198-.318c-.461-.826-.263-1.779.527-2.288.659-.445 1.516-.508 2.372-.254-.044-.042-.065-.085-.065-.127-.462-.826-.264-1.78.527-2.288 1.054-.699 2.701-.509 3.689.508 5.865 5.721 9.159 5.593 10.675 5.021l-.659-1.144c-.857-1.334-.264-2.86 1.317-3.241 1.187-.254 2.57.127 3.427 1.017l6.325 7.436Z"
        fill="#FA849B" />
    <path d="m517.109 137.633 23.588-51.99 53.832 22.753-23.588 51.991-53.832-22.754Z" fill="#FFCD2E" />
    <path
        d="M586.293 142.146c-4.942-5.403-2.833-11.632-2.833-11.632l-2.438-4.576a1.795 1.795 0 0 1 .263-2.034 1.98 1.98 0 0 1 2.965 0l4.744 5.339-2.701 12.903Zm78.277 11.377-17.724 13.665c-3.558 2.733-8.566 3.05-12.453.699-5.535-3.242-8.896-6.293-4.942-11.187l19.503-19.067 15.616 15.89Z"
        fill="#FA849B" />
    <path d="M678.341 137.124s-2.372 11.25-16.341 21.42l-21.611-19.64 17.46-18.813 20.492 17.033Z" fill="#7041FD" />
    <path
        d="M707.86 144.307c2.899-7.691 13.441-9.407 18.712-2.988 9.95 12.204 31.496 50.911 31.496 50.911l-8.5 5.466-37.491-45.699c-2.504-2.924-5.601-4.195-4.217-7.69Z"
        fill="#FA849B" />
    <path
        d="m749.568 197.696 8.5-5.466c4.941 3.686 11.926 5.593 13.968 8.707.44.678.857 1.398 1.252 2.161l.066.064c.835 1.61 1.56 3.474 2.175 5.593.087.254.131.508.131.762-.066.954-.659 1.653-1.581 1.717-.044.042-.088.042-.132 0a.68.68 0 0 0 .066.317c.088.297.132.572.132.827-.066.889-.659 1.589-1.582 1.716-.395.063-.79-.064-1.186-.191.044.127.066.254.066.381-.066.89-.659 1.653-1.581 1.716-.791.064-1.581-.254-2.174-.826v.127c0 .89-.659 1.589-1.582 1.716-1.186.127-2.504-.826-2.899-2.097-2.24-7.563-5.073-8.898-6.721-9.089l.066 1.271c.066 1.526-1.186 2.543-2.701 2.161-1.12-.318-2.109-1.271-2.438-2.415l-1.845-9.152Zm-43.092-73.855 17.065 14.428c3.427 2.923 4.613 7.627 2.966 11.758-2.373 5.784-4.876 9.47-10.609 6.61l-22.929-15.191 13.507-17.605Z"
        fill="#FA849B" />
    <path d="M684.469 113.735s14.627.254 27.542 11.695l-11.663 20.91-22.864-7.69 6.985-24.915Z" fill="#8155FF" />
    <path
        d="M684.469 113.735c11.003 5.466 20.03 16.271 17.197 27.648-2.833 11.377-7.511 24.025-7.511 24.025l-32.089-.191s-10.41-18.05-10.344-28.093c0-18.368 14.232-22.118 14.232-22.118l18.515-1.271Z"
        fill="#8155FF" />
    <path d="m697.449 155.747-9.686-18.114 12.585 8.707-2.899 9.407Z" fill="#7041FD" />
    <path
        d="m664.768 114.243-3.756-23.707 13.442-2.034 4.941 24.534c.659 4.322-.922 7.182-5.337 7.818-4.48.635-8.631-2.289-9.29-6.611Z"
        fill="#F8879D" />
    <path d="M671.357 93.333s4.348 13.093-7.182 17.542l-1.055-7.818 11.861-8.644" fill="#32292A" />
    <path
        d="m649.415 93.015-2.438-14.682c-.461-4.45 6.721-11.123 11.927-11.568l14.1-.063 2.306 23.644c.725 7.182-5.469 13.665-13.903 14.427-6.984.636-11.464-6.483-11.992-11.758Z"
        fill="#F8879D" />
    <path d="m653.632 93.587-5.534.508c-1.055.064-1.779-.89-1.252-1.716l3.228-7.944 3.558 9.152Z" fill="#F8879D" />
    <path
        d="M656.136 81.575c-.132.826-.79 1.08-3.426 1.207s-2.702-.699-2.702-.699c-.131-1.208 2.9-1.335 2.9-1.335 1.383-.127 3.36.064 3.228.826Zm-3.097 4.957c.132.636-.395 1.271-1.054 1.398-.659.064-1.318-.381-1.449-1.08-.066-.7.395-1.335 1.054-1.398a1.229 1.229 0 0 1 1.449 1.08Z"
        fill="#312725" />
    <path d="M652.051 95.684s2.109 0 3.097-2.351" stroke="#312725" stroke-width=".12" stroke-linecap="round"
        stroke-linejoin="round" />
    <path
        d="m675.376 112.337 9.093 1.398s-9.554 14.936-18.976 11.313c-10.806-4.131 3.558-11.949 3.558-11.949l6.325-.762Z"
        fill="#F8879D" />
    <path
        d="M671.554 85.515c-7.116-1.716-8.433-8.135-8.433-8.135l-18.779 3.559s-2.899-18.05 19.569-21.42c11.267-1.715 18.449 3.496 22.271 8.772 3.624 5.02 3.953 11.567 1.449 17.16-1.779 3.941-6.391 9.534-11.464 12.077l-1.713-9.026s-1.648-2.67-2.9-2.987Z"
        fill="#32292A" />
    <path
        d="M680.581 84.244c-.066 3.178-2.701 5.784-5.93 5.784-3.228 0-5.798-2.67-5.798-5.848.066-3.241 2.701-5.847 5.93-5.784 3.229 0 5.798 2.606 5.798 5.848Z"
        fill="#F8879D" />
    <path d="M672.74 85.579s0-4.195 4.086-3.56" stroke="#312725" stroke-width=".12" stroke-linecap="round"
        stroke-linejoin="round" />
    <path
        d="M710.495 61.109c1.318 7.627-4.019 14.936-11.992 16.207-7.972 1.335-15.484-3.877-16.802-11.568-1.383-7.627 3.954-14.936 11.926-16.207 7.973-1.271 15.485 3.877 16.868 11.568Z"
        fill="#32292A" />
    <path d="M838.585 374.833H.137" stroke="#281F27" stroke-width=".15" />
</svg>