<svg width="490" height="254" viewBox="0 0 490 254" fill="none" xmlns="http://www.w3.org/2000/svg">
    <path
        d="M489.011 246.907s-109.288 6.781-244.111 6.781c-134.822 0-244.11.11-244.11-6.781 0-6.892 109.288-12.479 244.11-12.479 134.823 0 244.111 12.479 244.111 12.479Z"
        fill="#D5D3E0" />
    <path d="M234.034 35.242h15.509v17.805h-15.509V35.242Z" fill="#F0B297" />
    <path d="M249.543 35.242v5.478c-3.86 3.006-9.072 5.038-15.509 5.477V35.242h15.509Z" fill="#D1785E" />
    <path
        d="M251.722 26.32c.413-.59.968-1.126 1.666-1.387.698-.26 1.566-.192 2.136.26.484.399.684 1.003.712 1.593.1 1.757-1.153 3.322-2.492 4.572-.513.466-1.04.933-1.681 1.235-.64.302-1.395.44-2.093.26l1.752-6.534Zm-18.528 6.534c-.684.178-1.439.04-2.079-.261-.641-.302-1.183-.769-1.695-1.236-1.339-1.249-2.592-2.814-2.492-4.57.028-.591.242-1.195.712-1.593.569-.453 1.438-.522 2.136-.261.712.26 1.267.796 1.666 1.387l1.752 6.534Z"
        fill="#F0B297" />
    <path
        d="M242.152 42.463c-4.714 0-10.681-6.356-12.234-9.994-.826-2.1-.142-4.283-.512-6.438-.428-2.608-.812-6.095-1.211-8.62-.797-4.215 2.848-7.921 9.414-9.706 6.536-1.785 13.657.33 16.491 4.063 2.877 3.583 2.207 7.66 1.552 10.035-.911 3.185-2.406 6.397-2.933 11.902-.371 2.402-6.722 8.758-10.567 8.758Z"
        fill="#F0B297" />
    <path
        d="M242.978 28.447a2 2 0 0 1-.143.302c-.057.096-.114.206-.213.247-.1.055-.243.028-.356-.137a.643.643 0 0 1-.114-.302.89.89 0 0 1 .042-.384c.057-.124.128-.247.214-.33a.894.894 0 0 1 .285-.165c.199-.04.327.014.37.11.043.11.014.22 0 .33a1.43 1.43 0 0 1-.085.33Z"
        fill="#F2F2F2" style="mix-blend-mode:soft-light" />
    <path
        d="M241.895 29.093c.048.091.095.169.143.233.114.15.199.274.27.384.128.206.143.343.057.467-.071.123-.213.055-.47-.124-.114-.096-.256-.206-.413-.37a3.631 3.631 0 0 1-.228-.275 3.433 3.433 0 0 1-.213-.33 1.929 1.929 0 0 1-.143-.397 1.46 1.46 0 0 1-.028-.426 1.64 1.64 0 0 1 .228-.673c.099-.164.199-.288.285-.343.085-.055.156-.055.242.014.085.069.128.178.128.316.014.137-.014.302-.029.466a1.037 1.037 0 0 0-.014.412l.029.165c.009.064.023.133.042.206.029.096.072.192.114.274Z"
        fill="#D1785E" />
    <path
        d="M245.797 23.176a5.406 5.406 0 0 1 1.937-.096 5.553 5.553 0 0 1 1.866.576c.584.289.327.865-.257.728a15.942 15.942 0 0 0-3.474-.44c-.599-.013-.713-.63-.072-.768Zm-7.918.714a18.06 18.06 0 0 0-1.752.164c-.579.083-1.153.202-1.723.357-.569.138-.84-.425-.27-.727a5.22 5.22 0 0 1 1.851-.604 5.812 5.812 0 0 1 1.951.041c.627.137.527.741-.057.769Zm-3.204 3.94-.014-1.47c0-.7.598-1.276 1.324-1.29.726 0 1.325.577 1.339 1.277v1.469c0 .7-2.649.714-2.649.014Zm11.777-.014v-1.47c.015-.7.613-1.276 1.339-1.276.726.014 1.325.59 1.325 1.29l-.015 1.47c0 .7-2.649.686-2.649-.014Z"
        fill="#1A1A1A" />
    <path
        d="M238.833 33.046c.043-.137.214-.26.356-.192 2.065.823 4.558.535 6.309-.81.299-.22.712.178.413.398-1.908 1.469-4.614 1.867-6.878.947-.143-.055-.257-.178-.2-.343Z"
        fill="#A33939" />
    <path
        d="M271.118 54.159c1.695 1.276 4.615 3.898 4.785 5.299.171 1.4 5.711 38.752 6.067 41.168.698 4.846-15.352-.123-15.95-3.294-.612-3.157-7.306-26.178-7.306-26.178l6.466-18.285s4.144-.055 5.938 1.29Z"
        fill="#29253B" />
    <path
        d="M262.36 109.096c4.059 24.065.541 68.418-.513 74.953-1.068 6.602-15.209-4.297-15.665-10.955-.171-2.389.484-4.777.498-7.179 0-2.115-.968-4.146-.997-6.274-.313-18.56-4.115-21.154-6.864-32.603l-4.457-17.942h27.998Z"
        fill="#232033" />
    <path
        d="M207.132 247.607c.086-1.249 1.04-2.114 1.937-2.965 2.943-2.791 5.886-5.587 8.83-8.388 0 0 1.766-6.012 2.264-7.824a1.76 1.76 0 0 1 1.951-1.263l4.515.604c.996.123.769 1.331.655 2.306l-.328 13.192c-.755 1.483-3.404 2.951-6.408 4.338 0 0-13.416.041-13.416 0Z"
        fill="#B3B3B3" />
    <path
        d="M228.067 247.799h-25.62c-.2-.274-.314-.549-.299-.782.128-1.661 1.395-2.869 2.236-3.666l10.139-5.381.812-1.62c3.575-.274 8.331 1.84 8.331 1.84l.271 2.992c.218 0 .432-.013.641-.041 3.361-.535 2.335-7.619 2.62-7.577.285.041.869 14.235.869 14.235Z"
        fill="#1A1A1A" />
    <path
        d="M257.717 247.525c-1.039-2.183-1.936-4.174-2.72-6.452l.456-11.93a1.593 1.593 0 0 1 1.624-1.551l3.987.069c.783.014 1.453.59 1.552 1.359a886.39 886.39 0 0 0 1.069 7.124l6.707 8.47c.684.851 1.296 2.938 1.296 2.938l-13.971-.027Z"
        fill="#B3B3B3" />
    <path
        d="m272.571 247.579-.028.22h-20.665s2.991-13.892 3.233-13.892c.257.014-.655 4.722 2.193 5.614.181.055.366.101.556.138l.584-2.581s4.386-1.222 7.448-.522l.626 1.812 4.543 5.725c.627.81 1.596 2.018 1.51 3.486Z"
        fill="#1A1A1A" />
    <path
        d="M248.717 107.724v16.212c-2.82 11.449-8.759 22.884-11.564 34.332-.513 2.073-1.026 4.16-1.026 6.274.015 2.402.67 4.791.513 7.179-.47 6.658-14.925 17.558-16.007 10.955-1.082-6.534-3.133-50.888 1.011-74.952h27.073Z"
        fill="#232033" />
    <path
        d="M218.027 231.903c-.171-9.486 0-18.972.156-28.444l.257-14.29c.114-6.713.527-13.508 3.09-19.836.769-1.895 13.088-6.768 14.598-4.791 0 0 1.025 9.348 1.666 13.576.427 2.773-.143 5.601-.712 8.36-3.119 15.004-4.743 30.407-7.847 45.425h-11.208Zm35.261.796c-3.047-15.004-4.5-29.844-7.533-44.848-.57-2.759-1.125-5.587-.712-8.36.626-4.228 1.637-13.576 1.637-13.576 1.481-1.977 13.53 2.896 14.284 4.79 2.507 6.329 2.906 13.124 3.02 19.837l.256 14.29c.157 9.472.57 18.354.399 27.826l-11.351.041Z"
        fill="#232033" />
    <path
        d="M230.93 117.731h-.898c-2.307-.028-9.185-1.949-10.182-3.459 2.563-12.767.997-20.454-.499-27.895-.854-4.187-1.823-13.26-1.823-13.26-.925-1.675-1.993-14.195-1.21-19.356l17.033-6.905 7.875 2.279h1.595l7.875-2.28 17.019 6.906c.797 5.161-.271 17.68-1.196 19.356 0 0-1.197 9.293-2.293 13.521-1.837 7.138-3.732 14.538-1.154 27.181l.014.055c-.512.741-4.343 2.649-6.209 2.937-5.995.906-25.136.92-25.947.92Z"
        fill="#CFD7E9" />
    <path
        d="m249.671 99.83-7.648 8.621-7.661-8.62 4.671-43.682-2.977-2.786 1.766-4.654 4.201-.357 4.202.357 1.766 4.654-2.977 2.786 4.657 43.681Z"
        fill="#869AC9" />
    <path
        d="m255.396 48.805-7.975 12.108-2.407-11.97-2.991-.59 8.175-5.259 5.198 5.711Zm-21.561-5.711 8.188 5.258-2.99.59-2.407 11.97-7.989-12.107 5.198-5.71Z"
        fill="#E7EBF4" />
    <path
        d="m218.952 52.649 6.48 18.285s-5.326 31.203-6.28 33.371c-.94 2.169-16.392 2.087-15.78-5.779.969-8.154 4.686-37.874 4.871-39.274.171-1.414 3.09-4.036 4.785-5.313 1.78-1.345 5.924-1.29 5.924-1.29Zm48.279 20.838s-4.002 21.566-1.282 41.773c.256 1.908 2.236 11.847 1.025 13.329-1.21 1.483-12.262 2.842-18.257-1.098l.598-44.38 4.799-35.72 15.623 6.095c.926 4.887-2.506 20.001-2.506 20.001Z"
        fill="#29253B" />
    <path
        d="M236.583 129.001c-5.326 3.391-18.371.604-19.254-.604-.869-1.208 1.239-12.052 1.381-13.796 3.39-19.891-1.894-41.114-1.894-41.114s-3.019-15.416-2.093-20.316l15.21-5.78 5.397 35.404L236.583 129Z"
        fill="#29253B" />
    <path
        d="M251.821 20.609a5.188 5.188 0 0 1-1.666-.398c-1.367-.604-2.876-1.016-3.631-2.17-1.026-1.55-.043-3.706-1.496-4.131-2.321-.673-6.935 1.4-8.986.26a3.192 3.192 0 0 1-1.068-.947c-.498.673-1.225 1.263-1.923 1.799-1.267.947-2.663 2.059-2.748 3.5-.057.893.413 1.73.669 2.595.47 1.647-.883 6.548-.883 6.548-.498-.66-1.937-3.157-2.293-4.215-.427-1.221-.213-2.54-.527-3.788-.341-1.346-1.267-2.54-1.538-3.885-.327-1.538.271-3.185 1.51-4.324-.1-.742-.128-1.497-.029-2.238.186-1.606.955-3.198 2.422-4.187 1.31-.878 3.204-1.153 4.671-.549 2.563-2.128 5.582-4.063 9.043-3.734 3.105.302 5.526 2.389 8.388 3.473 1.666.632 3.489.92 5.184 1.524 1.695.604 3.332 1.62 3.902 3.116.285.755.185 1.634-.228 2.334.484.343.869.823.997 1.345.299 1.167-.256 2.347-.897 3.39-.655 1.044-3.461 2.444-3.674 3.611-.257 1.332-2.678 8.127-2.678 8.127l-1.652-7.084c-.285.028-.584.042-.869.028Z"
        fill="#2C1E1C" />
    <path
        d="M258.572 102.26c-3.788-1.112-32.399-10.447-32.399-10.447-.684-2.512 1.31-5.751 1.31-5.751s38.751 3.885 42.824 5.243c4.073 1.36 7.505 10.9 7.348 11.889-.157.988-15.309.192-19.083-.934Z"
        fill="#F0B297" />
    <path d="m228.024 91.882-7.177 2.347V83.29c.498.247 8.302 3.267 8.302 3.267l-1.125 5.326Z" fill="#F0B297" />
    <path
        d="M271.275 90.084c6.58 1.551 9.656 6.74 10.553 10.241.897 3.486-3.589 7.344-14.199 5.188-10.624-2.141-36.486-9.856-36.486-9.856l2.478-11.064s31.075 3.94 37.654 5.49Z"
        fill="#29253B" />
    <path
        d="M208.884 103.592c.043-.989 3.361-12.287 7.633-12.89 4.258-.605 47.751 5.587 47.751 5.587s-1.936 5.765-3.532 6.383c0 0-21.789.796-29.55 1.716-3.931.467-22.345.206-22.302-.796Z"
        fill="#F0B297" />
    <path
        d="M257.931 96.48c.199-.329.498-.59.84-.754 2.435-1.18 6.224-4.791 8.545-5.052.883-.096.797 3.418.527 5.08-.385 2.347 1.239 4.941.854 6.739-.114.563-.256 1.154-.655 1.552-.74.686-1.979.453-3.019.178-2.535-.7-5.241-1.016-7.591-2.251-2.008-1.043-.313-4.2.499-5.491Z"
        fill="#F0B297" />
    <path
        d="M266.86 94.037c2.151-.316 4.159.55 6.338-.123 2.677-.838 2.264-.769 4.443-1.73 1.452-.645 3.304.33 1.937 1.126-3.675 2.114-5.013 3.13-6.238 3.418-1.937.44-3.617.549-6.081.48-1.467-.027-1.851-2.965-.399-3.17Z"
        fill="#F0B297" />
    <path
        d="M266.02 97.332c2.863-.412 5.796.247 8.616-.522 0 0 .968-.384 3.731-1.386 1.837-.673 2.977 1.276 1.125 1.963-2.691.988-3.503 1.647-5.184 2.073-2.207.549-3.403.192-6.864.425-1.965.137-3.347-2.265-1.424-2.553Z"
        fill="#F0B297" />
    <path
        d="M266.191 99.336c2.877-.15 4.557 1.345 7.448.879 2.037-.33 5.042-1.373 5.967-1.579.812-.178 1.467.741.954 1.304 0 0-.897.81-2.065 1.208-.754.247-3.474 1.304-4.115 1.414-1.396.22-4.202-.014-7.135-.549-1.937-.357-3.005-2.595-1.054-2.677Z"
        fill="#F0B297" />
    <path
        d="M265.664 101.519c2.307.357 4.5 1.414 6.864 1.469 1.652.041 3.091-.069 3.86-.096.655-.042 1.039.755.569 1.18 0 0-1.78.316-2.421.343-1.196.028-3.119.357-3.645.343-1.14-.027-2.065.138-4.657-.26-1.567-.247-2.122-3.213-.57-2.979Zm-4.13-6.754s3.133-3.02 4.045-3.858c.74-.686 1.637-1.276 3.318-1.578 2.122-.385 4.956-1.373 4.813.11-.071.74-.726 1.633-1.353 2.004-.626.384-2.079.906-3.161 1.29-.997.357-1.624 1.757-2.692 3.789l-4.97-1.757Z"
        fill="#F0B297" />
    <path
        d="M210.935 105.17c-4.472-.919-5.028-4.324-4.33-8.51.698-4.188 6.153-8.333 9.442-7.949 3.29.398 41.841 4.462 41.841 4.462l-2.492 11.434s-39.99 1.497-44.461.563Z"
        fill="#29253B" />
    <path
        d="M115.831 119.131s-1.623 1.085-3.575-.357c0 0 .114-27.372.713-29.857.598-2.499 4.628-5.34 6.508-3.72 1.652 1.427 2.976 3.088 2.805 6.685-.156 3.597-6.451 27.249-6.451 27.249Z"
        fill="#F2AE83" />
    <path
        d="M117.91 117.937s-.811 5.189-.641 5.916c.171.728 1.952 5.876 1.539 6.741-.413.864-1.638.164-2.137-1.346-.498-1.51-1.652-5.271-1.58-5.916.071-.659-.328-3.144-.243-3.844.086-.714 1.937-3.953 3.062-1.551Z"
        fill="#F2AE83" />
    <path
        d="M115.375 119.969c.784.878.399 4.159.57 4.434.185.26 2.307 3.651 2.891 4.859.584 1.208-.698 1.373-1.823.11-1.139-1.277-2.663-3.748-2.862-4.214-.2-.481-1.709-4.283-1.894-5.299-.186-1.002 1.993-1.153 3.118.11Z"
        fill="#F2AE83" />
    <path
        d="M113.766 119.639c.783.879.712 4.256.897 4.516.185.261 2.906 2.815 3.489 4.036.584 1.208-.697 1.359-1.822.096-1.14-1.262-3.703-3.226-3.903-3.692-.199-.481-.954-4.036-1.139-5.038-.185-1.002 1.353-1.181 2.478.082Z"
        fill="#F2AE83" />
    <path
        d="M118.494 118.06c.029.481-.399 1.497-.982 2.513a42.064 42.064 0 0 0-1.126-.179c-1.395-.206-2.777-.329-4.172-.563-.304-.045-.613-.1-.926-.164-.413-2.622.313-8.676 4.045-7.276 0 0 3.104 4.571 3.161 5.669Z"
        fill="#F2AE83" />
    <path
        d="M115.247 112.364s2.564 1.963 3.418 2.759c.627.563 2.222 2.581 2.45 2.759.213.165-.613 3.706-.869 4.187-.242.467-1.097.316-1.723-.865-.627-1.167-.043-2.924-.043-2.924s-3.318-1.716-4.102-3.034c-.769-1.331.869-2.882.869-2.882Z"
        fill="#F2AE83" />
    <path d="M153.813 20.252c2.748 6.287 3.019 19.191 4.528 32.726l-3.204-.068-2.179-30.791.855-1.867Z"
        fill="#A3400F" />
    <path
        d="M141.622 16.504c8.431-.466 11.82 9.253 11.82 9.253a263.9 263.9 0 0 1 3.077 37.297 109.136 109.136 0 0 1-32.2-.741c0-14.167-1.082-28.334.712-41.155 0 0 8.16-4.187 16.591-4.654Z"
        fill="#A3400F" />
    <path
        d="M166.487 90.413c-.712-.604-9.214-19.589-9.214-19.589.328-3.761 9.485-6.562 9.485-6.562s7.861 19.274 7.932 21.045c.086 1.784-1.31 4.9-2.178 5.875-.926 1.016-4.43.59-6.025-.769Z"
        fill="#F2AE83" />
    <path
        d="M158.071 49.766c1.766.769 4.885 2.444 5.34 3.624.47 1.18 6.623 15.334 9.286 22.225-2.179 4.146-6.922 4.777-11.621 5.82-3.589-4.996-5.113-10.172-7.135-15.924l-1.396-15.663s3.674-.878 5.526-.082Z"
        fill="#29253B" />
    <path
        d="M123.151 162.936c.684-6.466.755-11.243 7.349-11.463 4.457-.151 7.063.316 7.362 4.269 0 0-3.118 20.605-4.514 31.944-1.253 10.227-3.019 29.487-3.931 43.242l-5.54-.233c-.284-4.27-3.489-34.168-4.229-41.814-1.738-18.038 2.848-19.892 3.503-25.945Z"
        fill="#F2AE83" />
    <path
        d="M125.601 159.147c-.015-3.762-6.352-47.799 6.935-44.107 4.187 1.153 12.461 3.171 12.461 3.171l-7.975 42.734c-1.865 5.12-11.393 3.981-11.421-1.798Z"
        fill="#F8A588" />
    <path
        d="M131.781 238.67a11.91 11.91 0 0 1-.213.92l-.67 10.611h-1.41l.057-7.618c-1.253 2.635-.413 7.618-3.66 7.55l-11.279-.289c-1.58-.466 8.873-20.81 8.873-20.81l6.323-2.389s1.937.604 1.965 3.514c.057 3.899.157 7.248.014 8.511Z"
        fill="#92372B" />
    <path
        d="M129.446 224.366c1.068.604 1.025 3.061.968 3.542l-5.013 16.157-4.828-.165c-1.253-.041-2.107-1.221-1.723-2.374.684-2.073 1.681-5.011 2.122-6.356.613-1.84 2.977-7.619 3.532-9.102.555-1.496 3.874-2.32 4.942-1.702Zm14.868-62.954c0-1.922.37-6.136 6.964-6.356 4.457-.151 6.237 1.538 6.536 5.491 0 0 1.795 7.605 4.244 18.011 2.279 9.691-8.459 30.516-6.565 50.009l-5.54-.234c-.285-4.269-1.196-24.929-1.937-32.575a1619.61 1619.61 0 0 0-3.702-34.346Z"
        fill="#F2AE83" />
    <path
        d="M156.348 226.467s3.859 14.345 4.386 16.706c.541 2.361-.328 5.546-1.182 6.424-.84.893-9.058.659-10.795.165s1.168-22.431 1.168-22.431l6.423-.864Z"
        fill="#92372B" />
    <path
        d="M154.169 222.293c1.281.659 2.15 3.295 2.278 3.817l1.866 10.46s.983 4.324-1.225 6.397c-.769.728-7.092.302-7.092.302s-.228-6.96-.313-9.335c-.071-1.976.171-8.209.171-9.815 0-1.606 3.019-2.485 4.315-1.826Z"
        fill="#F2AE83" />
    <path
        d="m144.684 164.006-.37-43.406s8.516-.645 12.845-1.112c13.729-1.469-1.538 38.767-1.367 42.514.214 4.654-10.168 7.358-11.108 2.004Z"
        fill="#F8C8B8" />
    <path
        d="M156.946 86.528c-2.863 9.02-2.094 13.041-2.151 21.374-4.714.796-9.086 1.153-13.5 1.29-4.43-.137-8.802-.494-13.515-1.29-.057-8.332.712-12.355-2.151-21.374-2.065-3.13-8.246-13.947-2.82-19.424 1.524-1.538 5.44-17.475 5.44-17.475h26.076s3.917 15.937 5.441 17.475c5.425 5.477-.755 16.294-2.82 19.424Z"
        fill="#869AC9" />
    <path
        d="M117.739 165.461c1.567-16.102.741-44.326 2.364-49.872 1.638-5.532 5.854-10.117 8.46-14.427 9.798-2.69 16.007-1.853 26.19-1.867 2.691 5.312 8.032 12.588 8.616 17.777.598 5.175 2.278 33.879.527 49.048-3.717 2.252-34.137 1.442-46.157-.659Z"
        fill="#869AC9" />
    <path d="M132.906 38.784h15.367V56.41h-15.367V38.784Z" fill="#F2AE83" />
    <path d="M148.273 38.784v5.422c-3.817 2.98-8.986 4.997-15.367 5.423V38.784h15.367Z" fill="#C2713E" />
    <path
        d="M147.247 51.002c1.14.288 2.308.603 3.233 1.29.94.686 1.581 1.853 1.282 2.951-.214.77-9.043 12.712-10.496 12.712-1.467 0-10.168-10.982-10.154-12.204.028-1.674 2.122-4.53 2.122-4.53l14.013-.22Z"
        fill="#F2AE83" />
    <path
        d="M132.906 48.682c1.197 19.575.513 47.003 0 66.907-.356-.054-14.241-.466-14.241-.466s4.885-10.296 6.309-14.936c1.41-4.626.356-13.096.356-13.096-.741-1.112-3.019-4.777-4.244-8.895-1.452-4.873-.94-8.607 1.524-11.092 1.04-1.043 5.412-17.64 5.412-17.64l4.884-.782Zm28.953 29.514c-1.225 4.118-3.503 7.783-4.244 8.895-2.25 7.166-.342 12.877-.342 12.877 1.068 2.69 6.623 14.359 6.623 14.359-.627.109-14.997.398-15.623.494-3.66-19.603-1.168-46.33 0-66.441l7.363 1.249s3.674 16.432 4.699 17.475c2.464 2.485 2.977 6.219 1.524 11.092Z"
        fill="#29253B" />
    <path
        d="M116.686 93.927c-1.069-.755-3.134-3.514-3.447-5.27-.313-1.758 3.034-22.198 3.034-22.198s9.57.823 10.723 4.434c0 0-4.486 20.522-5.184 21.14-.697.618-3.987 2.704-5.126 1.894Z"
        fill="#F2AE83" />
    <path
        d="m128.833 49.437.242 15.567c-.683 6.053-.085 14.427-2.478 20.055-4.813-.04-10.524-2.69-13.571-6.273 1.053-7.29 3.902-22.39 4.087-23.639.185-1.249 2.449-3.528 4.144-4.406 2.079-1.099 7.576-1.304 7.576-1.304Z"
        fill="#29253B" />
    <path
        d="M149.369 33.458c.385-.563.912-1.071 1.581-1.318.67-.247 1.496-.192 2.037.247.455.37.655.947.683 1.51.1 1.689-1.096 3.185-2.378 4.365-.484.453-.997.893-1.609 1.181-.613.288-1.339.425-1.994.247l1.68-6.232Zm-17.687 6.232c-.655.178-1.382.041-1.994-.247-.612-.288-1.125-.728-1.609-1.18-1.282-1.181-2.464-2.677-2.379-4.366.029-.563.228-1.14.684-1.51.541-.44 1.367-.494 2.036-.247.67.247 1.197.755 1.595 1.318l1.667 6.232Z"
        fill="#F2AE83" />
    <path
        d="M140.226 47.46c-4.486 0-10.196-5.82-11.677-9.143-.784-1.935-.143-3.912-.485-5.889-.413-2.388-2.107-4.53-2.492-6.836-.769-3.857 4.059-8.291 10.325-9.925 6.224-1.634 13.031.302 15.737 3.72 2.748 3.281 2.107 7.001 1.481 9.17-.883 2.91-2.293 5.848-2.806 10.886-.356 2.196-6.408 8.017-10.083 8.017Z"
        fill="#F2AE83" />
    <path
        d="M143.303 30.232a5.27 5.27 0 0 1 1.737-.083 5.5 5.5 0 0 1 1.666.48c.513.248.997.577 1.353 1.003-.555-.137-1.068-.288-1.581-.398a13.386 13.386 0 0 0-1.552-.26 14.55 14.55 0 0 0-1.552-.11c-.541-.015-.641-.522-.071-.632Zm-7.591.548c-.532.02-1.054.06-1.567.124-.512.074-1.02.174-1.523.302-.527.124-1.026.275-1.581.426.342-.44.826-.769 1.339-1.03a5.228 5.228 0 0 1 1.652-.508 5.676 5.676 0 0 1 1.737.042c.57.11.47.617-.057.645Z"
        fill="#1A1A1A" />
    <path
        d="M140.853 36.34c-.043.097-.085.193-.142.289-.043.096-.1.192-.2.233-.085.055-.228.014-.342-.137a.544.544 0 0 1-.099-.288.793.793 0 0 1 .043-.357.796.796 0 0 1 .199-.316.672.672 0 0 1 .27-.151c.186-.055.314.014.357.096.042.11.014.22 0 .316-.029.11-.043.206-.086.316Z"
        fill="#fff" style="mix-blend-mode:soft-light" />
    <path
        d="M139.813 36.958c.048.083.095.156.143.22.1.15.199.26.256.357.128.206.128.343.057.453-.071.123-.213.055-.441-.11-.114-.096-.257-.206-.399-.357a6.678 6.678 0 0 1-.228-.26 9.565 9.565 0 0 1-.199-.316 1.724 1.724 0 0 1-.128-.385.945.945 0 0 1-.029-.398 1.34 1.34 0 0 1 .214-.645.863.863 0 0 1 .27-.33.164.164 0 0 1 .228.014c.086.055.114.165.128.302.015.137-.014.288-.042.44-.01.082-.015.155-.015.22 0 .063.005.123.015.178 0 .045.009.1.028.164.01.055.024.12.043.192a.996.996 0 0 0 .099.261Z"
        fill="#D67344" />
    <path
        d="M143.174 34.103c0-.741 1.083-1.853 1.937-1.853.712 0 1.296.576 1.296 1.263v.604c-.014.686-3.233.714-3.233-.014Z"
        fill="#1A1A1A" />
    <path
        d="M144.812 32.29s.94-.191 1.752.358c.812.549 1.381.247 1.381.247s-.683.618-1.495.247c-.812-.37-1.211-.206-1.211-.206l-.427-.645Zm-12.105 1.827v-.604c0-.687.584-1.263 1.296-1.263.854 0 1.937 1.112 1.937 1.853 0 .727-3.219.7-3.233.014Z"
        fill="#1A1A1A" />
    <path
        d="M133.875 32.936s-.399-.165-1.211.206c-.811.37-1.495-.247-1.495-.247s.57.302 1.381-.247c.812-.55 1.752-.357 1.752-.357l-.427.645Z"
        fill="#1A1A1A" />
    <path
        d="M151.52 25.221c-.029-.316-.057-.508-.086-.549-.37-.425-.64 4.928-.64 4.928-5.868-.563-21.006.247-21.006.247l-.656-5.244c-1.011 1.154-.441 12.602-.441 12.602-1.495-3.94-3.461-10.872-3.745-14.935-.157-2.293 1.751-3.858 3.289-4.132.926-3.775 4.201-5.12 8.175-6.246 4.628-1.29 9.897.096 13.444 3.185 3.56 3.088 5.497 6.52 4.585 10.995-.954 4.668-.569 8.43-3.161 12.287 0 0 .413-10.57.242-13.138Z"
        fill="#A3400F" />
    <path
        d="M141.323 39.374a7.864 7.864 0 0 0 2.834-1.03c-.741 1.332-1.495 2.609-3.617 2.829-2.108.22-3.19-.838-3.632-2.293 1.382.577 2.934.728 4.415.494Z"
        fill="#fff" />
    <path d="m117.597 82.3-4.885.37 25.307-21.455 2.521 1.894C127.936 81.023 117.597 82.3 117.597 82.3Z"
        fill="#856861" />
    <path d="m150.694 106.557-5.284-.028-32.698-23.858 5.355-.55 32.627 24.436Z" fill="#856861" />
    <path d="m128.079 93.2-13.288-9.692 3.347-.343 12.105 9.06-2.164.975Z" fill="#fff" />
    <path d="M117.739 82.163s11.607-12.588 23.057-20.962l27.671 30.022-17.773 15.334-32.955-24.394Z" fill="#B28B81" />
    <path
        d="M141.665 98.306c-3.247 2.554-9.912 1.716-9.869 1.456 1.139-6.713-.086-7.949 1.766-8.498 7.818-2.333 11.692 4.215 8.103 7.043Z"
        fill="#F2AE83" />
    <path
        d="m133.761 94.765-4.742 2.375c-.784.384-1.766.22-2.179-.385-.413-.604-.1-1.427.683-1.812l5.853-2.8c.784-.398 1.168 2.224.385 2.622Z"
        fill="#F2AE83" />
    <path
        d="M126.669 96.165c.009.1.042.197.099.288.285.55.983.81 1.667.645.94-.247 2.022-.933 3.161-1.468.997-.48 1.909-1.044 2.891-1.565-.142.274-.399.521-.726.7l-4.742 2.375c-.784.384-1.766.22-2.179-.385-.114-.192-.186-.384-.171-.59Z"
        fill="#C2713E" />
    <path
        d="m135.085 96.934-4.742 2.375c-.783.398-1.752.22-2.165-.385-.413-.604-.114-1.414.67-1.812l4.742-2.375c.783-.398 1.766-.22 2.179.385.413.604.1 1.427-.684 1.812Z"
        fill="#F2AE83" />
    <path
        d="M127.993 98.334c.01.1.043.201.1.302a1.405 1.405 0 0 0 1.68.631c.94-.33 1.994-.947 3.133-1.496.997-.467 2.521-1.002 2.179-.837l-4.742 2.375c-.783.398-1.752.22-2.165-.385a1.003 1.003 0 0 1-.185-.59Z"
        fill="#C2713E" />
    <path
        d="m136.837 98.76-4.757 2.196c-.797.371-1.766.22-2.179-.316-.398-.535-.085-1.276.713-1.647l4.756-2.21c.783-.357 1.766-.22 2.165.33.399.535.085 1.276-.698 1.647Z"
        fill="#F2AE83" />
    <path
        d="M129.731 100.105c.019.091.052.183.099.274.285.481.983.714 1.667.549.925-.219 2.05-.988 3.19-1.482 1.011-.453 2.492-.851 2.15-.686l-4.757 2.196c-.797.371-1.766.22-2.179-.316a.928.928 0 0 1-.17-.535Z"
        fill="#C2713E" />
    <path
        d="m137.976 100.297-3.688 1.881c-.598.315-1.367.164-1.695-.33-.327-.494-.1-1.153.513-1.469l3.688-1.88c.613-.316 4.201-.742 4.529-.248 0 0 .299.316-3.347 2.046Zm-5.013-6.548s-.27-1.88-2.05-2.361c-1.766-.494-2.307-2.608-.698-2.361 1.609.26 5.711.192 6.75.631 1.04.44 2.592 2.073 2.592 2.073l-6.594 2.018Z"
        fill="#F2AE83" />
    <path
        d="M170.831 92.459c-2.578 1.51-32.413 5.051-32.413 5.051-1.723-1.62-1.083-5.6-1.083-5.6s21.605-9.006 24.866-9.39c3.275-.385 9.67.96 10.054 1.702.385.741 3.731 5.217-1.424 8.237Z"
        fill="#F2AE83" />
    <path d="M408.675 35.352h15.523v17.791h-15.523v-17.79Z" fill="#D1785E" />
    <path d="M424.198 35.352v5.478c-3.859 3.006-9.071 5.037-15.523 5.463v-10.94h15.523Z" fill="#84422E" />
    <path
        d="M442.883 52.621c1.908.947 5.283 3.007 5.725 4.366.427 1.345 13.045 37.064 13.842 39.384 1.61 4.64-13.899 5.601-15.095 2.594-1.211-2.992-13.401-27.427-13.401-27.427l2.848-19.123s4.059-.796 6.081.206Z"
        fill="#29253B" />
    <path
        d="M437.001 109.192c4.073 24.078.556 68.432-.498 74.966-1.068 6.603-15.21-4.296-15.666-10.954-.171-2.403.485-4.777.485-7.18.014-2.114-.883-4.145-.997-6.273-.769-15.457-4.971-21.264-7.733-32.713l-3.575-17.846h27.984Z"
        fill="#232033" />
    <path
        d="M381.788 247.703c.085-1.236 1.039-2.1 1.937-2.951l8.815-8.388s1.766-6.013 2.279-7.825c.227-.851 1.053-1.386 1.951-1.263l4.514.604c.983.124.769 1.318.655 2.307l-.342 13.178c-.74 1.496-3.389 2.965-6.394 4.338 0 0-13.415.041-13.415 0Z"
        fill="#B3B3B3" />
    <path
        d="M402.722 247.909h-25.634c-.199-.275-.299-.549-.285-.783.114-1.661 1.382-2.869 2.222-3.665l10.14-5.381.826-1.634c3.574-.26 8.331 1.854 8.331 1.854l.256 2.992c.219 0 .437-.018.655-.055 3.347-.521 2.336-7.605 2.621-7.564.285.042.868 14.236.868 14.236Z"
        fill="#1A1A1A" />
    <path
        d="M432.359 247.634c-1.026-2.182-1.937-4.173-2.706-6.452l.455-11.929a1.58 1.58 0 0 1 1.61-1.551l4.001.069c.784.013 1.439.59 1.553 1.359a897.169 897.169 0 0 0 1.068 7.124l6.693 8.456c.684.865 1.296 2.952 1.296 2.952l-13.97-.028Z"
        fill="#B3B3B3" />
    <path
        d="M447.212 247.689c0 .073-.004.147-.014.22H426.52s2.99-13.892 3.247-13.892c.256 0-.67 4.722 2.193 5.614.18.055.365.101.555.137l.57-2.58s4.386-1.222 7.462-.536l.627 1.826 4.529 5.724c.641.797 1.609 2.018 1.509 3.487Z"
        fill="#1A1A1A" />
    <path
        d="M423.358 107.82v16.226c-2.805 11.448-8.744 22.883-11.564 34.332-.498 2.073-1.011 4.159-1.011 6.274 0 2.402.669 4.777.498 7.179-.455 6.658-14.91 17.557-16.007 10.955-1.082-6.535-3.133-50.888 1.026-74.966h27.058Z"
        fill="#232033" />
    <path
        d="M392.682 231.999c-.171-9.472-.014-18.958.157-28.43l.256-14.29c.114-6.713.527-13.508 3.091-19.837.754-1.894 13.073-6.767 14.597-4.79 0 0 1.025 9.334 1.666 13.562.427 2.787-.156 5.601-.726 8.374-3.105 15.004-4.728 30.407-7.833 45.411h-11.208Zm35.248.81c-3.034-15.018-4.486-29.844-7.534-44.848-.555-2.773-1.111-5.587-.698-8.374.627-4.228 1.624-13.563 1.624-13.563 1.495-1.976 13.543 2.897 14.298 4.791 2.506 6.329 2.905 13.124 3.019 19.836.086 4.759.166 9.523.242 14.291.171 9.472.584 18.353.399 27.825l-11.35.042Z"
        fill="#232033" />
    <path
        d="M405.571 117.841h-.883c-2.307-.028-9.186-1.963-10.183-3.46 2.564-12.766.997-20.454-.513-27.894-.84-4.187-1.808-13.26-1.808-13.26-.926-1.675-1.994-14.195-1.211-19.37l17.019-6.891 7.889 2.278h1.581l7.89-2.278 17.018 6.89c.784 5.176-.285 17.696-1.21 19.37 0 0-1.197 9.294-2.279 13.508-1.837 7.152-3.731 14.551-1.153 27.181v.068c-.513.742-4.33 2.65-6.195 2.938-5.996.906-25.151.92-25.962.92Z"
        fill="#CFD7E9" />
    <path
        d="m424.327 99.94-7.662 8.621-7.648-8.62 4.657-43.682-2.976-2.787 1.78-4.653 4.187-.357 4.201.357 1.78 4.653-2.976 2.787 4.657 43.681Z"
        fill="#869AC9" />
    <path
        d="m430.052 48.915-7.99 12.108-2.392-11.97-3.005-.591 8.188-5.258 5.199 5.71Zm-21.562-5.711 8.175 5.258-2.991.59-2.392 11.97-7.99-12.107 5.198-5.71Z"
        fill="#E7EBF4" />
    <path
        d="M379.011 137.169s.014-6.26.071-7.125c.043-.864 2.592-3.527 3.204-3.679.869-.192 4.714.261 4.714.261s1.51 3.062 2.065 4.997c.555 1.936-3.461 5.354-3.461 5.354l-6.593.192Z"
        fill="#D1785E" />
    <path
        d="M387.855 129.688s2.307 2.114 2.876 2.786c.57.659.413 1.716-.071 3.212-.598 1.881-1.737 4.942-3.005 4.407-.626-.261-.356-1.469-.413-2.114-.057-.631.114-1.991.257-3.006.128-.934-.841-1.854-2.179-3.336l2.535-1.949Z"
        fill="#D1785E" />
    <path
        d="M392.896 187.192c0 3.171-12.404 3.308-12.404.302 0-3.02 3.66-46.248 3.66-46.248l5.54.288s3.204 42.473 3.204 45.658Z"
        fill="#1A1A1A" />
    <path
        d="M392.241 176.471c.384 5.56.655 9.788.655 10.721 0 3.171-12.404 3.308-12.404.302 0-2.457 2.421-31.422 3.318-42.226.199.467.456.92.513 1.428.755 8.333-.242 16.089.285 25.972-.2.769-1.439.261-1.453.906-.057 3.789-.997 7.194.498 11.037.798 2.032 6.751 3.213 7.449 1.579 1.21-2.924 1.139-9.719 1.139-9.719Z"
        fill="#000" />
    <path
        d="M382.471 172.215s-2.549 1.03-3.062 0c-.598-1.18.499-22.938 1.425-26.645.313-1.221.64-2.498 1.381-3.404.741-.906 2.037-1.29 2.863-.494l-2.607 30.543Z"
        fill="#1A1A1A" />
    <path
        d="M380.52 170.87c.228.041.385.316.314.522-.043.151-.1.302-.114.453v.027c0 .028-.005.06-.015.096v.234c.01.082.015.16.015.233.014.096-.015-.082.014.014 0 .036.005.073.014.11.029.146.067.288.114.425a.556.556 0 0 1 .043.11c.043.11-.029-.082.014.027.038.074.076.142.114.206.066.128.147.252.242.371-.071-.082.014.014.029.027a.582.582 0 0 1 .071.083c.047.055.099.105.156.151a.976.976 0 0 0 .1.082c.014.014.1.083.014.014l.2.137a.437.437 0 0 1 .171.59c-.114.206-.413.275-.613.151-1.281-.768-1.908-2.388-1.438-3.761a.467.467 0 0 1 .555-.302Zm2.635-28.059V135c0-1.51 1.282-2.745 2.848-2.745 1.567 0 2.849 1.235 2.849 2.745v7.811h-1.396V135c0-.769-.641-1.4-1.453-1.4-.797 0-1.452.631-1.452 1.4v7.811h-1.396Z"
        fill="#CCC" />
    <path
        d="M387.954 131.898c-.142 1.729-.228 3.967-.171 5.669.029.481.1 1.922-.085 2.279-.456.878-1.125 1.016-1.823.961-.385-.028-.812-.083-1.054-.357-.199-.233-.214-.563-.214-.879-.028-2.388.157-5.147.485-7.55l2.862-.123Z"
        fill="#D1785E" />
    <path
        d="M385.604 131.843a39.306 39.306 0 0 0-.128 5.161c.014.467.513 2.636-.156 2.924-.698.302-1.069.371-1.766.316-.385-.041-.812-.082-1.04-.357-.199-.233-.214-.563-.228-.878a51.247 51.247 0 0 1 .456-7.207l2.862.041Z"
        fill="#D1785E" />
    <path
        d="M383.098 130.813a48.737 48.737 0 0 0-.157 5.175c0 .467.413 2.636-.171 2.924-.598.289-.925.357-1.523.302-.328-.041-.698-.096-.898-.356-.171-.234-.171-.577-.171-.893 0-2.388.157-4.791.456-7.193l2.464.041Z"
        fill="#D1785E" />
    <path
        d="M381.432 130.223a49.432 49.432 0 0 0-.171 5.038c.014.453-.029 3.198-1.567 3.116-.313-.014-.641-.082-.826-.343-.156-.233-.171-.549-.171-.865.015-2.32.171-4.654.456-6.987l2.279.041Z"
        fill="#D1785E" />
    <path
        d="m393.608 52.759 3.475 18.257s-5.44 53.73-6.38 55.899c-.954 2.169-13.287 4.914-12.689-2.952.968-8.154 4.699-63.201 4.87-64.615.185-1.4 3.091-4.022 4.785-5.299 1.795-1.345 5.939-1.29 5.939-1.29Zm48.264 20.838s-3.988 21.566-1.268 41.773c.257 1.908 2.236 11.847 1.012 13.329-1.211 1.483-12.262 2.842-18.258-1.098l.613-44.395 4.799-35.705 15.623 6.095c.925 4.887-2.521 20.001-2.521 20.001Z"
        fill="#29253B" />
    <path
        d="M411.225 129.111c-5.312 3.391-18.372.604-19.24-.604-.869-1.208 1.224-12.053 1.381-13.796 3.389-19.905-1.908-41.114-1.908-41.114s-3.005-15.43-2.08-20.317l15.196-5.779 5.412 35.403 1.239 46.207Z"
        fill="#29253B" />
    <path
        d="M454.789 111.183c-2.137 2.43-19.141 20.646-19.141 20.646-2.706-.027-5.397-2.1-5.397-2.1s14.284-26.426 16.733-29.02c2.464-2.581 12.917-3.048 13.857-2.746.954.316-3.916 10.79-6.052 13.22Z"
        fill="#D1785E" />
    <path d="m436.218 130.539-.157 4.241s-8.459-2.951-9.114-4.049c-.655-1.098 4.529-3.267 4.529-3.267l4.742 3.075Z"
        fill="#D1785E" />
    <path
        d="M446.443 97.002c3.318-4.31 10.268-5.271 13.985-3.143 3.204 1.853 3.689 6.246-1.31 13.274-4.999 7.029-18.101 23.598-18.101 23.598l-10.595-5.601s12.703-23.831 16.021-28.128Z"
        fill="#29253B" />
    <path
        d="M426.975 26.374c.442-.617 1.012-1.166 1.752-1.441.741-.275 1.652-.22 2.25.274.499.399.712 1.044.755 1.662.1 1.853-1.21 3.5-2.62 4.804-.542.494-1.111.975-1.781 1.304-.669.316-1.466.467-2.193.261l1.837-6.864Zm-19.467 6.864c-.727.206-1.524.055-2.194-.26-.669-.33-1.239-.81-1.78-1.305-1.41-1.304-2.72-2.951-2.62-4.804.043-.618.256-1.263.755-1.662.598-.494 1.509-.549 2.25-.274.74.274 1.31.824 1.751 1.441l1.838 6.864Z"
        fill="#D1785E" />
    <path
        d="M416.921 43.355c-4.956 0-11.236-6.685-12.86-10.501-.869-2.224-.157-4.503-.541-6.782-.456-2.732-.855-6.41-1.268-9.06-.84-4.434 2.991-8.319 9.898-10.2 6.85-1.866 14.341.358 17.332 4.27 3.019 3.775 2.321 8.058 1.638 10.556-.969 3.35-2.535 6.713-3.091 12.506-.398 2.512-7.063 9.211-11.108 9.211Z"
        fill="#D1785E" />
    <path
        d="M417.605 29.545c-.043.124-.086.22-.143.33-.071.096-.128.206-.228.26-.099.056-.256.014-.37-.15a.579.579 0 0 1-.128-.316.8.8 0 0 1 .057-.398.843.843 0 0 1 .214-.343.687.687 0 0 1 .299-.179c.199-.055.341.014.384.124.057.11.029.22 0 .343-.014.11-.043.22-.085.33Z"
        fill="#F2F2F2" style="mix-blend-mode:soft-light" />
    <path
        d="M416.465 30.232c.048.091.1.174.157.247.114.165.214.288.285.398.128.22.142.37.057.494-.086.137-.228.069-.484-.123a3.63 3.63 0 0 1-.442-.399 1.93 1.93 0 0 1-.242-.288 2.113 2.113 0 0 1-.228-.343 2.313 2.313 0 0 1-.142-.412 1.225 1.225 0 0 1-.043-.453 1.86 1.86 0 0 1 .242-.714c.1-.178.214-.288.299-.357.086-.055.171-.055.257.014.085.069.128.192.142.343.014.138-.014.316-.043.48l-.028.234c0 .082.004.151.014.206.014.055.014.11.028.178.019.055.038.124.057.206a.89.89 0 0 0 .114.289Z"
        fill="#84422E" />
    <path
        d="M420.496 23.148a6.051 6.051 0 0 1 2.05-.096 6.13 6.13 0 0 1 1.966.59c.612.316.341.92-.271.77a21.153 21.153 0 0 0-1.823-.33 17.523 17.523 0 0 0-1.837-.124c-.627-.013-.74-.659-.085-.81Zm-8.317.755c-.617.019-1.23.074-1.837.165a21.41 21.41 0 0 0-1.809.37c-.612.152-.883-.439-.285-.754a5.827 5.827 0 0 1 1.951-.646 5.979 5.979 0 0 1 2.037.055c.669.138.569.783-.057.81Zm-3.361 4.132-.014-1.537c0-.742.626-1.346 1.381-1.36.769 0 1.41.605 1.41 1.346l.014 1.538c0 .74-2.791.755-2.791.013Zm12.375-.013.015-1.538c0-.741.626-1.345 1.395-1.345.769.014 1.396.617 1.396 1.359l-.014 1.537c0 .742-2.792.728-2.792-.013Z"
        fill="#1A1A1A" />
    <path
        d="M413.19 33.54a28.353 28.353 0 0 0 7.021-1.551 4.144 4.144 0 0 1-.527 2.814c-1.339.357-3.204.563-4.116.563-.897 0-2.008-1.36-2.378-1.826Z"
        fill="#fff" />
    <path
        d="M435.976 22.188c.043.356-.1.713-.299 1.002a1.723 1.723 0 0 1-.185.178c-.114 1.551-1.41 2.43-2.806 2.87.171.658-.171 1.29-.826 1.564-.527.22-1.182 0-1.538-.412-1.082-.123-2.179-1.016-2.207-2.251-.741-.796-.855-1.895-.456-2.8-.413-.495-.684-1.112-.669-1.813a2.477 2.477 0 0 1 1.182-2.086 2.94 2.94 0 0 1-.841-2.004c-1.509-.467-2.634-1.689-2.677-3.185-1.04-.275-1.923-.824-2.307-1.675-.94.206-2.051-.123-2.863-.81-1.367.55-2.933.783-4.087.137-.854.55-1.951.646-3.047.399-.656 1.29-2.194 1.921-3.646 1.62a3.66 3.66 0 0 1-1.325 1.62c.072.274.1.576.072.864-.086.769-.485 1.345-1.04 1.757a3.04 3.04 0 0 1-.299 2.1c.513.522.826 1.181.783 2.018-.043 1.085-.655 1.854-1.481 2.362.029.892-.114 1.77-.385 2.635-.227.728-1.21.989-1.837.714-.683-.288-.897-.975-.754-1.634-2.08.33-4.059-1.29-4.301-3.308-.072-.563.171-.974.527-1.208a3.378 3.378 0 0 1-.228-2.663c-.057-.014-.114-.041-.185-.055-.727-.192-1.282-.769-1.154-1.578.057-.344.285-.687.584-.907a1.443 1.443 0 0 1-.043-1.166c.185-.453.655-.755 1.154-.81a6.782 6.782 0 0 1-.598-.412c-.584-.467-.641-1.263-.214-1.84.413-.549 1.282-.617 1.837-.247.185-.33.513-.576.897-.686a1.519 1.519 0 0 1-.028-.44c.085-.727.84-1.235 1.552-1.152-.299-.88.285-2.073 1.481-1.867.399.073.798.141 1.197.205-.057-.205-.086-.411-.057-.631.042-.247.142-.453.299-.618a4.66 4.66 0 0 1-.214-.878c-.1-.728.513-1.332 1.211-1.442a1.25 1.25 0 0 1 .897.234c0-.156.005-.316.014-.48.057-.728.869-1.168 1.552-1.085.684.068 1.083.645 1.125 1.249a.166.166 0 0 0 .043-.069c.1-.11.214-.22.342-.288l-.143-.192c-.441-.604-.284-1.387.3-1.826.526-.412 1.352-.288 1.794.179a1.45 1.45 0 0 1 .541-.371c.712-.26 1.438.123 1.738.769.047.091.094.187.142.288-.029-.563.271-1.057.854-1.29.641-.275 1.539.096 1.752.755a.83.83 0 0 0 .043.137c.047-.183.095-.37.142-.563.171-.686.769-1.194 1.553-1.084.569.096 1.11.617 1.153 1.18a1.34 1.34 0 0 1 .983-.22 1.35 1.35 0 0 1 1.125 1.112c.513-.48 1.267-.645 1.865-.178.2.165.356.384.442.645.047-.064.095-.123.142-.178.47-.577 1.325-.632 1.909-.206.341.233.498.617.498 1.002.171.137.299.316.356.522.01.054.019.105.029.15a.52.52 0 0 1 .071-.082c.456-.59 1.324-.618 1.908-.206.598.426.627 1.29.214 1.84a6.535 6.535 0 0 0-.2.26c.038.055.067.11.086.165a.436.436 0 0 1 .057.151c.332-.274.66-.553.982-.837.584-.48 1.482-.22 1.909.288.484.59.228 1.387-.313 1.826l-.599.522c.095.137.176.279.242.425a1.415 1.415 0 0 1 1.724.824c.185.425.085.92-.171 1.29.123.092.247.197.37.316.598.618.769 1.345.669 2.087.57.137 1.012.604 1.097 1.208.028.22-.014.453-.1.658.371.44.627.975.67 1.593a2.678 2.678 0 0 1-.299 1.455c.313.233.527.576.583.988.057.37-.071.728-.313 1.002.019.165.024.33.014.495-.042.466-.156.878-.37 1.249.228.206.356.535.399.823Z"
        fill="#2C1E1C" />
    <path
        d="M350.913 87.778c-1.553 4.873 2.179 11.105.028 13.823-2.136 2.718-2.165 7.372-2.165 7.372-4.671.782-9 1.153-13.386 1.276-4.387-.123-8.716-.494-13.387-1.276 0 0 .555-4.118-1.738-6.823-3.161-3.72 1.595-12.286-.128-17.695-2.051-3.102-8.431-10.487-3.062-15.923 1.51-1.51 3.917-17.31 3.917-17.31h28.796s2.406 15.8 3.916 17.31c5.383 5.436-.741 16.157-2.791 19.246Z"
        fill="#CFD7E9" />
    <path
        d="M322.117 30.561c.299-3.528 3.247-11.215 13.686-10.858 10.438.357 12.703 10.858 12.703 10.858l-2.293 17.791-25.549.426s1.154-14.689 1.453-18.217Z"
        fill="#5F2C29" />
    <path
        d="M300.498 89.974c-.754-1.043-1.766-4.27-1.481-6.013.285-1.743 10.254-19.877 10.254-19.877s8.701 3.748 8.573 7.495c0 0-9.883 18.381-10.738 18.752-.868.357-5.824.755-6.608-.357Z"
        fill="#F0B297" />
    <path
        d="m324.851 51.44-3.09 15.266c-2.663 5.45-5.797 13.247-9.015 18.024-4.5-1.524-10.268-3.02-11.92-7.33 3.404-6.507 12.418-22.527 13.002-23.653.598-1.112 3.091-1.661 4.914-2.21 1.908-.59 6.109-.096 6.109-.096Z"
        fill="#CFD7E9" />
    <path
        d="M358.674 91.964c-.826-.453-8.659-19.726-8.659-19.726.299-3.734 9.343-6.59 9.343-6.59s7.946 19.04 8.046 20.798c.1 1.77-1.267 4.873-2.122 5.834-.911 1.016-5.782.124-6.608-.316Z"
        fill="#F0B297" />
    <path
        d="M350.87 51.523c1.752.741 4.614 2.21 5.084 3.39.456 1.168 8.773 18.478 11.45 25.287-2.108 4.118-9.1 4.571-13.743 5.628 0 0-4.941-13.15-6.992-18.834l-1.424-15.485s3.788-.768 5.625.014Z"
        fill="#CFD7E9" />
    <path d="M323.413 207.852a957.063 957.063 0 0 0-3.703 21.717l-5.469-.233c.057-2.279-.071-11.888-.185-21.484h9.357Z"
        fill="#F0B59C" />
    <path
        d="M321.504 238.19c-.028.233-.114.549-.213.92l-.655 10.515h-1.396l.057-7.55c-1.253 2.608-.413 7.55-3.632 7.481l-11.179-.288c-1.567-.453 8.787-20.619 8.787-20.619l6.28-2.375s1.909.591 1.937 3.487c.057 3.871.157 7.193.014 8.429Z"
        fill="#5D2A46" />
    <path
        d="M319.197 224.009c1.054.604 1.011 3.034.954 3.515l-3.489 15.978-6.622-.137c-1.068-.041-1.794-1.043-1.467-2.004.698-2.073 1.752-5.23 2.222-6.644.598-1.812 2.948-7.537 3.503-9.019.541-1.483 3.845-2.293 4.899-1.689Zm25.862 4.599-5.497-.233c-.156-2.348-.498-9.706-.911-17.077h7.391c-.997 5.669-1.538 11.544-.983 17.31Z"
        fill="#F0B59C" />
    <path
        d="M345.9 226.535s3.816 14.208 4.358 16.542c.526 2.347-.342 5.669-1.182 6.548H338.38c-1.737-.494 1.154-22.239 1.154-22.239l6.366-.851Z"
        fill="#5D2A46" />
    <path
        d="M343.735 222.389c1.282.659 2.136 3.268 2.264 3.776l1.852 10.378s.982 4.296-1.211 6.342c-.769.713-7.035.288-7.035.288s-.228-6.878-.299-9.239c-.071-1.963.157-8.126.157-9.733 0-1.592 2.99-2.47 4.272-1.812Z"
        fill="#F0B59C" />
    <path d="M327.087 40.472h15.238v17.462h-15.238V40.472Z" fill="#F0B297" />
    <path d="M342.325 40.472v5.368c-3.802 2.965-8.915 4.956-15.238 5.381V40.473h15.238Z" fill="#D1785E" />
    <path
        d="m334.692 57.934 6.864-5.01.854-4.256s1.51 1.853 1.553 2.924c.057 1.057 0 11.352 0 11.352s-4.159-3.775-4.985-4.42c-.826-.645-4.286-.59-4.286-.59Z"
        fill="#E7EBF4" />
    <path
        d="M330.419 58.524c-.826.645-4.984 4.42-4.984 4.42s-.057-10.295 0-11.352c.043-1.07 1.552-2.924 1.552-2.924l.869 4.255 6.85 5.01s-3.461-.054-4.287.591Z"
        fill="#E7EBF4" />
    <path
        d="m337.312 103.097 1.467 26.261-7.576 3.309s-.029 31.188-2.607 34.881c-4.785 6.85-17.046-2.965-17.046-2.965s.569-32.85.498-36.996c-.071-4.132 8.217-25.437 8.217-25.437l17.047.947Z"
        fill="#29253B" />
    <path
        d="M310.083 177.047c-.057-4.461 1.467-12.464 1.865-17.063.399-4.598 17.09-5.354 17.702-1.977.627 3.364-1.182 12.767-2.236 20.125-1.039 7.358-2.862 40.963-3.731 44.532-.869 3.569-12.432 0-12.432 0s-1.097-41.155-1.168-45.617Zm41.214-74.856s6.138 24.367 5.625 28.499c-.526 4.145-3.702 33.934-3.702 33.934s-13.33 9.829-17.36 2.965c-2.179-3.692 1.452-39.576 1.452-39.576l-5.867.041 2.706-24.915 17.146-.948Z"
        fill="#29253B" />
    <path
        d="M347.196 222.705s-11.935 3.569-12.419 0 1.353-37.16 1.097-44.518c-.242-7.372-1.026-16.775-.043-20.138.983-3.364 17.588-2.609 17.488 1.976-.099 4.599.556 12.602.015 17.064-.556 4.461-6.138 45.616-6.138 45.616Z"
        fill="#29253B" />
    <path
        d="M305.839 84.73c.74-.082 4.343 3.583 5.639 6.054 1.282 2.457 3.874 21.964 3.874 21.964s-.769 2.869-2.236 3.679c0 0-14.127-25.643-13.985-30.256.071-2.525 5.967-1.345 6.708-1.44Z"
        fill="#F0B297" />
    <path
        d="m314.768 108.232 2.92 2.58s1.367.371 3.289.742c1.923.384.641 2.498-3.104 1.798l.911 2.004s-1.951 5.93-3.802 5.464c0 0-2.877-5.313-3.432-8.333-.556-3.02 2.349-5.01 3.218-4.255Zm52.422-20.097c.67 8.03-13.201 28.292-13.201 28.292-1.481-.81-2.236-3.679-2.236-3.679s3.29-19.617 4.571-22.088c1.282-2.457 4.187-6.012 4.928-5.93.755.096 5.739.892 5.938 3.404Z"
        fill="#F0B297" />
    <path
        d="M355.555 112.487c-.555 3.02-1.068 8.305-1.068 8.305-1.851.467-5.995-5.052-5.995-5.052l.74-2.388c-3.76.7-5.027-1.414-3.104-1.798a53.158 53.158 0 0 0 3.289-.742l2.92-2.58c.854-.755 3.774 1.235 3.218 4.255Z"
        fill="#F0B297" />
    <path d="M352.579 105.665c-18.272 5.079-34.065 0-34.065 0l1.096-3.968c11.593 1.387 32.143 0 32.143 0l.826 3.968Z"
        fill="#7A3440" />
    <path
        d="M337.739 108.177h-4.258c-.868 0-1.595-.687-1.595-1.538v-3.404c0-.851.727-1.538 1.595-1.538h4.258c.869 0 1.595.687 1.595 1.538v3.404c0 .851-.726 1.538-1.595 1.538Z"
        fill="#C69C6D" />
    <path
        d="M349.09 23.725c-.057 1.194-.057 2.402.071 3.597.071.59.185 1.166.342 1.73.114.397.342.713.612 1.001.513.55 1.139 1.016 1.567 1.634.484.7.598 1.647.612 2.47 0 .907-.171 1.827-.541 2.664-.37.865-.94 1.551-1.495 2.293-.271.357-.527.74-.656 1.18-.156.494-.128 1.016 0 1.51.228.988.784 1.853 1.168 2.787.356.81.57 1.688.385 2.567-.157.741-.613 1.441-1.353 1.757-.328.151-.627-.33-.285-.48.812-.344 1.154-1.222 1.139-2.032-.014-1.057-.612-2.032-1.054-2.965-.427-.893-.783-1.867-.64-2.856.113-.906.683-1.62 1.239-2.306.569-.727 1.025-1.496 1.281-2.375.242-.85.299-1.77.157-2.635-.071-.398-.142-.81-.356-1.154a4.16 4.16 0 0 0-.684-.81c-.527-.507-1.139-.988-1.467-1.647-.199-.398-.284-.85-.37-1.29-.1-.494-.171-1.002-.213-1.51-.1-1.043-.086-2.087-.029-3.13.014-.357.584-.357.57 0Z"
        fill="#7F3B37" />
    <path
        d="M344.86 32.085c.399-.576.94-1.098 1.624-1.345.683-.261 1.523-.206 2.079.247.47.384.669.975.698 1.551.099 1.716-1.125 3.24-2.436 4.462-.484.453-1.011.906-1.637 1.208-.627.288-1.368.425-2.037.247l1.709-6.37Zm-18.086 6.37c-.67.178-1.41.04-2.037-.247-.612-.302-1.139-.755-1.638-1.209-1.31-1.221-2.535-2.745-2.435-4.46.029-.578.228-1.168.698-1.552.555-.453 1.396-.508 2.079-.247.698.247 1.225.769 1.624 1.345l1.709 6.37Z"
        fill="#F0B297" />
    <path
        d="M335.518 47.844c-4.6 0-10.425-6.218-11.934-9.76-.812-2.06-.143-4.173-.499-6.287-.427-2.54-2.165-4.832-2.549-7.29-.783-4.118 4.144-8.099 10.553-9.842 6.366-1.73 13.315.33 16.092 3.967 2.806 3.5 2.151 6.727 1.51 9.047-.897 3.102-2.35 6.232-2.862 11.6-.357 2.347-6.566 8.565-10.311 8.565Z"
        fill="#F0B297" />
    <path
        d="M338.665 29.422a5.087 5.087 0 0 1 3.39.426c.512.26.982.617 1.352 1.084a31.696 31.696 0 0 0-1.58-.44 14.7 14.7 0 0 0-3.105-.384c-.527-.013-.627-.563-.057-.686Zm-7.562.59c-.522.018-1.04.064-1.552.137-.513.074-1.026.179-1.538.316-.513.124-1.012.302-1.567.467.356-.48.826-.837 1.324-1.112a5.064 5.064 0 0 1 1.652-.535 5.282 5.282 0 0 1 1.738.04c.555.11.47.66-.057.687Z"
        fill="#7F3B37" />
    <path
        d="M336.159 35.023a2 2 0 0 1-.143.302c-.057.096-.114.192-.213.247-.086.041-.228.014-.342-.137a.643.643 0 0 1-.114-.302.853.853 0 0 1 .043-.371c.057-.124.128-.233.213-.316a.719.719 0 0 1 .271-.164c.185-.042.327.013.356.11.057.095.028.219.014.315-.028.11-.057.206-.085.316Z"
        fill="#F2F2F2" style="mix-blend-mode:soft-light" />
    <path
        d="M335.09 35.654c.048.092.1.17.157.234.1.15.185.26.256.37.129.206.129.343.057.453-.071.124-.213.069-.455-.11a7.947 7.947 0 0 1-.413-.37 2.217 2.217 0 0 1-.228-.261c-.067-.1-.133-.21-.2-.33-.056-.123-.113-.247-.142-.384a1.33 1.33 0 0 1-.028-.412c.028-.274.128-.494.227-.659a.873.873 0 0 1 .271-.33c.085-.054.157-.068.242 0 .086.07.114.18.128.317.015.137-.014.302-.042.453-.01.082-.015.155-.015.22v.191c.01.046.019.097.029.151.019.065.038.133.057.206.014.096.057.179.099.261Z"
        fill="#D1785E" />
    <path
        d="m328.269 34.158-.014-1.455c0-.714.598-1.29 1.324-1.29.726 0 1.325.562 1.325 1.276l.014 1.455c0 .7-2.649.714-2.649.014Z"
        fill="#1A1A1A" />
    <path
        d="M329.437 32.112s-.399-.164-1.225.206c-.826.385-1.524-.247-1.524-.247s.584.302 1.41-.26c.826-.55 1.794-.358 1.794-.358l-.455.66Zm9.712 2.032.015-1.455c0-.714.598-1.277 1.324-1.277.741 0 1.324.577 1.324 1.29l-.014 1.456c0 .7-2.649.686-2.649-.014Z"
        fill="#1A1A1A" />
    <path
        d="M340.189 31.454s.954-.193 1.78.357c.826.562 1.41.26 1.41.26s-.684.632-1.524.247c-.826-.37-1.225-.206-1.225-.206l-.441-.658Z"
        fill="#1A1A1A" />
    <path
        d="M349.204 48.187c-.029.22-.015.426.042.632a70.56 70.56 0 0 0-6.365.233.414.414 0 0 0 .014-.096c.128-.563.626-.975.997-1.428.598-.755.883-1.715.783-2.608-.128-1.125-.826-2.182-.612-3.322.327-1.798 2.506-3.157 2.136-4.9-.2-.934-1.182-1.524-1.367-2.458-.285-1.468 1.167-2.704 1.58-4.187.257-.878-.014-1.743-.498-2.498-1.51.014-4.742.192-4.728-.041.157-1.524.071-3.967-.556-5.326-.683 1.537-1.025 5.326-1.239 5.463a.843.843 0 0 1-.37.069c-4.187.014-10.311.04-14.497.055-.029.11-.053.215-.072.315-.199 1.195.299 2.334.655 3.446.356 1.126.556 2.444-.156 3.473-.385.55-.983.947-1.439 1.455-1.068 1.208-1.153 3.061-.199 4.215.441.535 1.097.96 1.225 1.647.156.892-.641 1.702-1.026 2.553-.427.975-.313 2.1.299 2.91.228.302.527.563.641.92.038.11.052.224.043.343h-10.111c.085-.302.228-.604.398-.85.47-.742 1.069-1.648.656-2.362-.171-.288-.485-.48-.67-.741-.655-.865.029-2.142.812-3.007.783-.85 1.752-1.798 1.68-2.882-.071-.893-.826-1.538-1.324-2.265-.954-1.456-.84-3.542.299-5.025.855-1.112 2.222-1.935 2.649-3.24 1.666-4.996.555-8.771 5.896-12.093 5.796-3.61 9.413-5.862 15.708-2.87 4.002 1.909 9.77 5.505 9.485 9.679-.128 1.715.057 3.431.327 5.106.342 2.032 2.621 3.528 2.265 5.615-.328 1.922-2.749 3.088-3.333 4.97-.712 2.292 1.595 4.502.897 6.794-.199.687-.655 1.304-.854 1.99a1.17 1.17 0 0 0-.071.316Z"
        fill="#7F3B37" />
    <path
        d="M336.586 38.468a7.869 7.869 0 0 0 2.834-1.03c-.741 1.332-1.495 2.609-3.603 2.829-2.122.22-3.204-.838-3.632-2.293 1.382.577 2.92.728 4.401.494Z"
        fill="#fff" />
    <path d="M42.275 34.954h15.523v17.79H42.275v-17.79Z" fill="#FFA58F" />
    <path d="M57.798 34.954v5.464c-3.86 3.02-9.072 5.051-15.523 5.477V34.954h15.523Z" fill="#B3624B" />
    <path
        d="M79.36 53.857c1.694 1.276 4.613 3.898 4.798 5.299.171 1.414 5.711 38.752 6.067 41.168.684 4.86-15.352-.123-15.95-3.28-.613-3.171-7.306-26.193-7.306-26.193l6.466-18.285s4.144-.055 5.924 1.29Z"
        fill="#29253B" />
    <path
        d="M70.6 108.794c4.074 24.065.556 68.432-.498 74.952-1.068 6.603-15.21-4.296-15.665-10.954-.171-2.389.484-4.777.484-7.166.014-2.128-.954-4.159-.983-6.287-.327-18.546-4.115-21.154-6.864-32.603l-4.457-17.942H70.6Z"
        fill="#232033" />
    <path
        d="M15.387 247.305c.085-1.236 1.04-2.114 1.937-2.965a7996.27 7996.27 0 0 0 8.815-8.374s1.78-6.013 2.279-7.838c.228-.838 1.054-1.373 1.951-1.263l4.514.604c.997.137.77 1.331.656 2.306l-.328 13.192c-.755 1.482-3.404 2.951-6.409 4.338 0 0-13.415.041-13.415 0Z"
        fill="#B3B3B3" />
    <path
        d="M36.322 247.511H10.687c-.185-.289-.299-.549-.284-.783.114-1.674 1.381-2.869 2.221-3.665l10.14-5.381.826-1.634c3.575-.274 8.331 1.853 8.331 1.853l.27 2.993a6.99 6.99 0 0 0 .642-.055c3.346-.535 2.335-7.619 2.62-7.577.285.041.869 14.249.869 14.249Z"
        fill="#1A1A1A" />
    <path
        d="M65.958 247.222c-1.025-2.182-1.937-4.173-2.706-6.451l.456-11.916a1.58 1.58 0 0 1 1.61-1.551l4 .068c.784 0 1.44.577 1.553 1.346.228 1.661 1.068 7.124 1.068 7.124l6.694 8.47c.683.865 1.296 2.952 1.296 2.952l-13.971-.042Z"
        fill="#B3B3B3" />
    <path
        d="M80.812 247.277c0 .083-.005.161-.014.234h-20.68s2.99-13.892 3.247-13.892c.256 0-.655 4.708 2.193 5.6.18.064.366.11.556.138l.584-2.581s4.372-1.222 7.448-.522l.626 1.812 4.53 5.725c.64.81 1.608 2.018 1.509 3.486Z"
        fill="#1A1A1A" />
    <path
        d="M56.958 107.422v16.225c-2.806 11.435-8.745 22.884-11.564 34.319-.499 2.073-1.012 4.16-1.012 6.287 0 2.389.67 4.778.499 7.166-.456 6.658-14.91 17.558-16.007 10.955-1.069-6.521-3.133-50.888 1.025-74.952h27.059Z"
        fill="#232033" />
    <path
        d="M26.282 231.601c-.171-9.486-.015-18.958.156-28.444l.257-14.29c.114-6.713.527-13.508 3.09-19.836.755-1.881 13.074-6.768 14.597-4.778 0 0 1.026 9.335 1.667 13.563.427 2.787-.143 5.601-.727 8.36-3.104 15.018-4.728 30.407-7.832 45.425H26.282Zm35.261.81c-3.047-15.018-4.5-29.844-7.533-44.862-.57-2.759-1.125-5.573-.712-8.36.626-4.228 1.623-13.563 1.623-13.563 1.495-1.99 13.544 2.897 14.298 4.777 2.507 6.329 2.906 13.124 3.02 19.837.085 4.768.166 9.531.242 14.29.17 9.486.583 18.354.413 27.839l-11.35.042Z"
        fill="#232033" />
    <path
        d="M39.17 117.429h-.883c-2.307-.028-9.185-1.949-10.182-3.446 2.563-12.766.997-20.467-.513-27.908-.84-4.187-1.809-13.247-1.809-13.247-.925-1.675-1.994-14.208-1.21-19.37l17.018-6.89 7.89 2.265h1.58l7.89-2.265 17.019 6.89c.783 5.162-.285 17.695-1.21 19.37 0 0-1.197 9.28-2.28 13.508-1.837 7.152-3.73 14.538-1.153 27.181v.054c-.498.742-4.33 2.664-6.195 2.938-5.996.92-25.15.92-25.962.92Z"
        fill="#CFD7E9" />
    <path
        d="m57.926 99.528-7.648 8.635-7.661-8.635 4.656-43.68-2.962-2.774 1.766-4.667 4.201-.357 4.202.357 1.765 4.667-2.976 2.773 4.657 43.681Z"
        fill="#869AC9" />
    <path
        d="m63.65 48.503-7.989 12.121L53.27 48.64l-2.99-.59 8.174-5.244 5.198 5.697Zm-21.56-5.697 8.188 5.244-3.005.59-2.392 11.984-7.99-12.12 5.199-5.698Z"
        fill="#E7EBF4" />
    <path
        d="m27.207 52.36 6.466 18.272s-5.312 31.202-6.266 33.371c-.954 2.169-16.392 2.087-15.794-5.779.969-8.154 4.7-37.874 4.87-39.274.186-1.414 3.105-4.036 4.8-5.3 1.78-1.344 5.924-1.29 5.924-1.29Zm48.279 20.825s-4.002 21.58-1.282 41.773c.256 1.908 2.236 11.86 1.025 13.343-1.225 1.483-12.276 2.828-18.271-1.112l.612-44.38 4.8-35.706 15.622 6.081c.926 4.9-2.507 20.001-2.507 20.001Z"
        fill="#29253B" />
    <path
        d="M44.824 128.699c-5.312 3.391-18.371.618-19.24-.59-.869-1.208 1.225-12.067 1.381-13.796 3.39-19.905-1.894-41.128-1.894-41.128s-3.019-15.416-2.093-20.317l15.195-5.765 5.412 35.403 1.239 46.193Z"
        fill="#29253B" />
    <path
        d="M66.827 101.972c-3.788-1.126-32.4-10.447-32.4-10.447-.697-2.526 1.311-5.766 1.311-5.766s38.75 3.9 42.824 5.258c4.073 1.36 7.505 10.886 7.348 11.874-.156.989-15.31.193-19.083-.919Z"
        fill="#FFA58F" />
    <path d="m36.28 91.594-7.178 2.333v-10.94c.498.247 8.302 3.28 8.302 3.28l-1.125 5.327Z" fill="#FFA58F" />
    <path
        d="M79.53 89.795c6.58 1.552 9.641 6.727 10.553 10.227.897 3.501-3.589 7.345-14.213 5.203-10.61-2.141-36.486-9.87-36.486-9.87l2.478-11.064s31.089 3.953 37.668 5.504Z"
        fill="#29253B" />
    <path
        d="M17.139 103.303c.043-1.002 3.36-12.286 7.633-12.89 4.258-.618 47.751 5.574 47.751 5.574s-1.937 5.765-3.532 6.383c0 0-21.803.796-29.55 1.716-3.931.466-22.345.206-22.302-.783Z"
        fill="#FFA58F" />
    <path
        d="M66.186 96.192c.2-.329.498-.604.84-.768 2.435-1.18 6.224-4.791 8.545-5.052.883-.096.783 3.418.527 5.08-.385 2.36 1.239 4.941.854 6.753-.114.549-.256 1.139-.67 1.538-.725.7-1.964.466-3.004.178-2.55-.686-5.24-1.002-7.59-2.238-2.009-1.057-.314-4.214.498-5.49Z"
        fill="#FFA58F" />
    <path
        d="M75.115 93.735c2.15-.316 4.159.563 6.338-.123 2.677-.838 2.264-.77 4.443-1.73 1.438-.632 3.304.343 1.937 1.126-3.675 2.114-5.013 3.143-6.238 3.418-1.951.44-3.617.549-6.081.494-1.467-.041-1.852-2.979-.399-3.185Z"
        fill="#FFA58F" />
    <path
        d="M74.275 97.043c2.862-.425 5.796.234 8.616-.521 0 0 .968-.385 3.731-1.4 1.837-.673 2.977 1.29 1.125 1.963-2.691.988-3.517 1.66-5.184 2.073-2.207.549-3.403.206-6.878.425-1.951.137-3.347-2.265-1.41-2.54Z"
        fill="#FFA58F" />
    <path
        d="M74.432 99.034c2.89-.137 4.571 1.359 7.462.879 2.036-.33 5.041-1.373 5.967-1.579.798-.178 1.467.755.954 1.318 0 0-.897.796-2.065 1.194-.754.247-3.475 1.318-4.115 1.414-1.396.22-4.202 0-7.15-.549-1.922-.343-2.99-2.58-1.053-2.677Z"
        fill="#FFA58F" />
    <path
        d="M73.919 101.217c2.307.357 4.5 1.414 6.85 1.469 1.666.041 3.105-.069 3.874-.097.655-.027 1.04.756.57 1.181 0 0-1.795.33-2.436.343-1.182.041-3.105.371-3.632.357-1.139-.041-2.065.124-4.656-.274-1.567-.247-2.123-3.213-.57-2.979Zm-4.13-6.74s3.133-3.02 4.044-3.872c.741-.686 1.624-1.276 3.319-1.578 2.122-.385 4.941-1.373 4.813.11-.071.74-.726 1.633-1.353 2.017-.626.371-2.079.907-3.161 1.29-.997.344-1.624 1.744-2.692 3.776l-4.97-1.743Z"
        fill="#FFA58F" />
    <path
        d="M19.19 104.868c-4.472-.92-5.028-4.324-4.33-8.51.698-4.188 6.152-8.333 9.442-7.935 3.29.384 41.841 4.447 41.841 4.447l-2.492 11.435s-39.99 1.497-44.462.563Z"
        fill="#29253B" />
    <path
        d="M59.606 26.622c.4-.577.94-1.099 1.624-1.346.683-.26 1.538-.206 2.093.247.47.385.67.975.698 1.552.1 1.73-1.125 3.253-2.435 4.475-.499.466-1.026.906-1.652 1.208-.627.302-1.367.439-2.037.247l1.71-6.384Zm-18.115 6.383c-.683.192-1.424.055-2.05-.247-.627-.302-1.154-.742-1.652-1.208-1.31-1.222-2.521-2.746-2.436-4.476.029-.576.228-1.166.698-1.55.556-.454 1.41-.509 2.094-.248.683.247 1.224.769 1.623 1.346l1.723 6.383Z"
        fill="#FFA58F" />
    <path
        d="M50.236 42.422c-4.6 0-10.44-6.232-11.963-9.774-.812-2.073-.143-4.187-.499-6.315-.427-2.54-.797-5.958-1.182-8.428-.783-4.119 2.792-7.743 9.215-9.486 6.38-1.744 13.344.33 16.12 3.967 2.82 3.514 2.165 7.495 1.525 9.829-.898 3.102-2.35 6.246-2.877 11.627-.356 2.348-6.566 8.58-10.34 8.58Z"
        fill="#FFA58F" />
    <path
        d="M50.877 29.573c-.029.11-.086.206-.129.302-.057.096-.114.192-.213.247-.1.041-.242.014-.342-.137a.646.646 0 0 1-.114-.302.83.83 0 0 1 .043-.371.742.742 0 0 1 .213-.316.718.718 0 0 1 .27-.165c.186-.054.314.014.357.11.043.096.028.206 0 .316a1.3 1.3 0 0 1-.086.316Z"
        fill="#F2F2F2" style="mix-blend-mode:soft-light" />
    <path
        d="M49.822 30.204c.048.092.095.17.143.234.1.15.2.26.256.37.129.206.143.343.072.453-.086.124-.228.069-.47-.11-.114-.096-.257-.205-.4-.37a2.218 2.218 0 0 1-.227-.261c-.076-.1-.142-.21-.2-.33a1.256 1.256 0 0 1-.142-.384 1.01 1.01 0 0 1-.028-.412 1.4 1.4 0 0 1 .213-.659c.1-.164.2-.288.285-.343.071-.055.157-.055.242.014a.43.43 0 0 1 .114.316c.014.137-.014.302-.028.453l-.029.22c0 .073.005.132.014.178l.029.165c.01.064.024.132.043.206.028.096.07.178.113.26Z"
        fill="#D16343" />
    <path
        d="M53.881 23.464a5.244 5.244 0 0 1 2.065-.096c.684.096 2.307 1.702 1.695 1.551a14.363 14.363 0 0 0-1.823-.384 17.587 17.587 0 0 0-1.851-.151c-.627-.014-.755-.741-.086-.92Zm-8.359.865c-.627.027-1.244.091-1.852.192a14.57 14.57 0 0 0-1.823.426c-.612.164.997-1.483 1.68-1.593a5.155 5.155 0 0 1 2.052.055c.669.151.57.893-.057.92Zm-2.82 3.83-.014-1.428c0-.686.584-1.249 1.296-1.263.712 0 1.295.563 1.31 1.25v1.427c.014.687-2.592.7-2.592.014Zm11.521-.014.014-1.427c0-.687.584-1.25 1.296-1.25.712.014 1.296.577 1.296 1.263l-.014 1.428c0 .686-2.592.673-2.592-.014Z"
        fill="#1A1A1A" />
    <path
        d="M47.914 32.442c.84 1.18 2.592 1.688 3.96 1.14.156-.056.327-.028.412.123.072.123.043.33-.114.398-1.694.673-3.745.096-4.785-1.373-.213-.316.314-.59.527-.288Z"
        fill="#C2502F" />
    <path
        d="M63.665 22.325c-.555 1.99-1.524 4.324-2.179 6.232-.213-5.244.328-10.337-1.808-14.784-1.823-.7-4.073-.412-5.896.425-2.307 1.057-5.227 3.912-7.178 5.491-1.951 1.579-4.215 3.034-6.765 3.171-2.89.165-3.36-1.936-4.4-5.971-1.04-4.036 1.495-10.323 6.024-12.987C46.02 1.24 51.93 1.157 56.915 3.01c1.467.55 2.948 1.318 3.774 2.608.812 1.29.697 3.213-.627 4.05 2.407.769 3.973 3.116 4.372 5.505.27 1.523.143 3.075-.156 4.612a38.94 38.94 0 0 1-.613 2.54Z"
        fill="#693529" />
    <path d="M36.18 14.13c.982-.783 2.976.92 2.976.92l-1.268 13.3s-2.677-13.424-1.708-14.22Z" fill="#693529" />
</svg>